<svg width="41" height="48" viewBox="0 0 41 48" fill="none" xmlns="http://www.w3.org/2000/svg">
<path d="M20.6087 3.20098C26.1386 3.20098 32.0994 8.61717 32.0994 13.541C32.0994 18.241 25.3845 28.8496 20.6087 34.221C15.8329 28.6257 9.11801 18.5096 9.11801 13.8096C9.11801 8.88574 15.0788 3.20098 20.6087 3.20098ZM20.6087 0.380981C12.3139 0.380981 5.52717 6.42384 5.52717 13.8096C5.52717 23.881 20.6087 38.4286 20.6087 38.4286C20.6087 38.4286 35.6902 23.6572 35.6902 13.8096C35.6902 6.42384 28.9035 0.380981 20.6087 0.380981ZM20.6087 9.78098C17.8438 9.78098 15.8209 11.3476 15.8209 13.8096C15.8209 16.2715 17.8438 18.241 20.6087 18.241C23.3736 18.241 25.3965 16.2715 25.3965 13.8096C25.3965 11.3476 23.3736 9.78098 20.6087 9.78098ZM40.7174 38.4286C40.7174 43.3524 31.6685 47.381 20.6087 47.381C9.54891 47.381 0.5 43.3524 0.5 38.4286C0.5 35.5191 4.3422 34.1315 9.11801 32.341L11.0331 33.281C8.51954 34.4 3.37267 36.4143 3.37267 37.981C3.37267 41.1143 12.3139 44.561 20.6087 44.561C28.9035 44.561 37.8447 41.1143 37.8447 37.981C37.8447 36.4143 32.9492 34.4 30.1843 33.281L32.0994 32.341C37.1266 34.1315 40.7174 35.5191 40.7174 38.4286Z" fill="#1A1A19"/>
</svg>
