<svg width="198" height="176" viewBox="0 0 198 176" fill="none" xmlns="http://www.w3.org/2000/svg">
<path opacity="0.8" d="M129.118 149.38C136.531 156.584 140.235 169.661 141.161 175.299L142.668 174.148M129.118 149.38C129.937 146.676 130.749 139.798 127.45 133.917C124.15 128.035 123.154 125.82 123.069 125.448M129.118 149.38C129.352 150.077 129.044 152.72 125.939 157.717C122.059 163.963 124.833 164.47 122.135 167.187C119.437 169.905 106.776 177.936 104.551 173.071C102.771 169.179 100.115 166.613 99.0096 165.817C98.1351 165.063 97.0415 162.069 99.6633 156.128C99.9317 155.357 99.7182 154.613 97.1963 156.804M123.069 125.448L126.156 124.802M123.069 125.448C118.3 130.141 114.649 126.795 113.42 124.535M123.069 125.448C122.436 125.58 121.659 125.593 120.817 125.527M128.985 124.21C129.267 126.402 130.713 132.408 134.242 138.902C138.653 147.02 143.645 158.632 144.038 162.271C144.352 165.182 145.517 169.674 146.06 171.557L142.668 174.148M128.985 124.21L127.699 124.479M128.985 124.21C135.922 123.834 149.07 113.79 151.422 111.009C152.694 109.504 153.004 107.197 152.865 105.255M141.346 158.747C142.339 162.912 143.994 171.822 142.668 174.148M132.161 138.522C129.994 134.123 126.067 125.155 127.699 124.479M127.699 124.479L126.156 124.802M128.225 131.027C127.223 129.324 125.405 125.695 126.156 124.802M70.327 153.266C61.6602 159.887 66.4243 161.827 71.6332 164.74C73.3796 165.717 75.5223 165.764 77.7092 165.273M70.327 153.266C78.9937 146.646 77.9013 149.121 81.2324 147.233C84.5636 145.344 84.6839 143.94 91.4444 141.073C96.8529 138.779 99.214 133.278 99.7185 130.813M70.327 153.266C67.5357 153.648 60.9538 154.978 56.9564 157.244C52.9591 159.51 49.9594 158.76 48.9592 158.102M99.7185 130.813C100.082 139.726 96.6909 142.863 94.9498 143.318M99.7185 130.813C100.083 130.691 100.479 130.555 100.9 130.407M99.7185 130.813C98.7853 130.735 97.7405 130.723 95.2502 130.042M113.865 123.945C113.783 124.13 113.632 124.328 113.42 124.535M113.865 123.945L113.42 124.535M113.865 123.945L114.109 123.093M113.865 123.945C114.238 124.433 115.469 124.343 116.854 123.953M113.865 123.945C115.382 124.478 118.369 125.336 120.817 125.527M113.42 124.535C112.955 124.99 112.202 125.493 111.268 126.013M77.7092 165.273C82.0451 164.301 86.5548 161.217 88.4934 159.081C90.8265 156.511 94.3346 157.354 95.797 158.097C96.3279 157.582 96.7918 157.155 97.1963 156.804M77.7092 165.273C82.0966 166.2 92.1366 165.803 97.1963 156.804M100.436 136.83L100.9 130.407M100.9 130.407C101.272 130.276 101.665 130.135 102.071 129.987M101.739 133.458C102.068 132.458 102.596 130.362 102.071 129.987M102.071 129.987C102.736 129.745 103.439 129.481 104.157 129.203M109.179 133.433C109.144 131.955 108.727 128.78 107.342 127.904M107.342 127.904C107.719 127.741 108.092 127.576 108.457 127.411M107.342 127.904C106.756 128.157 106.159 128.405 105.562 128.647M112.971 136.444C112.768 133.576 111.975 127.564 110.42 126.466M110.42 126.466C110.211 126.574 109.995 126.682 109.773 126.791M110.42 126.466C110.716 126.314 110.999 126.163 111.268 126.013M110.16 142.529C111.541 139.39 113.133 131.97 108.457 127.411M108.457 127.411C108.91 127.205 109.351 126.997 109.773 126.791M87.8518 117.232C87.2058 119.476 89.8434 124.901 105.562 128.647M105.562 128.647C105.091 128.837 104.621 129.023 104.157 129.203M92.2027 126.052C94.8925 127.289 101.049 129.651 104.157 129.203M94.0108 121.389C96.9209 123.246 104.148 126.926 109.773 126.791M109.773 126.791C109.997 125.345 105.087 121.493 102.603 119.748M99.2323 111.821C103.644 115.399 112.228 123.247 111.268 126.013M114.414 119.587L114.109 123.093M114.109 123.093C117.68 118.519 113.302 113.757 110.667 111.947M114.109 123.093C116.341 121.719 120.99 119.29 121.726 120.566M121.726 120.566C119.712 121.054 116.67 116.551 115.401 114.239M121.726 120.566C122.316 121.59 119.338 123.253 116.854 123.953M121.726 120.566C123.356 118.886 125.892 116.363 128.224 114.231M133.554 93.4785C133.222 93.0431 132.8 92.1926 133.035 90.9211M133.554 93.4785C133.848 94.0541 134.098 94.8806 134.301 95.8622M133.554 93.4785C132.179 90.7887 129.982 87.0224 127.195 84.8804M124.379 83.4207C122.963 83.0399 122.366 82.7665 122.019 82.5978M124.379 83.4207C126.267 84.0791 126.445 78.8609 126.299 76.1695M124.379 83.4207C125.372 83.6877 126.313 84.2028 127.195 84.8804M112.418 85.3378C114.034 86.2036 117.313 91.2254 118.751 93.6281M112.418 85.3378C112.738 85.3355 113.029 85.3272 113.294 85.3134M112.418 85.3378C111.992 85.3408 111.617 85.3692 111.286 85.4188M97.7217 96.5641C95.5511 97.2377 95.8376 98.0034 94.7072 98.867C93.8018 99.5586 91.5375 98.9725 89.1776 101.371M97.7217 96.5641C98.5533 96.3061 99.5897 95.6056 100.565 94.8174M97.7217 96.5641C99.4471 94.2638 102.259 88.6636 101.156 83.1096M83.1701 112.275C81.6862 111.635 78.08 110.461 75.5262 110.894C75.3841 110.918 75.2423 110.937 75.1012 110.951M83.1701 112.275C83.2039 112.543 83.2446 112.843 83.2919 113.167M83.1701 112.275C83.1616 111.503 83.1657 110.549 83.1915 109.569M93.3191 129.466C93.0216 129.372 92.7331 129.253 92.4534 129.114M93.3191 129.466C94.0474 129.698 94.6859 129.887 95.2502 130.042M93.3191 129.466C94.9658 131.622 88.7612 135.737 85.453 137.526M117.22 88.89C116.203 87.6897 113.995 85.294 113.294 85.3134M113.294 85.3134C116.607 85.1416 115.753 84.1182 116.878 83.3659M113.294 85.3134C113.995 85.294 113.971 80.8618 113.871 78.6481M125.255 89.6443L119.868 82.5933M119.868 82.5933C119.572 82.6403 119.221 82.6954 118.801 82.7586C117.814 82.9073 117.243 83.1224 116.878 83.3659M119.868 82.5933C121.558 82.3253 121.454 82.3224 122.019 82.5978M122.285 87.3184C120.98 85.4802 118.072 82.1162 116.878 83.3659M104.017 103.242C102 100.472 98.4854 94.9078 100.565 94.8174M100.565 94.8174C100.728 94.6852 100.89 94.5505 101.049 94.4151M101.783 98.0567C101.39 97.0209 100.839 95.1925 101.049 94.4151M101.469 94.0489C101.781 93.7714 102.076 93.4969 102.343 93.2397M101.469 94.0489C101.244 94.0426 101.112 94.1813 101.049 94.4151M101.469 94.0489C101.332 94.1708 101.192 94.2932 101.049 94.4151M88.7322 109.011C88.0434 107.328 86.411 104.098 85.3921 104.639M85.3921 104.639C84.9573 104.673 84.5374 104.579 84.2086 104.261C83.988 104.048 83.8113 104.231 83.6708 104.672M85.3921 104.639C85.8859 104.6 86.3989 104.395 86.8198 104.164M88.5927 106.485L86.8198 104.164M86.8198 104.164C87.0549 104.036 87.2613 103.899 87.4195 103.778C87.4626 103.701 87.5057 103.626 87.549 103.552M130.994 106.921C131.241 108.677 131.497 112.189 130.545 112.192M130.545 112.192C131.24 111.614 131.868 111.129 132.384 110.787M130.545 112.192C129.828 112.789 129.038 113.486 128.224 114.231M130.545 112.192C131.579 111.775 133.284 111.033 134.764 110.271M129.884 97.2667C131.263 100.045 133.693 106.64 132.384 110.787M132.384 110.787C132.881 110.458 133.275 110.261 133.527 110.238C133.741 110.218 133.93 110.044 134.095 109.746M125.562 79.8916C124.951 81.1239 123.388 83.3902 122.019 82.5978M126.135 120.479C123.927 122.272 118.978 125.477 116.854 123.953M137.726 112.61C135.218 112.19 129.805 111.926 128.224 114.231M151.857 101.815C151.073 101.101 148.039 105.279 146.619 107.457C143.983 107.39 138.44 107.53 137.364 108.62C136.897 109.092 135.897 109.688 134.764 110.271M151.857 101.815C149.059 106.224 142.187 115.325 137.083 116.454C131.979 117.584 124.112 122.974 120.817 125.527M151.857 101.815C152.307 102.224 152.747 103.608 152.865 105.255M142.285 109.127C140.746 108.769 137.088 108.496 134.764 110.271M152.535 98.0154C149.333 97.47 141.251 98.7894 134.533 108.429M134.533 108.429C134.413 108.983 134.267 109.433 134.095 109.746M134.533 108.429C134.711 107.607 134.831 106.557 134.896 105.389M138.647 106.003C137.491 106.792 134.962 108.644 134.095 109.746M145.878 95.5512C142.204 96.4693 134.864 98.8644 134.901 101.1M134.901 101.1C136 93.7895 149.203 88.0565 155.668 86.1038M134.901 101.1C134.92 101.509 134.934 101.918 134.942 102.326M134.901 101.1C134.865 100.326 134.809 99.556 134.735 98.8129M138.154 101.452L134.896 105.389M134.896 105.389C134.949 104.427 134.964 103.385 134.942 102.326M134.942 102.326C135.843 101.682 138.235 100.231 140.603 99.5812C143.25 98.8541 144.341 96.7142 148.64 94.0891M180.482 53.363C183.632 54.3477 184.717 56.9993 184.946 59.2072M180.482 53.363C177.8 52.5246 177.77 52.639 177.33 52.7514M180.482 53.363C179.137 52.775 176.738 50.3772 177.898 45.4903M157.927 53.5198L157.542 52.1795C154.925 53.8501 149.118 56.9081 146.82 55.7751M157.927 53.5198C156.724 54.247 155.284 55.3456 157.881 54.6323M157.927 53.5198L163.464 51.7859M146.82 55.7751C148.687 53.3646 151.449 46.6594 147.567 39.1223M146.82 55.7751C146.446 56.5237 146 57.4087 145.514 58.3619M139.504 69.241C138.897 69.7046 139.82 70.2258 140.354 71.217M139.504 69.241C139.26 69.6602 139.031 70.0264 138.817 70.3447M139.504 69.241C139.655 69.1255 139.954 68.6859 140.353 68.0225M140.56 73.3574C140.825 72.4544 140.649 71.7641 140.354 71.217M140.56 73.3574C140.741 71.2503 144.426 71.3884 146.589 68.7517C148.752 66.1149 153.191 65.6773 160.367 64.1345C166.107 62.9003 169.602 63.2058 170.633 63.5128C171.183 64.6239 171.961 66.5019 170.67 65.1247C169.057 63.4033 169.66 64.5836 164.724 66.7138C163.036 67.4421 162.282 67.8407 161.709 68.2353M140.56 73.3574C140.284 74.0337 139.674 75.2672 138.768 76.6951M140.56 73.3574C140.089 74.9624 141.222 71.8 142.548 68.9292M157.881 54.6323C158.223 54.5385 158.634 54.4134 159.125 54.2521C161.724 53.3977 162.357 52.3753 163.464 51.7859M157.881 54.6323C158.018 55.5928 157.117 58.0836 152.414 60.3635C151.859 60.6323 151.357 60.882 150.899 61.1149M153.217 57.1181C150.733 57.3826 145.501 58.4224 144.436 60.4658M144.436 60.4658C142.954 63.3395 141.345 66.3728 140.353 68.0225M144.436 60.4658C144.808 59.7464 145.171 59.0371 145.514 58.3619M150.899 61.1149C148.019 61.0437 141.877 62.9645 140.354 71.217M150.899 61.1149C148.723 62.2233 147.578 62.9511 146.789 63.5461M164.322 52.908C166.211 52.7775 170.911 52.8632 174.595 54.2495C178.938 55.8835 180.908 52.3272 182.692 55.941M184.946 59.2072L183.015 56.679C182.908 56.4049 182.801 56.1598 182.692 55.941M184.946 59.2072C184.991 59.6331 185.003 60.0424 184.992 60.4201M178.478 56.207C179.775 55.8723 182.434 55.3505 182.692 55.941M177.74 60.709C181.126 60.9756 187.645 62.1933 186.634 64.9314M186.634 64.9314C186.736 64.6846 186.841 64.4324 186.951 64.1749C186.959 63.4035 186.557 61.7846 184.893 61.4806C184.945 61.1729 184.981 60.8137 184.992 60.4201M186.634 64.9314C185.785 66.9953 185.228 68.6861 184.877 70.0513M182.27 59.218C183.337 59.04 185.375 59.0312 184.992 60.4201M173.943 72.1428C177.75 70.5643 185.265 67.9361 184.877 70.0513M184.877 70.0513C184.807 70.3235 184.745 70.5827 184.691 70.8294M178.795 71.8539C180.847 71.0116 184.9 69.6275 184.691 70.8294M184.691 70.8294C184.919 73.8203 180.691 74.1065 178.549 73.8757M184.691 70.8294C184.41 72.1058 184.331 73.0459 184.362 73.7019M171.635 77.3231C175.363 77.2748 183.128 76.4829 184.362 73.7019M184.362 73.7019C184.389 74.2783 184.5 74.6353 184.632 74.8083C184.524 74.9114 184.407 75.0203 184.284 75.1339M134.735 98.8129C134.628 97.7507 134.483 96.7439 134.301 95.8622M134.735 98.8129C134.954 97.3993 135.423 95.3515 136.181 93.1129M155.047 72.7933C154.082 73.3677 153.281 73.8573 152.605 74.284M155.047 72.7933C154.097 71.5497 152.155 69.5542 151.986 71.5209C151.818 73.4875 150.535 73.3958 149.914 73.1041C144.764 70.7368 140.338 74.5117 138.768 76.6951M155.047 72.7933C157.39 71.398 158.753 70.4847 159.647 69.8319M133.035 90.9211C133.136 90.377 133.357 89.7559 133.757 89.0571C135.091 86.7253 132.414 84.175 135.707 80.6746C136.941 79.3628 137.97 77.9535 138.768 76.6951M133.035 90.9211C135.038 88.8313 139.051 83.8012 139.077 80.3984C139.103 76.9955 142.856 76.102 144.729 76.0805C146.95 75.994 151.635 75.5135 152.605 74.284M152.605 74.284C147.822 77.3043 149.309 77.1768 143.366 81.7168C139.871 84.3866 137.553 89.0619 136.181 93.1129M153.772 69.172C155.355 69.6819 158.746 70.5278 159.647 69.8319M159.647 69.8319C160.71 69.0559 161.11 68.6477 161.709 68.2353M158.114 67.8248C158.897 68.1996 160.713 68.8064 161.709 68.2353M151.865 64.7217C149.238 65.0131 143.698 66.2626 142.548 68.9292M142.548 68.9292C143.319 67.2589 144.156 65.6874 144.779 65.211C145.554 64.6193 145.987 64.1514 146.789 63.5461M155.444 61.9871C153.158 61.4678 148.226 61.0526 146.789 63.5461M163.464 51.7859C164.607 51.1778 166.256 51.0306 171.09 52.0042C171.599 52.1067 172.065 52.1973 172.492 52.2772M171.282 44.8355C171.248 47.004 171.442 51.5283 172.492 52.2772M172.492 52.2772C173.323 52.4326 174.004 52.5473 174.567 52.6305M169.421 36.5405C170.292 38.2018 172.091 42.4572 172.316 46.1886C172.541 49.9199 173.91 52.0379 174.567 52.6305M174.567 52.6305C176.477 52.9131 177.011 52.8327 177.33 52.7514M147.567 39.1223C150.782 39.1828 157.454 38.5278 158.424 35.4236C159.394 32.3193 160.935 34.2713 161.584 35.6353C162.128 36.0944 163.869 35.9901 166.473 31.9002C169.077 27.8104 175.419 37.1009 178.264 42.2574C178.273 42.8949 178.19 44.0816 177.898 45.4903M147.567 39.1223C147.872 37.0295 147.729 33.3534 144.717 35.3916M177.33 52.7514C176.514 52.8492 175.227 52.323 176.601 49.4353C177.238 48.0954 177.646 46.7097 177.898 45.4903M144.717 35.3916C144.565 36.3829 143.891 38.583 142.407 39.4535C140.553 40.5416 138.361 43.5295 138.429 44.7903C138.482 45.7736 136.697 46.9635 136.241 48.4309M144.717 35.3916C144.089 34.4667 143.359 33.9527 142.581 33.7408M144.717 35.3916C146.379 34.1219 144.059 32.396 142.669 29.7203M130.593 62.2633C131.347 61.6876 132.371 57.9512 131.67 55.8613C130.968 53.7715 136.945 51.8313 136.244 49.7415C136.089 49.2815 136.112 48.8451 136.241 48.4309M130.593 62.2633C130.354 62.4459 130.394 62.6795 130.54 62.9608M130.593 62.2633C131.526 60.5003 128.298 57.2338 126.567 55.821M139.871 58.786C140.288 62.052 140.661 68.9362 138.817 70.3447M138.817 70.3447C136.617 73.6131 135.939 71.814 135.883 70.3594C136.331 69.5135 137.048 67.5883 136.335 66.6547C135.622 65.7212 135.828 64.9502 136.021 64.6813C135.762 62.91 134.936 59.9964 133.705 62.5122C132.166 65.6569 130.549 66.892 131.204 65.4067C131.652 64.3925 130.852 63.5662 130.54 62.9608M141.106 52.5913C141.412 56.3764 141.775 64.4808 140.782 66.6173M140.782 66.6173C139.788 68.7538 140.082 68.4443 140.353 68.0225M140.782 66.6173C141.124 65.4932 142.307 59.6269 142.856 56.8343M144.157 43.6965C145.157 47.7398 146.829 56.3334 145.514 58.3619M136.531 89.5638C135.692 91.0954 134.071 94.4993 134.301 95.8622M142.636 88.1821C140.629 89.3727 136.528 92.0258 136.181 93.1129M100.621 81.2214C98.328 75.0958 100.645 76.8268 102.09 78.458C102.416 78.5175 102.949 78.5203 103.524 78.3474M100.621 81.2214C100.213 79.9068 98.4421 79.9318 94.7864 79.4423C91.8619 79.0508 89.2455 74.9229 88.3029 72.9079M100.621 81.2214C100.809 81.725 100.96 82.2321 101.077 82.7403M105.391 76.9208C106.076 75.8449 107.485 74.7327 108.807 73.972M105.391 76.9208C105.1 77.3779 104.751 77.7102 104.386 77.9483M105.391 76.9208C104.773 75.4701 103.999 72.57 104.266 69.5748M125.62 70.9853C126.485 72.8986 127.567 73.9247 128.422 72.6997C129.105 71.7197 129.844 71.6973 130.128 71.8086C130.392 72.3581 130.676 73.6216 130.203 75.0312M125.62 70.9853C125.08 69.7894 124.599 70.0458 123.783 70.0912M125.62 70.9853C125.621 70.1145 125.667 68.8686 125.793 67.6961M127.195 84.8804C128.862 84.6571 129.072 82.352 128.969 81.2274C128.68 80.3283 128.406 78.0684 129.62 76.2215C129.883 75.8215 130.072 75.4208 130.203 75.0312M112.077 79.0338C112.146 81.0761 112.083 85.2123 111.286 85.4188M111.286 85.4188C107.23 86.0269 109.854 89.8227 109.094 89.1893C108.273 88.5042 114.229 97.0824 113.287 97.802C112.345 98.5217 115.519 104.63 109.669 98.9246C109.277 98.0207 108.497 95.7502 108.515 93.8987C108.531 92.221 105.607 92.1245 103.731 92.321M104.044 86.4835C103.576 88.344 102.859 92.1162 103.731 92.321M103.731 92.321C103.536 92.3414 103.353 92.3649 103.186 92.3901C102.962 92.6283 102.674 92.9206 102.343 93.2397M102.023 85.4011L102.343 93.2397M101.687 91.8426L101.049 94.4151M130.203 75.0312C131.486 75.2795 133.494 74.6533 131.257 70.1625C131.174 69.9231 131.422 69.1277 133.079 67.8612C134.737 66.5946 133.134 66.7603 132.124 67.0014C130.856 67.4236 128.032 67.5023 126.885 64.4395M126.885 64.4395C125.739 61.3766 127.469 62.3526 128.477 63.2234M126.885 64.4395C126.465 64.5414 126.175 65.3365 125.981 66.3797M128.477 63.2234C128.924 62.6856 129.961 61.8802 130.54 62.9608M128.477 63.2234C129.581 61.8551 128.553 59.6643 127.902 58.7399M125.981 66.3797C125.904 66.7893 125.842 67.2371 125.793 67.6961M125.981 66.3797C125.449 65.3345 124.822 62.22 126.057 57.5232M126.567 55.821C126.31 53.9814 124.893 53.4232 123.886 52.946M126.567 55.821C126.37 56.4093 126.201 56.9769 126.057 57.5232M114.9 60.467C115.408 61.3919 116.633 63.6725 117.471 65.3951M114.9 60.467C115.69 58.6766 117.41 56.3673 119.503 56.9507M114.9 60.467C114.451 59.6343 112.506 59.4345 110.615 59.4732M117.471 65.3951C118.31 67.1176 119.673 68.538 120.25 69.0328M117.471 65.3951C117.517 64.2661 118.293 62.6015 121.029 64.9748C123.765 67.3482 124.005 69.3747 123.783 70.0912M120.25 69.0328C119.108 68.8923 118.113 69.2466 117.645 69.5287C116.668 69.2908 114.673 69.0428 114.51 69.9548C114.306 71.0948 112.588 73.0636 111.36 73.0175C111.154 73.0098 110.885 73.0602 110.573 73.1586M120.25 69.0328C120.77 69.0968 121.321 69.2635 121.866 69.5863C122.683 70.0699 123.294 70.1185 123.783 70.0912M125.793 67.6961C124.351 67.0591 123.116 62.3695 122.679 60.1043C122.064 59.0196 121.457 58.2507 120.868 57.7345M120.868 57.7345L119.987 56.5809L119.503 56.9507M120.868 57.7345C120.4 57.3241 119.943 57.0734 119.503 56.9507M119.503 56.9507C120.276 57.1256 121.729 56.7598 121.352 53.8968C120.882 50.318 122.33 51.837 123.152 52.5221C123.337 52.6761 123.594 52.8076 123.886 52.946M123.886 52.946C125.017 54.1606 127.035 56.7766 126.057 57.5232M110.573 73.1586C108.755 72.3411 107.535 69.8338 107.153 68.6824C107.553 65.8604 107.783 61.2431 105.502 65.349C104.762 66.6799 104.394 68.1383 104.266 69.5748M110.573 73.1586C110.066 73.3182 109.447 73.604 108.807 73.972M105.984 69.1048C106.451 70.7575 107.669 74.0447 108.807 73.972M100.166 70.0813C100.723 72.6098 102.174 77.803 103.524 78.3474M103.524 78.3474C103.807 78.262 104.101 78.1338 104.386 77.9483M102.066 72.5684C102.504 74.7042 103.582 78.7703 104.386 77.9483M104.266 69.5748C104.127 69.2108 103.97 68.7691 103.813 68.2802M103.187 61.5377C103.598 60.9026 104.249 60.4734 104.951 60.1901M103.187 61.5377C102.728 62.6763 99.513 60.838 97.9629 59.7765M103.187 61.5377C102.699 62.2928 102.755 63.7288 103.031 65.2393M111.185 65.6024C110.398 63.6349 108.402 59.7099 106.714 59.7496M106.714 59.7496C107.113 59.7004 107.472 59.6869 107.747 59.6954C108.501 59.5926 109.55 59.495 110.615 59.4732M106.714 59.7496C106.592 59.7646 106.467 59.7829 106.339 59.805M111.661 62.9411C110.722 61.7691 109.198 59.4346 110.615 59.4732M110.615 59.4732C110.545 59.1244 110.481 58.7314 110.427 58.3043M109.021 63.3167C108.706 62.148 107.727 59.8095 106.339 59.805M106.339 59.805C105.89 59.8822 105.41 60.005 104.951 60.1901M136.241 48.4309C135.714 48.1769 134.778 47.1197 135.248 44.9227C135.473 43.8706 134.889 42.8997 134.044 42.1025M133.221 50.0811C134.168 48.7015 135.419 44.9887 132.85 41.1749M132.85 41.1749C132.691 41.0714 132.532 40.9737 132.374 40.8822M132.85 41.1749C133.267 41.4468 133.68 41.7585 134.044 42.1025M133.163 45.709C133.488 44.5266 133.784 41.9059 132.374 40.8822M132.374 40.8822C131.902 40.6078 131.446 40.3889 131.071 40.2364C130.681 39.6796 130.318 39.2078 129.982 38.8103M132.374 40.8822C131.038 39.9059 133.614 36.5034 135.069 34.9242M130.937 45.9187C131.137 44.0411 131.227 39.9908 129.982 38.8103M129.982 38.8103C127.475 35.8502 126.417 37.0161 126.337 37.9449C126.298 38.4056 125.104 39.3716 123.292 40.598M122.23 48.6314C122.006 46.3686 121.904 41.5939 123.292 40.598M123.292 40.598C122.803 40.9285 122.27 41.278 121.702 41.6416M120.349 46.169C120.14 45.0971 120.117 42.6909 121.702 41.6416M121.702 41.6416C121.068 42.0479 120.391 42.4717 119.685 42.9065M121.702 41.6416C122.332 39.5334 121.826 37.5682 120.891 35.869M116.228 49.317C115.718 48.1908 115.37 45.5306 118.057 43.8997M118.057 43.8997C117.812 44.048 117.565 44.1968 117.316 44.3461M118.057 43.8997C118.611 43.5644 119.156 43.2324 119.685 42.9065M113.121 54.6236C113.062 52.0724 113.516 46.626 115.806 45.2494M115.806 45.2494C115.327 45.5347 114.847 45.8198 114.369 46.1028C111.511 47.797 110.498 51.2661 110.301 54.4469M115.806 45.2494C116.312 44.948 116.817 44.6463 117.316 44.3461M93.8444 80.162C96.0623 80.2196 100.414 80.8221 101.077 82.7403M101.156 83.1096C101.145 82.9814 101.118 82.8584 101.077 82.7403M101.156 83.1096C101.132 82.9865 101.105 82.8634 101.077 82.7403M79.7659 88.2911C80.3532 85.5449 81.4101 78.9609 80.9389 74.5947C80.8394 73.6729 80.8536 72.7671 80.965 71.895M79.7659 88.2911C79.6486 88.6053 79.5902 88.9898 79.8058 89.1028M79.7659 88.2911L76.992 87.7844M103.813 68.2802C103.744 66.692 101.416 65.844 99.2907 65.4203C97.1651 64.9966 97.2991 60.4543 93.7523 62.4664C93.5485 62.582 93.3613 62.6854 93.1885 62.7778M103.813 68.2802C103.519 67.3648 103.222 66.2842 103.031 65.2393M101.077 82.7403C101.163 83.026 101.179 83.3295 101.146 83.6266M94.1006 81.2788C95.9457 81.1936 99.9379 81.5438 101.146 83.6266M101.146 83.6266C101.006 84.909 99.963 86.0718 99.7546 85.1651C99.6833 84.8545 99.0494 84.5929 98.1567 84.4165M79.8058 89.1028C80.0102 89.2099 80.4609 89.073 81.3412 88.4005C83.6021 86.6733 84.6124 87.2147 85.9391 88.1702C87.2657 89.1258 90.5969 87.2377 91.2826 85.401C91.7775 84.0752 95.8393 83.9586 98.1567 84.4165M79.8058 89.1028C79.6169 89.1262 79.1697 89.1175 78.6441 89.1481M78.6441 89.1481C77.6951 89.2032 76.4905 89.3862 76.088 90.1161C75.4626 91.2502 76.5925 91.5576 77.4528 92.6838C78.1411 93.5847 77.2825 94.2834 76.7671 94.5202C75.8925 94.1563 74.4795 93.7909 75.8251 95.2398C77.1707 96.6887 76.5167 97.0565 76.0215 97.0592C74.8637 97.9437 75.4563 97.491 72.931 96.138C70.9108 95.0557 71.5778 91.3345 72.1638 89.6092M78.6441 89.1481C80.0753 90.2465 83.2638 92.3232 84.568 91.8433C86.1982 91.2433 88.841 89.235 91.3284 88.9761C93.8158 88.7172 99.0832 85.0215 98.1567 84.4165M79.7075 97.1973C81.8001 98.1108 86.298 100.661 87.549 103.552M87.549 103.552C88.0866 102.632 88.6346 101.923 89.1776 101.371M85.8603 97.0284C86.9645 97.4251 89.1738 98.8489 89.1776 101.371M71.6122 97.1455C74.3645 100.097 80.5992 105.864 83.52 105.313M83.52 105.313C83.5649 105.064 83.615 104.848 83.6708 104.672M83.52 105.313C83.4744 105.565 83.4342 105.851 83.3988 106.161M80.2662 103.006C81.0334 103.842 82.7883 105.346 83.6708 104.672M69.0424 100.421C72.222 103.283 79.5346 108.536 83.3486 106.651M83.3486 106.651C83.3641 106.482 83.3808 106.319 83.3988 106.161M83.3486 106.651C83.3209 106.953 83.2968 107.271 83.2762 107.599M83.3988 106.161C78.0982 104.095 66.6647 98.1678 63.3347 90.9967C61.3432 86.708 60.3386 82.1913 59.8803 78.538M59.758 71.0826C60.0925 70.3245 60.6349 70.7544 62.5493 73.5452M59.758 71.0826C60.5451 70.238 55.1665 63.7703 52.3788 60.6419M59.758 71.0826C59.6484 71.331 59.5569 72.144 59.5471 73.3642M59.5483 73.9328C59.418 74.6826 59.4679 75.3294 59.6255 75.8781M59.5483 73.9328C59.5552 74.5132 59.5792 75.166 59.6255 75.8781M59.5483 73.9328C59.546 73.7347 59.5457 73.545 59.5471 73.3642M69.2577 83.5181C70.3872 84.8665 72.4462 88.0046 71.6462 89.7695M71.6462 89.7695C69.9844 90.1947 67.3355 89.9847 66.175 84.5602C64.968 78.9181 62.6311 77.9682 61.6135 78.1985C60.9979 77.9436 60.0029 77.1922 59.6255 75.8781M71.6462 89.7695C71.8323 89.7219 72.006 89.6663 72.1638 89.6092M72.1638 89.6092C72.4291 89.5132 72.6497 89.4128 72.8089 89.3387C73.4739 89.029 73.1749 86.4589 72.3144 84.1369M72.3144 84.1369C71.751 82.6168 70.947 81.2031 70.0152 80.5995C68.1312 79.3792 65.7042 77.5616 64.7263 76.8053C63.8498 75.475 63.1352 74.3995 62.5493 73.5452M72.3144 84.1369C72.9068 85.3891 74.6717 87.8715 76.992 87.7844M76.992 87.7844C79.3123 87.6973 75.3695 80.9738 73.1081 77.6229M76.992 87.7844L73.7137 83.068C73.7513 81.617 73.5793 78.9039 72.5913 79.6587C71.3562 80.6022 70.4109 78.3705 69.9359 77.7487C69.5559 77.2513 70.0701 76.8804 70.3747 76.7571L68.7914 74.6845L68.0359 75.2616L65.5027 71.9455C65.4685 71.7435 65.458 71.5215 65.4844 71.303M80.965 71.895C81.1949 71.8326 80.9295 71.6797 78.0288 71.5664C74.403 71.4247 76.4455 69.4938 73.393 70.1846C70.951 70.7373 69.9837 70.9292 69.8053 70.9561C69.0144 70.5521 68.3594 70.3044 67.8193 70.1757M80.965 71.895C81.0296 71.3895 81.1268 70.8954 81.2533 70.4158M65.4844 71.303C64.8238 71.8076 63.4204 71.6982 63.0916 67.2232C63.0405 66.5277 62.9996 65.9057 62.9694 65.3472M65.4844 71.303C65.5123 71.0717 65.5817 70.8442 65.7084 70.6487M103.817 45.9587C102.541 48.9029 102.826 50.9824 104.029 51.7043C105.232 52.4262 105.495 52.8423 107.376 53.7423C108.693 54.3723 109.742 56.4575 110.245 57.7868M103.817 45.9587C104.453 44.4911 104.805 42.6967 104.984 41.2371M103.817 45.9587C103.993 43.3729 103.516 40.8014 102.334 39.7021M110.427 58.3043C110.285 57.1917 110.214 55.8472 110.301 54.4469M110.427 58.3043C110.378 58.1516 110.317 57.9769 110.245 57.7868M107.683 43.9898C107.955 47.08 108.86 53.4978 110.301 54.4469M113.81 32.4816C115.718 34.4916 119.091 39.6786 117.316 44.3461M116.236 32.5331C118.243 34.6395 121.742 39.6633 119.685 42.9065M103.571 37.6133C103.134 37.4009 103.001 39.0328 102.715 38.2671C102.444 37.5444 101.695 37.8779 100.79 38.4815M103.571 37.6133C104.093 37.8675 104.735 38.5679 105.143 39.1023C105.137 39.5938 105.092 40.3542 104.984 41.2371M103.571 37.6133C102.081 33.3905 99.5402 24.3474 101.294 21.9571M101.294 21.9571C99.7872 23.1085 103.115 30.8499 104.968 34.5767M101.294 21.9571C101.332 23.5035 104.888 24.6817 106.662 25.0774M101.294 21.9571C101.604 21.5346 101.939 21.2954 102.287 21.199M106.662 25.0774C105.451 24.4527 107.935 17.7704 109.328 14.5074M106.662 25.0774C105.936 23.6811 104.507 21.6083 103.114 21.2144M106.662 25.0774C107.044 25.271 107.488 25.4991 107.973 25.7527M86.5118 50.6449C84.3506 48.4668 81.1618 44.0321 85.6963 43.719C91.3644 43.3275 89.1256 42.7402 91.1158 44.1738C93.2945 45.4635 94.5552 45.9422 95.1574 46.7305C95.7596 47.5188 96.7919 45.7456 96.7697 48.06C96.7598 49.1034 96.5567 49.894 96.5045 50.5601M102.041 58.4748C102.643 58.0142 101.442 55.8686 100.766 54.8534C100.324 54.5348 99.0728 53.6525 97.6073 52.6715C96.6013 51.9981 96.441 51.3715 96.5045 50.5601M102.041 58.4748C102.218 58.5236 102.428 58.5874 102.652 58.6636M102.041 58.4748C101.724 58.0603 101.03 57.9336 100.118 58.3011C99.205 58.6686 99.0377 58.059 97.8116 56.4539C96.5855 54.8489 95.9877 57.1909 92.6106 55.504C91.283 54.8409 91.0814 55.8645 91.376 57.4317M104.951 60.1901C104.956 59.5933 103.658 59.0048 102.652 58.6636M102.652 58.6636C105.039 57.4972 109.898 55.689 110.245 57.7868M93.1885 62.7778C92.518 61.2586 91.6811 59.0539 91.376 57.4317M93.1885 62.7778C90.663 64.1284 91.2351 63.1254 88.7573 63.3707M94.1115 60.5933C93.9841 59.9248 93.2586 58.3567 91.376 57.4317M100.33 63.7205C100.912 64.4608 102.267 65.801 103.031 65.2393M83.2892 66.3448C84.4957 64.8524 86.0485 63.8246 87.6978 63.5237C88.1043 63.4495 88.4537 63.4007 88.7573 63.3707M83.2892 66.3448C82.3764 67.4738 81.6618 68.8686 81.2533 70.4158M83.2892 66.3448C83.0275 65.8615 82.8573 65.0621 83.0145 64.0324M96.5045 50.5601C96.3191 52.0146 93.3686 53.065 91.9166 53.4084C91.3068 53.3883 90.4155 53.4394 89.7074 53.6564M96.5045 50.5601C96.0823 49.9994 95.6364 49.6606 95.1813 49.4958M89.7074 53.6564C88.9805 53.8791 88.4465 54.2766 88.608 54.9512C88.9269 56.283 88.515 56.7727 88.2693 56.8511C86.657 58.0828 85.5002 59.267 84.6864 60.3629M89.7074 53.6564C90.7541 51.7211 93.0661 48.7294 95.1813 49.4958M84.6864 60.3629C87.6172 59.3973 92.5346 58.6472 88.7573 63.3707M84.6864 60.3629C83.6509 61.7574 83.1709 63.0087 83.0145 64.0324M67.8193 70.1757C67.9304 69.8841 68.1316 69.5106 68.4244 69.1484M67.8193 70.1757C66.6428 69.8956 66.0116 70.1808 65.7084 70.6487M81.2533 70.4158C81.2054 70.2237 81.1511 70.0465 81.0914 69.8831M80.8987 61.8251C81.4387 64.1477 82.2331 69.011 81.0914 69.8831M81.0914 69.8831C80.4657 68.1707 79.2512 67.9782 78.6763 68.1178C78.2367 68.4536 76.9971 68.8098 75.5557 67.5479C75.279 67.3056 75.0605 67.1581 74.879 67.0802M77.3178 59.3093C76.0592 61.5836 73.8095 66.3218 74.879 67.0802M74.879 67.0802C74.2216 66.7979 74.0483 67.4283 73.3399 67.7717M73.3399 67.7717C72.9706 67.9507 72.4558 68.0517 71.6513 67.9047C70.1313 67.627 69.0611 68.3609 68.4244 69.1484M73.3399 67.7717C73.1213 67.2761 73.0793 65.7298 74.2056 63.0465M69.6954 55.286C71.6159 56.9674 75.3318 60.6018 74.8313 61.6884M74.8313 61.6884C74.9596 61.4313 75.0974 61.166 75.2453 60.8925C77.0744 57.5087 77.5333 53.9502 77.5419 51.9318M74.8313 61.6884C74.5909 62.1697 74.3836 62.6223 74.2056 63.0465M71.7098 58.9984C73.0313 60.0773 75.3806 62.3975 74.2056 63.0465M72.1912 53.3795C73.3395 54.362 75.8865 55.8734 76.8871 54.0588C77.8877 52.2441 77.7406 51.8847 77.5419 51.9318M77.5419 51.9318C77.5436 51.5491 77.529 51.2217 77.5045 50.9614C77.7002 51.4779 78.2588 52.1832 78.9284 50.8726C79.598 49.562 81.1482 53.6481 81.8396 55.855C81.7919 56.2909 81.7626 57.0043 81.8181 57.795M83.0145 64.0324C83.1235 63.65 83.2062 62.7687 82.917 61.7146M84.938 58.7394C84.2031 59.3797 82.77 60.8713 82.917 61.7146M82.917 61.7146C82.8202 61.3618 82.6817 60.9897 82.4887 60.6105C82.0703 59.7882 81.8841 58.7368 81.8181 57.795M81.8181 57.795C82.4751 56.3011 83.8109 53.8286 85.528 51.7005M95.1813 49.4958C94.9678 48.3813 93.6133 46.5327 89.9031 48.0542C88.3142 48.7058 86.8142 50.1066 85.528 51.7005M85.528 51.7005C82.1574 51.2202 75.646 49.6899 76.566 47.4117C77.4859 45.1336 78.0325 44.9786 78.1909 45.1858C77.8359 44.4723 77.5421 43.1213 79.2065 43.4253C80.4099 43.6451 79.8158 42.7915 78.9805 41.9569M78.0022 41.0677C77.6137 40.8751 77.268 40.687 76.9899 40.5237C74.5532 37.8711 72.6408 39.0217 71.702 40.2966M78.0022 41.0677C79.6502 41.8847 82.0689 42.783 83.3668 42.2164C84.9707 41.5163 85.0698 39.3838 84.9189 38.4051C84.9563 37.2825 85.657 35.5438 88.1598 37.5704C91.2884 40.1035 90.1534 40.6424 92.3887 39.5911C94.177 38.7502 96.37 39.8318 97.243 40.4778C97.9749 40.4635 98.9355 39.7975 99.8531 39.1404M78.0022 41.0677C78.3054 41.3204 78.6606 41.6373 78.9805 41.9569M68.4244 69.1484C66.6259 69.3978 63.3545 69.3855 64.6565 67.3406C66.2841 64.7844 67.5949 61.8136 66.2903 58.5435C64.9857 55.2735 65.9283 54.8816 63.1692 54.0355M63.1692 54.0355C65.2045 55.2882 65.1654 58.4424 64.0896 59.5684C63.8466 59.8228 63.6435 60.0611 63.4781 60.3301M63.1692 54.0355C63.0088 53.9368 62.8355 53.8498 62.6488 53.7767C62.0031 53.5235 61.5303 53.0968 61.1889 52.5944M64.392 64.2604C63.5708 66.4256 62.6843 70.7345 65.7084 70.6487M62.5493 73.5452C62.2181 72.4998 61.8408 71.2566 61.4589 69.9266M63.4781 60.3301C62.9431 59.109 61.4132 56.6897 59.5741 56.7818C58.0814 56.8566 59.8134 64.1968 61.4589 69.9266M63.4781 60.3301C62.9521 61.1861 62.8074 62.3542 62.9694 65.3472M60.4117 61.3933C60.929 62.6391 62.1649 65.174 62.9694 65.3472M152.865 105.255C160.037 104.694 174.534 101.895 175.139 95.1886M152.865 105.255C153.308 104.06 154.79 101.215 157.17 99.397C160.145 97.1243 160.678 95.0053 162.634 95.2231C164.591 95.4409 168.408 97.7043 169.252 96.0751C169.927 94.7717 173.458 94.941 175.139 95.1886M175.139 95.1886C175.244 94.0182 174.783 93.1489 173.9 92.5241M148.64 94.0891C149.147 93.7795 149.699 93.4632 150.303 93.1416C154.885 90.7031 158.864 89.8977 160.281 89.7998C161.049 89.5875 162.273 89.1473 163.474 88.512M148.64 94.0891C156.14 92.0849 169.727 89.5687 173.9 92.5241M171.678 88.3146L163.474 88.512M163.474 88.512C164.322 88.0638 165.158 87.5185 165.814 86.8876M179.538 84.935C177.046 85.968 170.811 87.8047 165.814 86.8876M165.814 86.8876C166.118 86.5951 166.384 86.2842 166.594 85.956C168.227 83.4065 168.549 85.7815 169.303 85.2058C170.056 84.6301 172.632 83.3146 172.219 81.9932C172.155 81.7867 172.187 81.5541 172.295 81.3115M172.295 81.3115C172.879 80.002 175.675 78.4001 177.404 79.0169C178.942 79.5651 182.431 76.8342 184.284 75.1339M172.295 81.3115C175.607 80.8491 182.974 79.0944 185.945 75.7745C186.183 75.5088 186.409 75.2763 186.625 75.0742M173.9 92.5241C172.664 90.5144 183.3 88.2972 185.75 86.4262C186.823 85.6061 187.889 83.3467 188.753 80.9846M184.284 75.1339L186.625 75.0742M186.625 75.0742C189.104 72.7508 190.15 74.4347 190.368 75.6776C190.323 75.8611 190.274 76.0575 190.22 76.2647M190.22 76.2647C192.475 76.3531 196.988 76.9226 196.994 78.493C197.002 80.4561 189.119 77.558 188.753 80.9846M190.22 76.2647C189.881 77.5683 189.368 79.3025 188.753 80.9846M120.891 35.869C120.637 35.4069 120.351 34.9645 120.048 34.5442M120.891 35.869C121.065 35.719 121.427 35.5039 121.959 35.3382M132.042 30.9614C132.371 30.7094 132.731 30.5252 133.105 30.4001M132.042 30.9614C130.427 32.1944 129.978 31.7299 129.241 31.2416M132.042 30.9614C132.747 30.9475 131.003 28.6911 130.043 27.5647M134.044 42.1025C133.546 41.447 134.123 39.7451 134.965 37.937M131.304 35.4635C131.717 33.6163 133.06 29.9867 135.127 30.2459M135.127 30.2459C136.838 30.5166 138.195 31.7386 137.518 33.0532C136.971 34.1163 135.828 36.0825 134.965 37.937M135.127 30.2459C134.473 30.1425 133.768 30.178 133.105 30.4001M119.072 33.3204C119.405 33.7031 119.736 34.112 120.048 34.5442M119.072 33.3204C119.075 31.3989 119.364 28.4946 120.223 26.036M119.072 33.3204C118.774 32.9785 118.474 32.6573 118.182 32.3589M124.759 21.4276C125.6 21.8785 127.537 23.112 128.55 24.4385C129.817 26.0966 129.432 24.4213 130.382 25.6649C131.332 26.9084 134.168 29.8389 133.105 30.4001M124.759 21.4276C125.218 20.8576 126.845 20.0964 129.673 21.6118C130.274 22.1376 131.776 22.9589 132.982 22.0378C134.188 21.1167 136.059 22.9407 136.843 23.9679C138.277 23.762 141.287 24.1609 141.855 27.4035C142.002 28.2475 142.304 29.0167 142.669 29.7203M124.759 21.4276C122.497 21.5838 121.078 23.5892 120.223 26.036M120.883 28.3266C120.167 30.0558 118.998 33.7201 120.048 34.5442M121.833 29.5702C121.448 31.57 120.935 35.5234 121.959 35.3382M121.959 35.3382C122.518 35.1638 123.265 35.0441 124.174 35.1125C126.389 35.2792 125.499 30.5984 127.662 30.6965C128.4 30.73 128.859 30.989 129.241 31.2416M128.967 33.9666C129.474 33.2293 130.239 31.6521 129.241 31.2416M134.965 37.937C136.232 36.3642 138.535 34.2179 140.779 33.727M139.357 27.2585C141.033 29.4239 144.023 33.7519 142.581 33.7408M142.581 33.7408C142 33.5824 141.391 33.5929 140.779 33.727M140.384 30.8641C141.051 31.7116 142.063 33.4706 140.779 33.727M139.804 26.6725C140.558 27.842 142.187 30.0889 142.669 29.7203M102.287 21.199C102.557 21.124 102.835 21.1354 103.114 21.2144M102.287 21.199C102.32 20.7619 102.36 20.2906 102.407 19.7941M120.223 26.036C119.056 24.5075 123.581 16.7617 124.093 12.7457C124.606 8.72971 117.482 5.65291 115.341 5.97523C113.2 6.29755 114.544 3.30218 112.944 5.18073C112.601 5.58306 112.267 5.91868 111.922 6.18637M120.325 15.6242C119.914 17.6891 118.922 22.1448 118.247 23.4482C117.403 25.0775 116.579 30.5268 118.182 32.3589M118.182 32.3589C117.778 31.9456 117.391 31.576 117.05 31.2549C116.844 31.0616 116.576 30.8448 116.259 30.6106M116.92 22.4925C116.308 24.8626 115.32 29.8043 116.259 30.6106M116.259 30.6106C114.324 29.182 110.56 27.105 107.973 25.7527M105.921 13.1716C106.094 15.2212 105.775 19.6992 103.114 21.2144M107.428 12.0202C108.178 10.4231 109.383 7.13876 108.197 6.77855M108.197 6.77855C107.748 6.67297 107.258 6.52306 106.716 6.32827C104.355 5.47964 102.937 14.2226 102.407 19.7941M108.197 6.77855C108.689 6.89409 109.13 6.95658 109.535 6.96679M109.003 12.1297C109.801 10.5173 111.024 7.2275 109.535 6.96679M109.535 6.96679C110.483 6.99073 111.225 6.7272 111.922 6.18637M110.357 11.0953C110.538 9.79418 111.105 6.99088 111.922 6.18637M108.965 20.036C108.245 21.7355 107.038 25.2582 107.973 25.7527M76.3566 39.6947C76.3583 38.6764 76.4161 37.5731 76.5415 36.4218M102.407 19.7941C100.658 19.1508 99.0181 18.687 97.4826 18.3829M79.5215 35.6359C78.7845 33.2391 78.236 27.3136 81.9379 22.7861M81.9379 22.7861C82.6733 21.9587 83.4949 21.2068 84.4106 20.5551M81.9379 22.7861C81.1135 23.7137 80.3975 24.7362 79.7793 25.8188M97.4082 26.2432C96.068 23.9681 91.5923 19.6455 84.4106 20.5551M84.4106 20.5551C84.9865 20.1452 85.5996 19.7748 86.2518 19.4503M94.993 21.5194C92.9442 20.2696 88.3276 18.106 86.2518 19.4503M86.2518 19.4503C87.7596 18.6999 89.4764 18.1942 91.4256 18.0087M97.5405 20.5581C96.2124 19.5923 93.1301 17.7304 91.4256 18.0087M91.4256 18.0087C93.2374 17.8364 95.2501 17.9408 97.4826 18.3829M71.9672 27.2938C73.3801 27.7874 76.9207 28.1833 79.7793 25.8188M79.7793 25.8188C78.1914 28.5994 77.2479 31.7769 76.7657 34.7624M72.5884 33.9809L76.7657 34.7624M76.7657 34.7624C76.6751 35.3236 76.6008 35.878 76.5415 36.4218M70.721 35.4075L76.5415 36.4218M91.7885 15.7623C93.6371 16.262 97.3641 17.4856 97.4826 18.3829M97.4826 18.3829C97.7777 17.7146 95.3621 16.0465 94.1175 15.296M97.4826 18.3829C97.6694 17.5444 97.6657 16.3311 97.1148 15.2448M72.6374 23.4998C73.429 24.5361 75.5783 23.2224 77.9888 22.6938C79.9172 22.271 77.7368 21.1359 76.4055 20.6213C75.8236 20.3918 75.0573 20.0447 74.5075 19.6989M72.6374 23.4998C71.8457 22.4635 76.3111 22.8411 74.5075 19.6989M72.6374 23.4998C72.2988 23.7166 71.8693 23.8981 71.4611 23.9129M74.5075 19.6989C73.8079 19.2588 73.4591 18.8208 74.2871 18.6293C75.352 18.3831 76.1796 17.6713 76.6813 17.0766M80.0277 18.5107C78.6785 17.9871 76.303 16.5033 77.594 14.7564M77.594 14.7564C79.106 11.2877 82.6182 14.4235 84.3186 14.5763C86.2407 14.749 86.76 10.742 88.0266 12.4001C89.0399 13.7266 91.0116 13.1831 91.8708 12.7456C92.7974 12.7463 93.583 12.8538 94.2468 13.0411M77.594 14.7564C77.397 15.2085 77.2339 15.7727 77.1132 16.4704C77.022 16.6319 76.8763 16.8454 76.6813 17.0766M77.8146 18.5602C77.2928 18.2678 76.3357 17.5616 76.6813 17.0766M97.1148 15.2448C96.7758 14.5762 96.2295 13.9557 95.3927 13.5002M97.1148 15.2448C95.0274 11.572 96.5241 14.3086 97.8001 11.5243M94.8695 6.51634C95.4681 8.68394 96.4109 13.1154 95.3927 13.5002M95.3927 13.5002C95.0588 13.3184 94.6786 13.1628 94.2468 13.0411M94.5687 10.0282C94.9786 11.3409 95.4881 13.7812 94.2468 13.0411M84.5894 11.4156C83.6909 10.1582 82.3153 7.2281 84.0001 5.567M84.0001 5.567C82.3348 6.91929 81.0711 7.07503 80.571 6.93652C80.0968 6.68412 79.6518 6.49303 79.2341 6.35816M84.0001 5.567C84.2832 5.33712 84.5779 5.07265 84.8825 4.76918M84.7595 9.28254C84.3174 8.10585 83.7231 5.55583 84.8825 4.76918M84.8825 4.76918C85.0454 4.60684 85.2111 4.43333 85.3794 4.24797C88.2957 1.03548 87.3616 3.71833 90.0373 3.31534C90.5349 3.2404 91.1856 2.96905 91.9089 2.64086M82.064 10.0627C81.5826 8.91166 80.3425 6.55931 79.2341 6.35816M79.2341 6.35816C77.15 5.68531 75.7419 6.41134 74.7453 7.90282M74.9647 14.8296C75.1984 13.3129 75.4818 9.80428 74.7453 7.90282M74.7453 7.90282C73.6117 9.5993 73.0105 12.2861 72.5526 15.0311C71.6115 20.6732 71.0604 15.1865 70.2461 20.3696C70.0573 21.5715 70.0891 22.3972 70.2555 22.947M91.9089 2.64086C94.6666 2.60558 99.7057 4.33287 97.8001 11.5243M91.9089 2.64086C92.263 2.48022 92.6344 2.30595 93.0138 2.13444M97.8001 11.5243C98.208 10.6342 98.5933 9.17987 98.8318 6.77151C98.8895 6.18892 98.9194 5.66134 98.9241 5.18444M93.0138 2.13444C95.7833 0.882559 98.977 -0.222726 98.9241 5.18444M93.0138 2.13444C95.1814 1.57238 99.3981 1.39548 98.9241 5.18444M99.8531 39.1404C100.175 38.9102 100.491 38.6811 100.79 38.4815M99.8531 39.1404C100.038 39.1166 100.237 39.1028 100.443 39.1019M104.984 41.2371C103.767 43.3713 103.585 36.6724 100.79 38.4815M101.684 43.1665C102.151 42.1514 102.557 39.9172 100.443 39.1019M100.443 39.1019C100.726 39.1007 101.023 39.1237 101.322 39.178C101.703 39.2472 102.04 39.4293 102.334 39.7021M101.078 47.8411C102.337 45.9615 104.351 41.7023 102.334 39.7021M74.9776 41.4046C76.0368 41.2518 78.3203 41.1484 78.9805 41.9569M61.1889 52.5944C60.4493 51.5064 60.3256 50.0639 60.3942 49.263C60.8211 48.3899 62.0867 47.1824 63.7333 49.3379C65.3799 51.4934 66.8112 49.7217 67.321 48.5664C66.9716 47.8487 66.8577 46.1634 69.1971 45.164C71.5365 44.1645 71.5884 41.915 71.3218 40.9152C71.4213 40.7164 71.5486 40.5048 71.702 40.2966M61.1889 52.5944C59.9482 51.7688 57.9572 49.5098 59.9188 47.0785C62.3709 44.0394 62.9636 45.9873 64.471 44.8357C65.3034 44.1999 66.1353 42.7639 67.4235 41.6706M71.702 40.2966C69.8132 40.1227 68.4683 40.7839 67.4235 41.6706M61.4589 69.9266C58.6896 66.6335 53.5876 59.4514 55.3335 57.0675C57.5158 54.0875 58.8522 48.0256 57.5158 45.4951M57.5158 45.4951C56.6292 43.8163 57.0969 42.8365 57.8865 42.5431M57.5158 45.4951C56.7999 47.3078 54.5977 42.8209 53.5861 40.3509M59.2019 42.625C60.4839 43.2277 61.8588 43.7596 62.226 41.8969C62.5932 40.0343 62.8914 41.2059 64.3348 42.3141C65.4896 43.2006 66.8751 42.2545 67.4235 41.6706M59.2019 42.625C59.0871 41.9491 59.1873 40.8115 59.8655 39.6073M59.2019 42.625C58.7704 42.4221 58.287 42.3943 57.8865 42.5431M65.6442 31.1395C65.4779 28.9691 69.8418 24.0081 71.4611 23.9129M65.6442 31.1395C65.7092 31.988 65.4421 32.9924 65.0767 33.9118M65.6442 31.1395C64.6917 32.3923 62.5196 28.9089 61.5526 27.0107M71.4611 23.9129C70.9547 23.9313 70.4812 23.6929 70.2555 22.947M58.7236 25.5953C61.0293 27.9575 65.5278 32.9278 65.0767 33.9118M65.0767 33.9118C64.6943 34.874 64.2042 35.7432 63.8742 36.2432C62.8728 36.6854 62.0719 37.1964 61.4353 37.7371M54.6167 30.3738C56.7667 33.1457 60.8266 38.8731 59.8655 39.6073M59.8655 39.6073C60.2168 38.9834 60.7233 38.3417 61.4353 37.7371M57.5509 32.6523C58.5275 34.5816 60.6716 38.2996 61.4353 37.7371M57.8865 42.5431C58.5019 41.1224 59.2099 37.8271 57.1185 36.0113C55.6874 34.7688 53.8854 32.3573 52.5121 30.3404M57.8865 42.5431C58.4711 40.871 51.6944 35.453 48.233 32.953M70.2555 22.947C70.1274 25.7688 67.6039 22.6567 66.3581 20.7479C66.0027 19.5015 64.5449 17.2026 61.5568 17.9778C57.8216 18.9467 58.9092 17.9048 56.2949 16.9481C53.6805 15.9914 52.0137 17.5929 50.1977 20.293C49.8261 20.8455 49.6384 21.5086 49.5792 22.217M41.8083 56.5688C43.6982 59.1729 48.1157 64.7474 50.6667 66.212C53.8554 68.0428 59.5355 74.7336 59.6255 75.8781M59.6255 75.8781C59.6786 76.6933 59.7609 77.5864 59.8803 78.538M52.1361 66.0741C53.7002 67.1288 57.3721 70.0633 59.5471 73.3642M49.5792 22.217C46.0649 16.8353 45.3133 19.7575 45.1629 21.5135C45.0125 23.2694 43.5274 22.1064 42.1484 23.8163C41.9339 24.0823 41.8333 24.3292 41.8185 24.5561M49.5792 22.217C49.4724 23.4968 49.7851 24.9249 50.1909 26.1184M52.5121 30.3404C51.8786 29.4099 51.3363 28.5634 50.9637 27.9544C50.7209 27.4879 50.4386 26.8469 50.1909 26.1184M52.5121 30.3404L51.5585 29.8856M41.8185 24.5561C41.7573 25.496 43.168 26.0947 44.0484 26.3034L49.5653 28.9349M41.8185 24.5561C41.6163 24.8459 41.3575 25.186 41.0678 25.5262M50.5213 92.5798C50.041 90.6493 49.3836 86.9506 50.5957 87.5999C51.8078 88.2493 52.5236 91.8161 52.73 93.5183C53.7921 95.9501 56.3342 100.736 58.0059 100.425C60.0955 100.036 60.7509 98.5502 61.9194 99.2987C63.0879 100.047 63.4346 100.11 64.4527 102.615C64.6006 102.979 64.7528 103.299 64.9012 103.585M50.5213 92.5798C50.3825 92.5126 50.2022 92.4283 49.9875 92.3312M50.5213 92.5798C50.5859 92.4438 50.8369 92.7976 51.3674 94.845M71.472 118.052C67.8676 115.678 70.4707 118.694 67.3722 115.81C64.7951 113.411 64.3485 110.018 64.9722 108.064M71.472 118.052C74.3149 119.926 76.3319 121.69 76.0847 122.611M71.472 118.052C69.832 115.895 67.7978 111.967 72.7807 113.517C73.2325 113.717 74.5607 113.972 76.2599 113.384C78.3839 112.65 80.2758 113.83 80.7548 115.105C81.2337 116.38 84.4724 119.242 84.0772 117.368M86.4314 122.403C86.1131 121.934 85.8269 121.542 85.5689 121.274C84.9991 120.681 84.4877 119.11 84.0772 117.368M86.4314 122.403C86.6368 122.706 86.8555 123.041 87.0886 123.396M86.4314 122.403C86.6163 121.994 86.9439 121.668 86.776 123.635M86.4314 122.403C86.0865 121.882 84.5212 122.029 82.3847 122.534M72.765 133.024C77.4735 131.726 86.9303 127.982 87.0886 123.396M87.0886 123.396C84.6425 123.405 78.7706 124.17 74.8517 127.163C70.9328 130.157 63.5514 131.638 60.3506 132.005M87.0886 123.396C88.3782 125.363 90.108 127.951 92.4534 129.114M77.7538 128.228C80.6913 127.517 86.6081 125.603 86.776 123.635M86.776 123.635C87.1275 124.382 87.1577 125.123 86.9475 125.845M76.986 133.082C79.1066 132.324 82.2035 130.893 84.4068 129.118M84.478 131.953C85.4732 131.065 87.3604 128.599 86.9475 125.845M86.9475 125.845C88.9967 126.679 88.1246 129.198 87.4323 130.353M86.9475 125.845C86.6097 127.006 85.6507 128.117 84.4068 129.118M76.742 119.483C77.8481 120.373 80.5251 122.229 82.3847 122.534M82.3847 122.534C78.3868 123.48 72.3889 125.684 68.6454 127.126M67.6446 120.853C68.4422 121.229 70.42 122.212 71.9506 123.144M71.9506 123.144C73.3266 123.374 74.5402 123.378 75.371 123.156C75.7898 123.044 76.0185 122.858 76.0847 122.611M71.9506 123.144C70.0437 122.824 67.825 122.072 65.8808 120.888C64.4996 120.047 64.9154 119.839 64.3685 119.943M60.1979 111.105C63.0611 115.039 70.247 122.847 76.0847 122.611M57.5788 121.979C59.0029 122.19 60.4933 122.182 61.5997 121.533C62.369 121.081 62.9779 120.212 62.9779 120.212M57.5788 121.979C56.6165 121.836 55.6844 121.594 54.9215 121.383C53.0295 120.859 54.0475 123.363 56.7011 125.275C59.3547 127.186 62.86 129.432 65.5959 128.326C66.1368 128.108 67.2299 127.671 68.6454 127.126M57.5788 121.979C55.7432 120.146 52.3385 115.658 53.4046 112.367C53.5481 111.924 53.6816 111.584 53.8055 111.33M55.1083 113.035C55.9986 115.718 58.819 120.91 62.9779 120.212M55.1083 113.035C57.0813 115.227 61.3166 119.6 62.4736 119.552M55.1083 113.035C55.0012 111.656 54.602 109.699 53.8055 111.33M62.9779 120.212C63.7435 120.084 64.14 119.986 64.3685 119.943M62.4736 119.552C63.6306 119.505 64.219 119.793 64.3685 119.943M62.4736 119.552C60.0191 114.777 54.7999 104.898 53.5591 103.587C52.0081 101.947 51.9943 99.3317 50.2966 99.3158C48.5989 99.2998 51.1051 95.6593 51.3674 94.845M53.8055 111.33C51.8754 111.407 48.0164 110.313 48.0215 105.32C48.0228 103.946 47.959 102.526 47.8939 101.151M49.9875 92.3312C47.8777 92.0532 47.6653 94.8929 47.7844 98.6091M49.9875 92.3312C49.5561 92.1362 48.9855 91.8896 48.3316 91.627M64.9722 108.064C65.0984 107.669 65.2684 107.333 65.4734 107.075C66.5147 105.768 65.7741 105.266 64.9012 103.585M64.9722 108.064C65.6513 104.349 52.9201 101.578 51.8428 96.8217C51.6641 96.0324 51.5062 95.3807 51.3674 94.845M84.0772 117.368C83.7391 115.934 83.4694 114.383 83.2919 113.167M69.6468 109.414C69.3657 110.088 71.4884 111.747 82.2281 112.995L83.2919 113.167M69.6468 109.414C70.4927 110.05 72.7067 111.19 75.1012 110.951M69.6468 109.414C70.1132 109.443 70.8411 109.529 71.6506 109.694M75.1012 110.951C74.1345 110.327 72.8089 109.93 71.6506 109.694M75.8506 109.333C77.9963 109.799 82.4684 110.498 83.1915 109.569M83.1915 109.569C83.2089 108.908 83.2362 108.235 83.2762 107.599M75.3676 106.748C77.7098 107.705 82.5705 109.214 83.2762 107.599M64.9012 103.585C64.8189 101.679 64.9603 98.0261 66.1849 98.6658C67.7157 99.4655 69.2523 101.246 69.3722 103.452C69.4922 105.657 68.6091 106.924 71.6506 109.694M42.2994 100.173C44.1408 99.9703 47.8375 99.8815 47.8939 101.151M47.8939 101.151C47.8736 100.723 47.8532 100.3 47.8346 99.8837M44.6585 99.356C45.6974 99.1093 47.7871 98.8696 47.8346 99.8837M47.8346 99.8837C47.8152 99.4499 47.7977 99.024 47.7844 98.6091M47.7844 98.6091C46.3963 96.9728 42.8491 94.3316 39.7662 96.8573C36.6832 99.3831 32.5128 101.813 30.8129 102.712C30.5152 103.144 30.1356 103.915 29.8414 104.956M35.8934 129.672C37.2967 127.994 35.1291 126.328 34.4959 125.499C34.0359 124.897 34.4072 124.352 35.3564 124.282M35.8934 129.672C35.5662 130.063 35.3366 130.582 35.209 131.19M35.8934 129.672C35.4978 132.591 39.5953 135.95 41.6936 137.265M56.8866 147.779C57.997 147.15 60.6323 145.575 62.2902 144.308M56.8866 147.779C55.2115 146.843 53.8584 146.489 52.675 146.402M56.8866 147.779C52.8461 151.468 55.3793 148.931 44.6845 152.506C42.2499 153.32 41.1429 154.069 40.9201 154.74M62.2902 144.308C64.3627 142.725 64.7174 144.751 67.2348 144.141C69.7522 143.531 69.4898 141.762 73.9272 140.013C75.1057 139.549 76.2211 138.994 77.2799 138.429M62.2902 144.308C62.1229 144.218 61.9142 144.158 61.6718 144.124M92.4534 129.114C93.6183 129.837 87.8932 135.252 84.9008 135.241C82.7031 135.232 80.208 136.867 77.2799 138.429M50.3128 142.299C46.6243 141.944 38.4395 139.226 35.209 131.19M35.209 131.19C34.9348 132.497 35.1317 134.214 35.843 135.957M31.0407 117.308C31.1916 117.463 31.3833 117.633 31.63 117.842C33.3245 119.279 38.5162 124.904 36.6604 124.427C36.1529 124.297 35.7137 124.256 35.3564 124.282M31.0407 117.308C31.6485 118.987 33.3625 122.732 35.3564 124.282M31.0407 117.308C30.4517 116.703 30.4829 116.333 30.2823 114.795M33.4364 104.975C31.8468 105.095 28.8268 106.264 29.4635 109.979M29.4635 109.979C29.5149 110.439 29.5903 110.914 29.6937 111.402C30.0213 112.949 30.1812 114.02 30.2823 114.795M29.4635 109.979C29.2397 107.974 29.4741 106.254 29.8414 104.956M37.3929 101.952C35.657 101.763 31.7164 102.098 29.8414 104.956M52.675 146.402C50.1784 146.219 48.4367 147.222 46.0188 146.442C42.4547 145.291 39.9488 142.011 37.4155 138.695C36.7423 137.813 36.2203 136.882 35.843 135.957M52.675 146.402C54.9445 145.453 59.5732 143.827 61.6718 144.124M61.6718 144.124C63.5108 142.938 67.7677 140.386 70.0831 139.668C72.9773 138.77 73.791 137.492 72.5243 135.834C71.511 134.507 73.9894 134.525 75.3553 134.701C77.1395 134.26 80.0537 133.286 82.0946 131.958M84.4068 129.118C84.2911 130.173 83.3609 131.134 82.0946 131.958M77.2799 138.429C79.679 136.275 84.0006 131.965 82.0946 131.958M48.9592 158.102C48.8263 158.969 47.2126 160.815 41.8219 161.257C40.666 161.827 37.9396 163.283 36.2816 164.55M48.9592 158.102C45.3893 157.62 40.36 156.427 40.9201 154.74M36.2816 164.55C38.5425 162.822 37.9817 157.532 37.4188 155.103M36.2816 164.55C35.8091 164.911 35.1288 164.797 34.3642 164.383M35.843 135.957C36.1386 137.482 35.8497 140.941 32.3285 142.581C27.927 144.63 34.3399 142.089 30.384 146.284C26.4281 150.479 28.8185 154.78 28.4797 156.68C28.2181 158.147 31.7751 162.982 34.3642 164.383M31.9232 151.424C30.9212 153.757 30.0065 159.616 34.3642 164.383M34.3642 164.383C33.4451 164.079 33.2543 160.18 33.2738 158.269M60.7453 126.124C62.6303 126.742 66.8493 127.807 68.6454 127.126M51.6968 152.774C48.2616 152.767 41.2969 153.152 40.9201 154.74M40.9201 154.74C41.1462 153.267 46.0919 154.176 48.5365 154.815M80.2064 142.765C86.0811 140.301 97.3145 134.306 95.2502 130.042M30.2823 114.795C28.2478 114.58 23.205 112.816 18.9619 107.499M23.7307 80.553C28.9593 83.648 35.492 84.3684 38.1047 84.3417M23.7307 80.553C19.8617 78.2627 15.1343 76.6281 11.1107 75.7496M23.7307 80.553C23.2268 79.7931 22.6245 78.915 21.9534 77.9723M38.1047 84.3417C37.582 83.7189 37.0334 83.0456 36.4556 82.3194M38.1047 84.3417C38.7403 85.0988 39.3377 85.7812 39.9034 86.3932M14.0397 90.9101C10.9384 90.3654 4.60047 89.9581 4.05926 92.6866M4.05926 92.6866C3.81977 94.2172 3.8573 95.4406 4.65225 95.1274C6.42678 94.4281 7.73203 96.7132 12.0929 100.931C16.4538 105.148 13.2576 100.041 18.6408 107.088C18.7473 107.227 18.8543 107.364 18.9619 107.499M4.05926 92.6866C4.24744 91.4838 4.60668 90.0912 4.90386 89.1054C3.80974 88.2342 2.02937 86.6259 1.39926 85.4688M15.547 89.7587C11.9749 89.7524 4.14439 88.8857 1.39926 85.4688M1.39926 85.4688C1.15211 85.0149 1.08192 84.6305 1.29951 84.3871C1.68972 83.9508 1.61777 82.3991 1.6513 80.6813M14.1884 80.9502C9.49823 79.063 0.424527 76.3672 1.6513 80.6813M1.6513 80.6813C1.67242 79.5992 1.7354 78.4512 1.98212 77.4747M9.40104 78.1982C7.20589 76.7602 2.64888 74.6023 1.98212 77.4747M1.98212 77.4747C2.31277 76.1659 2.97344 75.1651 4.30566 75.0433C5.89868 74.8977 8.3375 75.144 11.1107 75.7496M11.1107 75.7496C9.58859 75.7099 6.93771 74.7393 8.51079 71.1745C10.0839 67.6097 9.15566 67.0716 8.49492 67.2481C7.37922 66.5688 6.02368 65.2631 9.52717 65.4749M9.52717 65.4749C11.8846 65.6175 16.0178 70.1595 19.4673 74.6201M9.52717 65.4749C7.5143 63.6211 4.39895 59.1524 8.04043 56.108C11.6819 53.0637 13.6679 53.4502 14.2057 54.024C14.4588 54.1099 14.827 54.1536 15.2168 54.0625M11.6393 73.7077C14.6793 74.5581 20.998 76.6016 21.9534 77.9723M21.9534 77.9723C21.198 76.9113 20.3553 75.7684 19.4673 74.6201M12.385 71.1688C14.1255 71.39 17.9786 72.3899 19.4673 74.6201M15.2935 65.9931C18.1006 69.5375 24.3843 77.0341 27.0619 78.6646C30.409 80.7028 34.4154 81.2525 35.0088 80.471M35.0088 80.471C34.8006 80.2012 34.5888 79.9253 34.3734 79.6433C34.1164 79.3069 33.8668 78.9632 33.6246 78.6135M35.0088 80.471C35.511 81.1219 35.9927 81.7376 36.4556 82.3194M23.1497 77.0584C26.0298 79.3436 32.7232 83.5951 36.4556 82.3194M29.3931 78.2011C30.4637 79.0488 32.8089 80.318 33.6246 78.6135M33.6246 78.6135C28.9422 71.8533 26.9796 62.8191 26.2289 59.6084C26.0246 58.7342 25.8921 57.3108 25.8101 55.6618M22.5181 84.4333C24.7066 85.6059 29.7954 87.867 32.6415 87.5308C36.1991 87.1105 39.4571 86.1375 41.0015 87.5315M41.0015 87.5315C40.6485 87.1829 40.2831 86.8039 39.9034 86.3932M41.0015 87.5315C41.1122 87.6407 41.2216 87.747 41.3299 87.8502M31.3419 90.1645C33.0433 89.9588 37.2671 89.7079 40.5514 90.3497C44.6569 91.152 45.0356 91.8474 46.3118 90.8725M46.3118 90.8725C46.0149 90.7704 45.7133 90.671 45.4105 90.5763C45.1317 90.4891 44.8495 90.3774 44.5621 90.2399M46.3118 90.8725C47.0276 91.1185 47.7164 91.3798 48.3316 91.627M42.5596 91.7696C44.1987 92.3774 47.6477 93.1998 48.3316 91.627M27.0242 110.53C25.0324 110.41 20.6315 109.637 18.9619 107.499M30.5989 68.414C32.8414 73.2258 37.2663 82.421 39.2081 85.4682M39.9034 86.3932C39.7395 86.2504 39.5023 85.9298 39.2081 85.4682M41.3299 87.8502C39.6692 84.2837 37.3275 76.4021 41.2464 73.4084C41.5038 73.2117 41.7678 73.0365 42.037 72.8811M41.3299 87.8502C42.5219 88.9876 43.5732 89.7666 44.5621 90.2399M59.8803 78.538C59.6749 77.1196 55.1006 74.75 52.8391 73.7425C51.626 73.0037 49.4637 72.0846 47.1131 71.8807M37.0191 79.5917C37.9354 81.6267 39.6559 85.6512 39.2081 85.4682M42.2883 81.8024C42.463 84.4041 43.1623 89.7338 44.5621 90.2399M54.6346 81.5607C52.7547 78.8395 48.4839 73.1968 46.4395 72.3953C44.3951 71.5937 42.6527 72.3852 42.037 72.8811M42.037 72.8811C43.6381 71.9569 45.4242 71.7342 47.1131 71.8807M54.9588 78.8605C53.2609 76.4896 49.3148 71.7743 47.1131 71.8807M19.5089 51.9833C18.8689 51.1455 17.4521 49.9938 16.9042 52.0886C16.563 53.3934 15.8604 53.9119 15.2168 54.0625M19.5089 51.9833C20.2184 52.5215 21.8893 53.537 22.8962 53.2929C24.1549 52.9877 25.7092 54.0843 25.8101 55.6618M19.5089 51.9833C19.8912 49.4894 20.4839 44.0422 19.7961 42.2046C19.1083 40.3669 20.6241 36.6489 21.468 35.0196C21.6621 34.3708 22.1638 33.4778 23.0514 32.7963M25.8101 55.6618C25.6386 52.2151 25.6872 47.7833 25.7593 45.324C25.9509 45.1777 26.1754 44.9961 26.4166 44.7881M32.9174 30.0888C32.8595 29.552 32.7915 28.9888 32.7104 28.4005C32.0552 23.6497 36.8952 25.5319 38.0035 26.9827C38.3209 27.3983 38.7846 27.3709 39.2903 27.105M32.9174 30.0888C33.3273 33.887 33.2373 36.3658 33.7922 37.0922C34.4255 37.9212 35.5235 39.7494 34.2047 40.7569C33.1496 41.5629 34.7271 43.3935 35.6477 44.2081C36.905 45.2031 38.5025 46.8516 34.8339 45.4862C34.3313 45.6093 33.2476 45.2843 32.934 42.9991C32.542 40.1426 29.3298 39.0622 29.2402 40.8978C29.2118 41.4797 28.8368 42.1599 28.324 42.8228M32.9174 30.0888C32.9587 30.5684 32.8066 31.2129 32.2451 31.6845M33.2348 39.4873C32.5555 37.2542 31.4065 32.5674 32.2451 31.6845M32.2451 31.6845C31.5598 32.26 30.2646 32.578 27.9668 32.0242C27.7908 31.9818 27.6187 31.9457 27.4507 31.9157M28.9758 37.8176C29.2183 36.3125 29.2529 33.025 27.4507 31.9157M27.4507 31.9157C25.4545 31.5587 24.0222 32.051 23.0514 32.7963M21.3793 44.2771C21.3341 40.5726 21.6051 33.0902 23.0514 32.7963M19.2912 59.0007C18.4382 57.197 16.4291 53.6841 15.2168 54.0625M26.9589 53.1432C26.5641 50.5524 25.903 45.2542 26.4166 44.7881M26.4166 44.7881C27.0347 44.2551 27.7621 43.5493 28.324 42.8228M28.1636 47.2996C27.8314 45.6931 27.3984 42.5485 28.324 42.8228M42.6473 30.3277C41.0353 29.6671 38.1073 28.0977 39.2903 27.105M39.2903 27.105C39.8804 26.7949 40.5279 26.1603 41.0678 25.5262M48.5417 31.4042C45.8155 30.1789 40.504 27.2878 41.0678 25.5262M47.3795 24.4151C48.4239 25.7822 50.7219 28.7903 51.5585 29.8856M51.5585 29.8856L49.5653 28.9349M47.3716 22.4519C48.0538 23.062 49.5726 24.6496 50.1909 26.1184M47.5259 25.9444C47.6677 26.7898 48.2741 28.5713 49.5653 28.9349" stroke="#1A1A19" stroke-width="0.7"/>
</svg>
