<svg width="82" height="90" viewBox="0 0 82 90" fill="none" xmlns="http://www.w3.org/2000/svg">
<path d="M1.22828 59.17C1.35211 58.6736 2.4827 57.6649 6.01442 57.6018C9.54613 57.5387 13.2696 56.8658 14.6898 56.5372C16.296 56.1933 19.9952 55.5921 21.9423 55.9388C23.4253 56.2028 26.8896 56.8331 29.7469 57.3475M1.22828 59.17C1.13408 59.6111 1.6556 60.5616 4.4953 60.8347C6.32586 61.0107 8.25543 61.3725 10.2663 62.2259M1.22828 59.17C3.30087 59.0835 8.37912 58.9604 12.1114 59.1598C15.8437 59.3592 19.5368 59.9634 20.9168 60.2406C22.8302 60.3802 26.0816 60.7095 28.8277 61.2043M16.132 66.1845C20.2971 70.1533 23.1668 67.9823 23.4256 67.8975C23.6843 67.8127 29.7235 65.6972 34.1547 66.9805M16.132 66.1845C14.8615 64.974 13.6138 64.036 12.3923 63.3072M16.132 66.1845C17.2128 66.423 20.0471 66.6796 22.7377 65.798M34.1547 66.9805C38.5859 68.2637 40.0897 68.0445 45.8868 67.3759C48.664 67.0556 50.6971 67.0732 52.1721 67.3228M34.1547 66.9805C41.2055 67.5148 45.4545 65.9109 46.6977 65.0421M60.1927 76.5009C59.5214 75.7636 58.0121 74.0426 57.3456 73.0576C56.5124 71.8263 56.2451 70.136 55.2421 68.8236C54.7196 68.1399 53.7759 67.5942 52.1721 67.3228M60.1927 76.5009C61.3628 78.0321 63.9829 81.2489 65.1021 81.8669C66.5011 82.6393 72.1463 87.6274 72.931 89.1481C73.5588 90.3647 73.3 88.5258 73.0922 87.4543M60.1927 76.5009C59.0886 75.1122 57.985 71.7541 57.5712 70.2486C56.7044 66.0197 58.4668 63.8012 60.0914 61.7646C61.7159 59.728 60.2685 59.2449 59.3226 59.4181C58.3766 59.5913 57.6894 59.6797 56.3792 58.7414C55.3311 57.9908 52.6594 56.8604 51.4545 56.3891C50.813 56.3257 49.6853 56.1482 50.3061 55.9448C50.9073 55.7479 53.993 56.7029 55.6024 57.2521M73.0922 87.4543C73.0162 86.9487 72.8865 86.2384 72.7166 85.526M73.0922 87.4543C72.5748 87.6238 68.4985 83.4892 66.525 81.4007M64.788 58.1744C63.1322 58.7169 65.1501 61.6114 66.366 62.9908C68.1272 64.4083 68.7227 66.1386 68.7924 68.0763M64.788 58.1744C64.5882 58.1713 64.3941 58.1619 64.2058 58.1465M64.788 58.1744C64.89 58.141 64.9905 58.1064 65.0896 58.0707M71.6836 53.8638C72.0912 54.0584 73.7506 53.3233 74.5294 52.9313C74.349 53.4007 73.731 54.3417 72.7025 54.3504C71.4169 54.3614 69.8242 54.7465 69.0806 55.5372C68.5161 56.1373 67.5277 56.9552 66.179 57.611M71.6836 53.8638C71.4453 53.7499 70.7574 53.6037 70.0249 53.5867M71.6836 53.8638C71.6266 52.3781 75.1921 51.8937 77.7713 51.4589C79.8346 51.1111 80.8563 48.4879 81.1093 47.2198C80.7323 48.2551 79.2484 50.1091 76.3291 49.2433C73.4098 48.3775 71.922 49.9279 71.543 50.8114M62.8543 54.0215C61.5926 52.7939 60.9857 50.9414 59.6039 53.719C59.5312 53.9006 59.4891 54.0987 59.4778 54.3073M62.8543 54.0215C62.2646 53.6207 61.8263 51.4669 61.6809 50.4401M62.8543 54.0215C63.146 54.3053 63.5396 54.5265 63.9807 54.686M68.7732 69.3134C68.6783 70.8888 68.3445 72.5771 68.0754 74.3285C67.3894 78.7926 70.7055 82.3558 71.5951 82.8849C72.0396 83.1492 72.4339 84.3406 72.7166 85.526M68.7732 69.3134C71.1764 70.5773 76.4732 75.2146 78.4356 83.6522C78.9152 83.2215 80.0539 82.3835 80.7719 82.4764C81.1189 82.5213 80.7949 81.172 80.0582 79.2914M68.7732 69.3134C68.7986 68.8926 68.8069 68.48 68.7924 68.0763M66.179 57.611C66.512 60.8132 66.5186 59.5219 67.7889 62.5246C69.0592 65.5273 70.8463 66.1725 74.4616 69.7744C76.6794 71.9841 78.8888 76.3068 80.0582 79.2914M66.179 57.611C65.8385 57.7766 65.4751 57.9319 65.0896 58.0707M70.0249 53.5867C70.529 52.9114 71.0928 51.9487 71.543 50.8114M70.0249 53.5867C69.494 53.5743 68.9397 53.6298 68.5161 53.8145M70.0249 53.5867C71.7979 51.1459 75.242 50.515 76.7424 50.5047M48.969 45.3057C47.4629 48.7531 48.6394 52.0236 49.4159 53.2279C49.9078 53.82 50.9303 54.7792 52.3705 55.6872M48.969 45.3057C49.8878 44.3209 52.0002 42.316 53.0998 42.1745C54.4743 41.9977 54.3204 41.0908 54.516 46.4969C54.4042 46.9707 54.4693 47.9103 55.3516 48.548M48.969 45.3057C49.0775 45.0575 49.1988 44.8152 49.3314 44.5788M62.521 57.8133C62.5019 58.0238 62.0861 58.2808 60.8219 58.2431M62.521 57.8133C63.724 61.9221 64.1836 59.3129 61.9686 66.6197C60.1966 72.4651 62.8233 77.0122 64.3581 78.555M62.521 57.8133C62.4111 57.7768 62.3042 57.7379 62.2003 57.6969M62.521 57.8133C63.0201 57.9788 63.5814 58.0953 64.2058 58.1465M59.4778 54.3073L59.104 53.3357M59.4778 54.3073C59.4153 55.4669 60.3069 56.9485 62.2003 57.6969M59.104 53.3357L58.7303 52.3642C58.6408 51.8368 58.3581 50.9564 57.809 50.2044M59.104 53.3357C59.5696 52.7729 60.3794 51.2768 59.8938 49.7948C59.4082 48.3129 59.152 47.5307 59.0845 47.3249C59.3623 47.7353 60.0455 48.5964 60.5565 48.7572C61.1953 48.9581 62.0119 48.8273 62.262 46.9676C62.3048 46.6493 62.3901 46.3994 62.5029 46.2049M64.1294 45.672C64.5473 46.2188 65.4412 46.9653 65.6737 45.5762C65.9061 44.1872 66.5133 43.7513 66.7878 43.7069M64.1294 45.672C64.5884 44.9745 63.4526 44.4806 62.8272 44.3208M64.1294 45.672C63.7056 45.5241 62.9178 45.49 62.5029 46.2049M66.7878 43.7069C67.1188 42.9603 67.3312 41.1493 65.5335 39.8785C63.7358 38.6076 64.1704 38.3649 64.6124 38.4024C65.3914 38.7398 67.0384 39.6863 67.3945 40.773C67.8396 42.1315 69.8975 45.6966 71.8318 43.5586M66.7878 43.7069C66.7478 42.5166 65.6017 41.406 65.0336 40.9995M71.8318 43.5586C72.6446 45.683 72.4686 47.8786 71.9112 49.7493M71.8318 43.5586C71.7399 43.3183 71.6353 43.079 71.5172 42.8411M71.543 50.8114C69.6086 51.9024 71.3666 48.0872 70.0319 46.1996C68.9642 44.6896 68.2878 44.8109 68.083 45.0604C69.5365 46.8558 69.6563 49.1732 69.3414 51.0755M71.543 50.8114C71.6774 50.4719 71.8016 50.1169 71.9112 49.7493M55.7556 57.3047C56.2616 57.4753 56.7907 57.6237 57.3411 57.7425C58.9074 58.0805 60.0308 58.2195 60.8219 58.2431M55.7556 57.3047C55.7062 57.2876 55.6551 57.2701 55.6024 57.2521M55.7556 57.3047C55.7043 57.2874 55.6532 57.2698 55.6024 57.2521M57.5148 70.9508L51.6913 62.3579C51.489 62.0876 51.2334 61.7541 50.9429 61.3853M51.8961 17.953C54.698 21.9581 53.7768 25.5876 52.966 26.9018C52.2913 28.2292 51.0843 30.5432 49.6944 33.0925M51.8961 17.953C48.3936 12.9466 46.6788 10.7733 46.3147 9.66182M51.8961 17.953C52.9319 21.1145 49.3868 25.3394 47.4848 27.0566M46.3147 9.66182C46.0233 8.77264 45.908 10.7523 45.8868 11.8533C45.847 13.9177 45.5427 18.585 44.6442 20.7393C44.3679 21.4018 44.0716 22.1619 43.7813 22.9561M46.3147 9.66182C48.3812 13.5812 48.3353 20.3539 47.4848 27.0566M50.9429 61.3853C50.3643 60.0566 48.9304 57.0793 47.824 55.8008C46.4409 54.2026 43.2462 51.01 44.1749 47.2868C44.9179 44.3082 45.9656 41.8225 46.3966 40.9519C47.6122 38.5415 49.9736 33.5951 49.6944 33.0925M50.9429 61.3853C50.287 60.5528 49.4536 59.541 48.6567 58.6733M49.6944 33.0925C48.3928 35.4798 46.931 38.0736 45.5959 40.257C45.0102 41.2148 44.5433 42.0943 44.1715 42.9046M18.76 23.2078C19.0696 23.3626 19.4092 24.3188 19.7422 25.6162C20.1961 27.3844 21.5063 29.0819 22.8574 31.1597M18.76 23.2078C18.588 23.1218 18.4253 23.2832 18.2782 23.771C17.8662 25.1368 18.0306 34.3823 18.7264 36.0689C18.9834 36.6918 19.4436 37.9942 20.0541 39.463M18.76 23.2078C19.0605 25.3414 20.2415 30.6493 22.5622 34.8121C23.1443 35.8563 23.895 36.9111 24.728 37.9316M42.8428 51.5524C42.7962 51.3249 42.7731 51.1032 42.7772 50.8901C42.7913 50.1602 42.7164 49.3226 42.7662 48.2954M42.8428 51.5524C41.601 49.8806 38.5779 48.4368 37.2216 47.9239L36.8678 47.719M42.8428 51.5524C42.8847 51.7566 42.9455 51.9655 43.0225 52.1773M20.0541 39.463C21.0968 41.9713 22.5781 44.9649 24.2356 45.888C26.8638 47.3517 27.7454 48.2937 31.8695 49.951C35.1688 51.2769 41.2177 54.7288 43.8298 56.2889C45.0912 56.7873 48.2807 58.7692 50.9469 62.7094C53.613 66.6496 54.0584 67.2513 53.9478 67.0596C52.9263 66.7105 49.9952 65.4007 46.4433 62.9542C42.0035 59.8959 35.4781 58.3416 33.8124 58.0668C33.1616 57.9594 31.5791 57.6773 29.7469 57.3475M20.0541 39.463C20.879 40.7426 23.5346 43.574 27.5584 44.6626C30.7681 45.5309 33.8731 46.5991 35.7222 47.2827M36.8678 47.719L32.8485 45.3909M36.8678 47.719C36.5792 47.6047 36.1911 47.456 35.7222 47.2827M32.8485 45.3909L32.0946 44.9541C31.8078 44.7406 31.4741 44.4819 31.1054 44.1842M32.8485 45.3909C31.0743 44.9693 27.0858 43.8328 25.3262 42.6588M32.8485 45.3909C31.9407 44.3754 30.7653 41.0071 30.2911 39.4499M24.728 37.9316C23.9566 36.0875 22.5024 32.1513 22.8574 31.1597M24.728 37.9316C26.7854 40.4519 29.3447 42.7624 31.1054 44.1842M22.8574 31.1597C23.0486 31.4537 23.2406 31.7553 23.4311 32.0658C24.3068 33.493 26.4471 33.5293 28.9436 34.9002M31.1054 44.1842C30.0635 42.2402 28.1725 37.6618 28.9436 34.9002M28.9436 34.9002C30.829 35.9354 32.9176 37.7319 34.8182 41.4634C38.3519 48.4015 39.4345 48.7032 39.534 47.9868C38.5629 45.0229 33.4666 36.7551 31.0398 32.9917C30.0234 31.6381 27.5585 28.2246 25.8307 25.3992C23.7335 21.9699 24.5939 18.0874 27.9752 14.0198M43.0225 52.1773C40.9812 51.1595 36.643 49.0435 35.6209 48.7219M43.0225 52.1773C43.4097 53.2416 44.2076 54.3763 45.0746 55.3341M45.0746 55.3341C45.7045 56.03 46.371 56.6325 46.943 57.0467C47.4212 57.393 48.0276 57.9883 48.6567 58.6733M45.0746 55.3341L39.8186 53.227M48.6567 58.6733C47.8113 57.7651 46.0551 55.6419 45.7941 54.4145C45.5331 53.1872 43.6667 49.8237 42.7662 48.2954M42.7662 48.2954C42.2742 47.1973 41.6796 45.8425 41.0398 44.3481M42.7662 48.2954C42.8334 46.9104 43.1272 45.1805 44.1715 42.9046M32.8912 10.3676C32.9885 11.3368 33.2654 12.0939 33.4919 12.4956C34.1095 13.7975 35.4757 16.7141 36 17.9645C36.6554 19.5276 38.0471 22.9008 39.3419 26.8527C40.6368 30.8046 40.1126 35.7628 40.6552 38.7304C41.1978 41.698 41.7312 40.7027 42.305 39.8309C42.8788 38.9591 42.0695 36.4892 41.8911 34.6331C41.7568 33.2359 41.8882 31.9067 41.975 30.6305M32.8912 10.3676C32.7928 9.38729 32.8782 8.18994 33.3852 6.92359C34.6456 3.77552 33.8934 2.79119 33.6506 2.05021C33.4078 1.30922 33.634 0.688105 32.5992 1.02716C32.3872 3.66706 31.3334 9.52993 28.7921 13.0155M32.8912 10.3676C31.507 11.0946 34.3498 22.6079 34.8715 27.2234C34.9048 27.5181 34.9675 27.8652 35.0558 28.257M35.0558 28.257C32.9519 26.6253 28.7538 21.2925 28.7921 13.0155M35.0558 28.257C35.3051 29.3628 35.7589 30.8256 36.3352 32.4783M28.7921 13.0155C28.6293 13.2387 28.4604 13.4522 28.2852 13.6545C28.1796 13.7764 28.0763 13.8982 27.9752 14.0198M37.6417 36.0253C34.3185 34.6005 27.7327 28.2046 27.9752 14.0198M37.6417 36.0253C38.4079 38.0189 39.2538 40.1041 40.0742 42.0661M37.6417 36.0253C37.3214 35.1919 37.0151 34.3745 36.7304 33.5888M40.0742 42.0661C38.6696 40.8853 35.592 38.2286 34.5179 37.0489M40.0742 42.0661C40.4024 42.8511 40.7265 43.6163 41.0398 44.3481M41.0398 44.3481L38.1092 41.8894M44.1715 42.9046C44.5731 41.5447 45.0146 39.8985 45.4511 38.0662M47.4848 27.0566C47.2753 28.7078 47.017 30.3548 46.7293 31.9538M46.7293 31.9538C45.6834 32.1271 43.6295 30.5703 43.7813 22.9561M46.7293 31.9538C46.4073 33.7444 46.0485 35.4749 45.6804 37.0839M43.7813 22.9561C43.507 23.7065 43.2382 24.4873 42.9968 25.245M45.4511 38.0662C44.7338 37.9927 43.0344 36.4026 41.975 30.6305M45.4511 38.0662C45.5278 37.7443 45.6043 37.4167 45.6804 37.0839M41.975 30.6305C42.0036 30.2112 42.0273 29.7976 42.0351 29.3892C42.0517 28.5279 42.4552 26.9447 42.9968 25.245M45.6804 37.0839C45.0347 36.8396 43.7091 35.8973 43.5727 34.0821M42.9968 25.245C42.9889 26.7063 43.2416 29.9238 44.3157 31.1035M52.1721 67.3228C51.2898 66.5941 50.0165 66.0191 48.5366 65.5504M35.2447 63.0677C34.2971 62.8719 33.549 62.659 33.0947 62.4046C32.5058 62.0749 31.5379 61.778 30.3798 61.5163M35.2447 63.0677C34.6418 61.6698 32.6982 58.5686 29.7469 57.3475M35.2447 63.0677C35.5526 63.1313 35.8814 63.1931 36.2281 63.2539M30.3798 61.5163C28.3531 63.2288 21.9183 65.9844 12.3923 63.3072M30.3798 61.5163C29.8915 61.406 29.3694 61.3019 28.8277 61.2043M12.3923 63.3072C11.6743 62.8788 10.9654 62.5226 10.2663 62.2259M28.8277 61.2043C28.4254 62.0199 26.2621 63.0022 22.8744 63.1549M46.6977 65.0421C47.3353 65.1969 47.9521 65.3654 48.5366 65.5504M46.6977 65.0421C43.214 64.1963 39.1069 63.7589 36.2281 63.2539M44.31 66.9352C45.6749 66.8583 48.4311 66.4737 48.5366 65.5504M60.7878 65.639C61.8287 64.4154 63.2411 61.6154 61.6489 59.2029M60.8219 58.2431C58.1148 58.3204 55.5992 55.1496 54.6798 53.5545M60.8219 58.2431C58.9585 58.4474 57.3363 55.9338 56.7581 54.6514M60.8219 58.2431C61.1591 58.5525 61.4319 58.8741 61.6489 59.2029M66.2083 48.9567C66.6759 49.6112 67.3172 50.8264 67.526 52.1276M67.1253 54.8158C67.4995 54.6937 67.7928 54.5105 67.9482 54.2671C68.0762 54.0668 68.275 53.9197 68.5161 53.8145M67.1253 54.8158C66.2727 55.0939 65 55.0547 63.9807 54.686M67.1253 54.8158C67.6068 53.9854 67.6717 53.0355 67.526 52.1276M56.3668 43.8392C56.2286 42.1317 56.3028 38.6348 57.7053 38.3064M57.7053 38.3064C57.1707 38.4631 56.6939 38.6341 56.2926 38.8036C54.6095 39.4819 51.0403 41.532 49.3314 44.5788M57.7053 38.3064C57.2848 38.4219 57.3166 40.9089 57.3851 42.138M57.7053 38.3064C57.902 38.2487 58.1065 38.193 58.3179 38.14M59.3413 40.6765C59.2044 39.7755 58.808 38.0068 58.3179 38.14M58.3179 38.14C61.6772 37.2976 66.7903 37.141 70.1355 40.8322C70.7228 41.4803 71.1763 42.1545 71.5172 42.8411M58.3179 38.14C59.5038 37.3138 61.4455 39.0298 62.2681 39.9911M52.3538 49.1199C52.7166 51.4397 53.8743 56.3138 55.6024 57.2521M55.6024 57.2521C54.375 56.8234 53.288 56.2657 52.3705 55.6872M61.3239 54.1596C61.1463 55.2126 61.073 57.3942 62.2003 57.6969M68.5161 53.8145C68.8195 53.1734 69.1559 52.1965 69.3414 51.0755M62.983 51.7913C63.0204 52.6796 63.2722 54.5021 63.9807 54.686M55.2921 46.2426C55.035 46.8739 54.687 48.2187 55.3516 48.548M55.3516 48.548C55.5734 48.7083 55.847 48.8496 56.1823 48.9596C56.8807 49.1885 57.4139 49.6633 57.809 50.2044M57.1522 47.5478L57.809 50.2044M68.5278 49.0173C68.4193 49.2694 68.4303 50.034 69.3414 51.0755M70.962 46.8522C71.4011 47.4638 72.2057 48.8996 71.9112 49.7493M51.0185 45.0445C50.3529 46.0375 49.1328 48.288 49.5766 49.3461M62.1241 45.235L62.5029 46.2049M54.6933 40.6951C53.2456 40.9578 50.1464 42.1024 49.3314 44.5788M68.2515 40.7657C68.9111 41.5981 70.4876 43.1784 71.5172 42.8411M66.8551 48.7448C67.4286 49.6366 68.3658 51.5618 67.526 52.1276M62.8954 56.3329C63.1382 56.9281 63.7401 58.1241 64.2058 58.1465M66.305 61.78C65.7769 60.9925 64.7944 59.1481 65.0896 58.0707M61.7339 62.1837C62.1869 61.5224 62.8041 60.0004 61.6489 59.2029M49.82 52.2749C50.3217 53.2103 51.5341 55.2022 52.3705 55.6872M32.1607 43.2914C32.848 44.4081 34.5226 46.7697 35.7222 47.2827M32.7044 28.8907C33.5036 30.2213 35.3488 32.8015 36.3352 32.4783M36.3352 32.4783C36.4614 32.84 36.5934 33.2107 36.7304 33.5888M34.2738 31.9321C34.7262 32.6044 35.851 33.877 36.7304 33.5888M34.0713 59.4863C35.2304 60.4826 37.2845 62.631 36.2281 63.2539M16.8344 63.0825C15.0405 63.26 11.2155 63.3372 10.2663 62.2259M66.3705 78.3059C66.5582 78.8826 67.2965 80.3547 68.7486 81.6294C70.5638 83.2227 71.6942 83.8096 72.7166 85.526M73.0552 71.6028C72.1165 70.5428 69.9497 68.3535 68.7924 68.0763M76.4991 73.3463C77.5072 75.6143 79.6304 79.9786 80.0582 79.2914" stroke="#1A1A19" stroke-width="0.5"/>
</svg>
