<svg width="127" height="103" viewBox="0 0 127 103" fill="none" xmlns="http://www.w3.org/2000/svg">
<path d="M49.1009 87.6274C48.5715 93.3955 43.4744 99.3067 40.992 101.541L42.2184 101.878M49.1009 87.6274C50.8268 87.1461 54.6786 85.3279 56.2783 81.9055C57.8779 78.483 58.585 77.3095 58.7386 77.1506M49.1009 87.6274C48.8448 87.9593 47.3665 88.6595 43.5017 88.8046C38.6707 88.986 39.5888 90.4451 37.059 90.0518C34.5291 89.6585 25.064 86.3041 26.6012 83.7092C27.8309 81.6334 28.0127 79.5713 27.9498 78.7998C27.9635 78.1499 29.0262 76.6818 33.1678 76.0093C33.6746 75.8885 33.9633 75.551 31.7766 75.0717M58.7386 77.1506L60.3771 78.3878M58.7386 77.1506C54.323 76.4203 54.4811 73.6438 55.1121 72.3469M58.7386 77.1506C58.4031 76.8972 58.0665 76.5376 57.743 76.1228M61.8791 79.5219C60.8811 80.354 58.4315 82.9496 56.6167 86.675C54.3482 91.3317 50.5443 97.3769 48.8555 98.7232C47.5044 99.8003 45.7074 101.781 44.9778 102.636L42.2184 101.878M61.8791 79.5219L61.1964 79.0064M61.8791 79.5219C65.0126 82.6454 75.7111 85.5846 78.1262 85.7954C79.4332 85.9095 80.7412 85.317 81.6725 84.6314M49.5105 96.3387C47.8083 98.1339 43.9668 101.755 42.2184 101.878M55.9281 85.5807C57.2522 83.1612 60.1597 78.4592 61.1964 79.0064M61.1964 79.0064L60.3771 78.3878M58.081 81.3447C58.5241 80.3318 59.6038 78.3222 60.3771 78.3878M22.1847 61.3762C15.133 59.439 16.1642 62.2869 16.8879 65.6536C17.1306 66.7824 18.0155 67.7994 19.1931 68.6653M22.1847 61.3762C29.2364 63.3134 27.5108 63.5937 29.8865 64.548C32.2622 65.5024 33.0295 65.1097 37.3588 67.355C40.8221 69.1512 44.6289 68.4974 46.0993 67.9459M22.1847 61.3762C20.8061 60.193 17.3363 57.5401 14.4854 56.395C11.6346 55.2498 10.7448 53.6074 10.6563 52.9293M46.0993 67.9459C41.7091 70.9638 38.6709 70.3806 37.7005 69.7117M46.0993 67.9459C46.3162 68.077 46.5537 68.2187 46.8076 68.3682M46.0993 67.9459C45.7434 67.4844 45.3063 66.9921 44.5978 65.6097M55.6013 72.3665C55.4724 72.3874 55.3075 72.3795 55.1121 72.3469M55.6013 72.3665L55.1121 72.3469M55.6013 72.3665L56.1395 72.2081M55.6013 72.3665C55.5106 72.6967 56.0788 73.2437 56.8653 73.7668M55.6013 72.3665C55.973 73.2461 56.8027 74.9173 57.743 76.1228M55.1121 72.3469C54.6828 72.275 54.1068 72.0832 53.4453 71.8129M19.1931 68.6653C21.5279 70.3822 25.0133 71.5055 26.9244 71.7296C29.2244 71.9994 30.2825 73.9092 30.524 74.8304C31.0115 74.9143 31.4259 74.9948 31.7766 75.0717M19.1931 68.6653C20.5815 71.0131 25.042 75.5813 31.7766 75.0717M43.3357 70.2038L46.8076 68.3682M46.8076 68.3682C47.0326 68.5006 47.2705 68.6392 47.5183 68.7818M45.6076 69.7358C46.2576 69.5701 47.5498 69.1474 47.5183 68.7818M47.5183 68.7818C47.924 69.0153 48.3565 69.2599 48.8031 69.5069M48.7757 73.2068C49.5145 72.7181 50.9568 71.5088 50.8161 70.5809M50.8161 70.5809C51.0594 70.7054 51.3015 70.8271 51.5405 70.9447M50.8161 70.5809C50.4389 70.3879 50.0587 70.1881 49.6825 69.9862M48.8486 75.9422C50.2255 74.9311 52.9544 72.6393 52.8549 71.5613M52.8549 71.5613C52.7109 71.4976 52.5641 71.4312 52.4149 71.3623M52.8549 71.5613C53.0578 71.651 53.2551 71.7352 53.4453 71.8129M44.5538 76.5726C46.7404 76.2149 51.1989 74.5885 51.5405 70.9447M51.5405 70.9447C51.8379 71.0911 52.1306 71.2311 52.4149 71.3623M47.9916 58.0567C46.5734 58.4717 44.9261 61.4385 49.6825 69.9862M49.6825 69.9862C49.3858 69.827 49.0915 69.6664 48.8031 69.5069M45.3395 62.9098C45.8496 64.5629 47.2565 68.1966 48.8031 69.5069M48.4842 62.2651C48.7717 64.2193 49.9602 68.7747 52.4149 71.3623M52.4149 71.3623C53.2472 71.0052 53.1285 67.4779 52.9651 65.7589M55.5778 61.6493C55.6244 64.8559 55.263 71.3778 53.4453 71.8129M58.0566 71.2307L56.1395 72.2081M56.1395 72.2081C59.9863 72.4165 60.5579 68.8474 60.3629 67.0369M56.1395 72.2081C57.7868 72.813 60.9969 74.2108 60.6585 74.9626M60.6585 74.9626C59.5553 74.1768 60.5613 71.3154 61.2022 69.9829M60.6585 74.9626C60.3869 75.5659 58.2754 74.7048 56.8653 73.7668M60.6585 74.9626C62.2066 75.1881 64.5688 75.5678 66.6448 75.9768M79.4874 71.8381C79.5684 71.5434 79.8232 71.0745 80.5715 70.7783M79.4874 71.8381C79.3187 72.1596 79.003 72.5403 78.5886 72.9489M79.4874 71.8381C80.2759 70.3357 81.2645 68.1046 81.1745 66.1165M80.7247 64.3335C80.3184 63.5497 80.2043 63.1829 80.1435 62.967M80.7247 64.3335C81.1896 65.4267 83.9262 63.8427 85.2363 62.914M80.7247 64.3335C81.0095 64.883 81.146 65.4876 81.1745 66.1165M74.674 59.3525C74.9179 60.385 73.748 63.5232 73.1326 64.9633M74.674 59.3525C74.8112 59.5018 74.9389 59.6353 75.0581 59.7546M74.674 59.3525C74.4921 59.1546 74.3184 58.9881 74.1528 58.8492M62.7167 56.0677C61.4526 55.2679 61.1837 55.6465 60.2639 55.3938C59.5272 55.1915 58.8658 53.9453 56.6419 53.6081M62.7167 56.0677C63.2009 56.3741 63.9977 56.6349 64.8131 56.8389M62.7167 56.0677C64.6214 56.1394 68.6698 55.665 71.034 53.3744M48.5336 54.2834C48.231 53.3847 47.2997 51.3234 45.9961 50.2674C45.9235 50.2087 45.8537 50.1484 45.7867 50.0869M48.5336 54.2834C48.4114 54.3848 48.2757 54.4997 48.1306 54.6252M48.5336 54.2834C48.9238 54.0327 49.4121 53.7297 49.9225 53.4287M44.0721 64.5228C43.9942 64.3534 43.9323 64.1806 43.8844 64.0055M44.0721 64.5228C44.2628 64.9375 44.4373 65.2964 44.5978 65.6097M44.0721 64.5228C43.6714 65.9817 38.9412 64.3953 36.6263 63.4198M74.8993 62.7332C75.0803 61.8744 75.3654 60.0763 75.0581 59.7546M75.0581 59.7546C76.5507 61.2487 76.7103 60.5224 77.5714 60.8083M75.0581 59.7546C75.3654 60.0763 77.6152 58.6485 78.7016 57.8944M77.9226 66.7318L79.2335 61.9597M79.2335 61.9597C79.0839 61.8362 78.9068 61.6896 78.6966 61.5135C78.2021 61.0994 77.85 60.9009 77.5714 60.8083M79.2335 61.9597C80.0868 62.6642 80.0442 62.6148 80.1435 62.967M77.8488 64.5995C78.2328 63.402 78.7148 60.9671 77.5714 60.8083M61.9813 61.1456C62.5386 59.3169 63.8852 55.8955 64.8131 56.8389M64.8131 56.8389C64.9498 56.8731 65.0871 56.9057 65.2236 56.9367M63.678 58.4437C64.0395 57.929 64.7381 57.0871 65.2236 56.9367M65.5886 57.0163C65.8624 57.0735 66.1274 57.1237 66.3717 57.1663M65.5886 57.0163C65.4961 56.9088 65.3695 56.8915 65.2236 56.9367M65.5886 57.0163C65.4683 56.9911 65.3463 56.9646 65.2236 56.9367M52.5572 55.8413C53.1232 54.9814 54.0781 53.1857 53.3701 52.8822M53.3701 52.8822C53.1681 52.6898 53.038 52.4634 53.0605 52.2082C53.0756 52.0369 52.9078 52.0125 52.6229 52.0879M53.3701 52.8822C53.5994 53.1006 53.9213 53.2752 54.2174 53.3983M53.7859 54.969L54.2174 53.3983M54.2174 53.3983C54.3828 53.4671 54.5402 53.5198 54.6689 53.5551C54.7263 53.5508 54.783 53.5469 54.839 53.5435M71.5469 74.9367C70.7565 75.6131 69.0744 76.855 68.6689 76.4109M68.6689 76.4109C69.2587 76.5512 69.7717 76.6898 70.1651 76.8219M68.6689 76.4109C68.0604 76.2662 67.3701 76.1197 66.6448 75.9768M68.6689 76.4109C69.32 76.7609 70.4214 77.3216 71.4379 77.7701M75.9992 71.3324C75.1671 72.8651 72.8354 76.1089 70.1651 76.8219M70.1651 76.8219C70.5436 76.9491 70.8114 77.0702 70.9303 77.181C71.031 77.2747 71.1997 77.3075 71.4217 77.2891M83.0258 63.7588C82.1385 63.8671 80.3199 63.8603 80.1435 62.967M62.5727 76.997C60.7218 76.5369 56.989 75.2468 56.8653 73.7668M71.5016 79.9025C70.6518 78.5951 68.4906 75.9797 66.6448 75.9768M82.999 83.061C83.0305 82.4663 79.6133 82.3823 77.9008 82.4147C76.8165 81.1604 74.3948 78.6132 73.3823 78.458C72.9434 78.3907 72.2155 78.1132 71.4379 77.7701M82.999 83.061C79.5641 83.1616 72.0091 82.8563 69.2684 80.8303C66.5276 78.8043 60.4428 76.8478 57.743 76.1228M82.999 83.061C82.981 83.4021 82.4621 84.0502 81.6725 84.6314M75.2111 80.9216C74.741 80.0874 73.3281 78.2894 71.4379 77.7701M85.224 82.1637C84.1443 80.4924 80.0437 77.1345 72.2788 77.0734M72.2788 77.0734C71.9459 77.1942 71.6545 77.2698 71.4217 77.2891M72.2788 77.0734C72.7736 76.8939 73.3602 76.6144 73.983 76.2714M75.2607 78.2217C74.3684 77.9332 72.3515 77.3428 71.4217 77.2891M83.6575 78.2636C81.6309 76.8387 77.2966 74.1717 76.1724 74.9032M76.1724 74.9032C80.366 73.081 88.8892 77.4235 92.6267 79.8225M76.1724 74.9032C75.972 75.0428 75.7689 75.1802 75.5649 75.3142M76.1724 74.9032C76.5514 74.6391 76.9206 74.367 77.268 74.0947M77.3722 76.537L73.983 76.2714M73.983 76.2714C74.4961 75.9888 75.0338 75.6629 75.5649 75.3142M75.5649 75.3142C76.2751 75.5296 78.0294 76.1851 79.3651 77.0844C80.8586 78.09 82.4122 77.9161 85.5743 79.0879M119.846 80.9641C120.68 82.7516 119.788 84.1065 118.759 84.9193M119.846 80.9641C119.136 79.4421 119.065 79.4646 118.821 79.2944M119.846 80.9641C119.576 80.1473 119.781 78.2592 122.765 77.2402M110.2 70.4666L110.72 69.8582C108.758 69.1685 104.736 67.43 104.339 65.9935M110.2 70.4666C109.319 70.1366 108.148 69.8141 109.613 70.8009M110.2 70.4666L113.433 72.5021M104.339 65.9935C106.36 66.096 110.951 65.2452 113.148 61.0213M104.339 65.9935C103.799 66.0576 103.158 66.1318 102.466 66.2095M94.3699 66.8752C93.876 66.7395 94.0019 67.3378 93.723 67.9043M94.3699 66.8752C94.0527 66.8951 93.769 66.9052 93.5159 66.9068M94.3699 66.8752C94.4929 66.909 94.8439 66.9084 95.3514 66.883M92.7188 68.6845C93.2917 68.52 93.569 68.217 93.723 67.9043M92.7188 68.6845C93.8698 68.0956 95.3626 69.8633 97.6244 70.0321C99.8862 70.2009 101.992 72.1371 105.822 74.9995C108.886 77.2895 110.213 79.0217 110.493 79.6015C110.16 80.214 109.532 81.1781 109.687 80.1344C109.881 78.8298 109.535 79.4891 106.355 77.8613C105.268 77.3047 104.745 77.0795 104.3 76.9377M92.7188 68.6845C92.2568 68.7714 91.3693 68.8806 90.257 68.9133M92.7188 68.6845C91.7004 68.9769 93.7936 68.4963 95.8198 68.1989M109.613 70.8009C109.806 70.9306 110.044 71.083 110.335 71.2609C111.873 72.2032 112.662 72.1724 113.433 72.5021M109.613 70.8009C109.182 71.1719 107.529 71.5462 104.372 70.0755C104 69.9021 103.659 69.7468 103.347 69.6074M106.367 69.4138C105.179 68.3371 102.43 66.2225 100.936 66.3777M100.936 66.3777C98.8424 66.6027 96.6133 66.8197 95.3514 66.883M100.936 66.3777C101.461 66.3213 101.976 66.2645 102.466 66.2095M103.347 69.6074C102.161 68.2375 98.5768 65.9792 93.723 67.9043M103.347 69.6074C101.858 68.944 101.002 68.641 100.364 68.4623M113.224 73.2615C114.092 74.1033 116.042 76.3286 116.897 78.4946C117.906 81.0476 120.555 80.8321 119.469 82.8215M118.759 84.9193L119.229 83.2083C119.324 83.0706 119.403 82.942 119.469 82.8215M118.759 84.9193C118.561 85.0761 118.358 85.2127 118.16 85.3284M117.546 80.9355C118.267 81.4353 119.661 82.5121 119.469 82.8215M114.937 82.0291C116.237 83.6978 118.381 87.1356 116.556 87.5377M116.556 87.5377C116.725 87.5063 116.899 87.4751 117.077 87.4443C117.473 87.2012 118.128 86.4962 117.578 85.6208C117.756 85.5467 117.955 85.4489 118.16 85.3284M116.556 87.5377C115.144 87.8002 114.045 88.0797 113.2 88.3519M117.619 83.671C118.162 84.1131 119.031 85.0635 118.16 85.3284M107.497 83.9075C109.916 85.1831 114.444 87.8578 113.2 88.3519M113.2 88.3519C113.032 88.4061 112.873 88.4601 112.725 88.5136M109.702 86.0838C111.002 86.7745 113.426 88.2275 112.725 88.5136M112.725 88.5136C111.296 89.5762 109.357 87.6906 108.566 86.615M112.725 88.5136C111.955 88.7902 111.442 89.0539 111.12 89.2778M103.876 84.4835C105.482 86.2113 109.179 89.5892 111.12 89.2778M111.12 89.2778C110.838 89.4745 110.703 89.6405 110.671 89.7576C110.572 89.74 110.467 89.7204 110.357 89.6988M77.268 74.0947C77.7645 73.7055 78.2164 73.316 78.5886 72.9489M77.268 74.0947C78.0818 73.7455 79.325 73.3105 80.7879 72.9497M99.1507 75.2788C98.4486 75.0112 97.8593 74.7931 97.355 74.6134M99.1507 75.2788C99.3819 74.4372 99.5757 72.8913 98.5015 73.441C97.4272 73.9907 96.9296 73.3612 96.8152 72.9778C95.8381 69.813 92.0359 68.9495 90.257 68.9133M99.1507 75.2788C100.856 75.9287 101.9 76.2741 102.612 76.4835M80.5715 70.7783C80.8916 70.6515 81.3021 70.5564 81.8279 70.52C83.5827 70.3986 83.7479 68.3321 86.9295 68.7534C88.1218 68.9114 89.2767 68.9421 90.257 68.9133M80.5715 70.7783C82.4865 71.0471 86.7531 71.316 88.4993 70.2407C90.2455 69.1655 92.2929 70.635 93.0983 71.5041C94.0845 72.5152 96.3166 74.5526 97.355 74.6134M97.355 74.6134C93.7864 73.3419 94.4817 73.9962 89.6461 72.6678C86.8025 71.8866 83.4354 72.2967 80.7879 72.9497M100.457 73.5256C100.868 74.4288 101.875 76.2849 102.612 76.4835M102.612 76.4835C103.458 76.7325 103.836 76.7895 104.3 76.9377M102.985 75.1252C103.126 75.6114 103.587 76.6545 104.3 76.9377M101.917 71.2113C100.654 70.0763 97.6675 67.8847 95.8198 68.1989M95.8198 68.1989C96.9987 68.0259 98.1548 67.915 98.6623 68.0544C99.2924 68.2275 99.7148 68.2806 100.364 68.4623M104.829 72.0114C104.125 70.7764 102.245 68.3374 100.364 68.4623M113.433 72.5021C114.227 72.8422 115.002 73.566 116.556 76.1378C116.719 76.4088 116.871 76.6556 117.011 76.8807M120.293 73.937C119.172 74.6141 116.948 76.1506 117.011 76.8807M117.011 76.8807C117.284 77.3188 117.515 77.6742 117.711 77.9638M123.733 70.416C123.255 71.3543 121.848 73.5553 120.041 74.8528C118.234 76.1504 117.734 77.4674 117.711 77.9638M117.711 77.9638C118.377 78.9473 118.644 79.1713 118.821 79.2944M113.148 61.0213C114.48 62.5439 117.644 65.4546 119.638 64.9163C121.633 64.378 121.291 65.7223 120.87 66.4617C120.867 66.8631 121.659 67.6437 124.849 67.5545C128.039 67.4654 125.991 73.3996 124.568 76.3779C124.247 76.5862 123.607 76.9263 122.765 77.2402M113.148 61.0213C114.344 60.4951 116.158 59.2535 113.841 58.4964M118.821 79.2944C118.425 78.9444 118.147 78.1743 120.203 77.894C121.156 77.764 122.036 77.5119 122.765 77.2402M113.841 58.4964C113.271 58.7422 111.863 59.1298 110.79 58.7143C109.449 58.195 106.996 58.1244 106.382 58.5592C105.903 58.8982 104.539 58.4436 103.597 58.6994M113.841 58.4964C114.046 57.907 113.999 57.4015 113.777 56.9701M113.841 58.4964C115.194 58.868 115.09 57.2316 115.865 55.7265M94.1487 60.4786C94.7619 60.647 97.1016 59.9321 97.8698 58.9362C98.638 57.9404 102.162 60.1154 102.93 59.1196C103.099 58.9004 103.332 58.7716 103.597 58.6994M94.1487 60.4786C93.9542 60.4251 93.8521 60.5185 93.7703 60.6763M94.1487 60.4786C95.4434 60.3515 95.7398 57.798 95.7261 56.5371M99.8568 63.7061C98.3683 64.9447 95.0161 67.3189 93.5159 66.9068M93.5159 66.9068C90.9161 66.9223 91.5459 66.0304 92.2639 65.5394C92.8851 65.4784 94.171 65.1986 94.3446 64.5668C94.5182 63.935 94.999 63.7852 95.2177 63.7893C96.011 63.1021 97.1463 61.7848 95.3414 62.013C93.0852 62.2984 91.7697 61.937 92.8051 61.7689C93.512 61.6541 93.5941 61.016 93.7703 60.6763M103.539 62.304C101.739 63.6565 97.7604 66.4161 96.2496 66.6343M96.2496 66.6343C94.7389 66.8525 95.0213 66.891 95.3514 66.883M96.2496 66.6343C96.9682 66.4354 100.461 65.1139 102.118 64.478M109.369 60.8883C107.731 62.6481 104.058 66.176 102.466 66.2095M82.746 71.9791C81.6092 72.0761 79.1861 72.406 78.5886 72.9489M86.0399 74.3925C84.5814 73.8343 81.4893 72.7643 80.7879 72.9497M71.7697 52.5205C73.9209 49.4909 74.0208 51.1275 73.8019 52.3245C73.9098 52.4959 74.1344 52.746 74.4663 52.9596M71.7697 52.5205C72.2671 51.9098 71.5033 51.0896 70.2024 49.2237C69.1617 47.731 70.1569 45.1884 70.7846 44.1037M71.7697 52.5205C71.5928 52.7695 71.3982 53.0021 71.1887 53.2193M75.9858 53.377C76.825 53.3535 77.9897 53.6571 78.9383 54.0322M75.9858 53.377C75.6293 53.387 75.3118 53.3299 75.0355 53.2353M75.9858 53.377C76.4636 52.6246 77.614 51.3358 79.2547 50.5036M87.5921 60.9402C86.9833 61.956 86.9191 62.79 87.9061 62.7981C88.6956 62.8045 89.0204 63.1428 89.084 63.3111C88.9158 63.6102 88.3921 64.1469 87.4726 64.376M87.5921 60.9402C87.9726 60.3052 87.6382 60.1626 87.2689 59.7954M87.5921 60.9402C88.0365 60.6623 88.6911 60.2854 89.3425 59.9698M81.1745 66.1165C81.9954 66.8248 83.26 66.1866 83.7898 65.779C84.1257 65.3566 85.1616 64.5061 86.6186 64.4839C86.9341 64.4791 87.2184 64.4393 87.4726 64.376M77.7441 57.1788C76.7317 57.8634 74.5961 59.156 74.1528 58.8492M74.1528 58.8492C72.1225 57.1469 71.2998 59.5869 71.3006 59.0292C71.3014 58.426 69.4535 63.9526 68.687 63.742C67.9205 63.5314 66.1522 66.9679 66.5802 62.409C66.8748 61.9368 67.7018 60.8465 68.6534 60.2631C69.5157 59.7345 68.3248 58.3364 67.4289 57.5218M70.5382 55.8027C69.3913 56.1787 67.1637 57.0488 67.4289 57.5218M67.4289 57.5218C67.336 57.4374 67.2463 57.3592 67.1624 57.289C66.946 57.2603 66.6748 57.2191 66.3717 57.1663M70.2333 54.5121L66.3717 57.1663M66.8059 56.4131L65.2236 56.9367M87.4726 64.376C87.8904 65.0556 89.0613 65.7945 90.4024 63.3132C90.4891 63.1977 90.9997 63.0594 92.3487 63.43C93.6978 63.8006 92.933 63.1035 92.382 62.7086C91.6287 62.2502 90.3908 60.9548 91.4664 59.44M91.4664 59.44C92.542 57.9252 92.7781 59.046 92.7617 59.7958M91.4664 59.44C91.2362 59.276 90.7079 59.3947 90.0934 59.637M92.7617 59.7958C93.2252 59.8327 94.0759 60.0604 93.7703 60.6763M92.7617 59.7958C93.9276 59.8747 94.6089 58.6941 94.8038 58.094M90.0934 59.637C89.8521 59.7321 89.5975 59.8462 89.3425 59.9698M90.0934 59.637C90.4011 59.0545 91.7231 57.7659 94.642 56.8427M95.7261 56.5371C96.5553 55.8293 96.2388 54.988 96.055 54.3646M95.7261 56.5371C95.3425 56.6329 94.9815 56.7353 94.642 56.8427M88.4088 52.5658C88.1525 53.0988 87.5091 54.4005 86.9864 55.343M88.4088 52.5658C89.6569 52.3632 91.5637 52.4293 92.154 53.5947M88.4088 52.5658C88.6431 52.0899 87.9201 51.1166 87.0984 50.2446M86.9864 55.343C86.4637 56.2856 86.3177 57.3771 86.3101 57.805M86.9864 55.343C87.5815 55.0036 88.7593 54.8344 88.7096 56.8724C88.6599 58.9104 87.7284 59.6702 87.2689 59.7954M86.3101 57.805C85.8974 57.226 85.2948 56.874 84.9525 56.7454C84.6593 56.2123 83.9394 55.1999 83.4053 55.4152C82.7378 55.6844 81.0053 55.5102 80.5077 54.9209C80.4245 54.8224 80.2844 54.7124 80.1018 54.5978M86.3101 57.805C86.4981 58.0687 86.6467 58.3795 86.7133 58.7377C86.8132 59.2742 87.0473 59.5752 87.2689 59.7954M89.3425 59.9698C89.056 59.0922 90.9233 57.0159 91.8928 56.0874C92.1853 55.4534 92.32 54.924 92.3334 54.4836M92.3334 54.4836L92.5479 53.7029L92.154 53.5947M92.3334 54.4836C92.3441 54.1335 92.2782 53.8398 92.154 53.5947M92.154 53.5947C92.3929 54.0123 93.1956 54.5747 94.4957 53.4837C96.1208 52.1199 95.9607 53.2827 95.9598 53.8859C95.9597 54.0215 96.0018 54.1839 96.055 54.3646M96.055 54.3646C95.9154 55.2817 95.4372 57.0611 94.642 56.8427M80.1018 54.5978C79.7477 53.4865 80.5091 52.1151 80.9341 51.5684C82.5427 50.8537 84.9947 49.4858 81.9334 49.731C80.9412 49.8104 80.0415 50.1045 79.2547 50.5036M80.1018 54.5978C79.8055 54.4118 79.3972 54.2136 78.9383 54.0322M80.2228 51.1567C79.5781 51.9032 78.4186 53.5233 78.9383 54.0322M77.2574 48.7481C76.2042 49.8165 74.1716 52.1545 74.4663 52.9596M74.4663 52.9596C74.6303 53.065 74.8204 53.1615 75.0355 53.2353M76.795 50.4313C75.8917 51.3187 74.2753 53.1219 75.0355 53.2353M79.2547 50.5036C79.381 50.322 79.5399 50.1076 79.7225 49.8779M82.8951 47.4306C83.3931 47.4197 83.8882 47.5871 84.3305 47.8249M82.8951 47.4306C82.1198 47.5798 81.6937 45.4889 81.5775 44.4249M82.8951 47.4306C82.303 47.4436 81.5946 47.9287 80.9415 48.5405M84.2146 52.4696C84.8841 51.4729 86.0391 49.2854 85.3027 48.5085M85.3027 48.5085C85.4973 48.6796 85.6563 48.843 85.7684 48.9742C86.1407 49.294 86.6352 49.7532 87.0984 50.2446M85.3027 48.5085C85.2434 48.4564 85.1809 48.4036 85.1153 48.3507M85.7735 51.8419C85.9728 51.0281 86.5168 49.5693 87.0984 50.2446M87.0984 50.2446C87.2466 50.1005 87.4196 49.9447 87.6144 49.7829M84.4624 50.7274C84.9245 50.2063 85.7019 49.0014 85.1153 48.3507M85.1153 48.3507C84.8856 48.1655 84.6193 47.9802 84.3305 47.8249M103.597 58.6994C103.503 58.3719 103.646 57.5963 104.965 57.114C105.597 56.8831 105.844 56.2996 105.893 55.6499M101.475 57.8147C102.58 57.8166 105.004 57.2152 105.859 54.795M105.859 54.795C105.845 54.6877 105.827 54.5819 105.807 54.479M105.859 54.795C105.897 55.077 105.914 55.3696 105.893 55.6499M103.68 56.3905C104.421 56.1643 105.882 55.4654 105.807 54.479M105.807 54.479C105.746 54.1704 105.664 53.8871 105.583 53.6633C105.702 53.303 105.789 52.9826 105.848 52.6982M105.807 54.479C105.738 53.5422 108.565 53.6595 109.988 53.8352M102.629 55.4162C103.671 54.9101 105.775 53.6579 105.848 52.6982M105.848 52.6982C106.295 50.5798 105.251 50.4577 104.744 50.7173C104.492 50.846 103.493 50.5964 102.1 50.141M97.5528 52.2115C98.6116 51.3836 101.003 49.8104 102.1 50.141M102.1 50.141C101.724 50.0182 101.319 49.8804 100.893 49.7311M98.0107 50.545C98.4684 50.1046 99.6858 49.3251 100.893 49.7311M100.893 49.7311C100.417 49.5643 99.9136 49.383 99.3926 49.192M100.893 49.7311C102.235 49.3521 103.023 48.4874 103.493 47.5072M94.6576 49.6239C95.0157 49.0256 96.2247 48.0129 98.1956 48.748M98.1956 48.748C98.0161 48.6807 97.8354 48.6128 97.6539 48.5444M98.1956 48.748C98.6018 48.9001 99.0021 49.0488 99.3926 49.192M90.6341 49.8668C91.9098 49.0239 94.8796 47.4957 96.5527 48.1267M96.5527 48.1267C96.2041 47.9939 95.8552 47.8604 95.5083 47.7276C93.432 46.9322 91.2337 47.5673 89.5281 48.4915M96.5527 48.1267C96.9211 48.2671 97.2891 48.4067 97.6539 48.5444M69.4359 49.0131C70.3472 50.0687 71.8855 52.2962 71.1887 53.2193M71.034 53.3744C71.0945 53.328 71.1459 53.2761 71.1887 53.2193M71.034 53.3744C71.0864 53.3236 71.138 53.2719 71.1887 53.2193M59.3198 45.0272C60.9692 44.4243 64.7747 42.8147 66.8013 41.1991C67.2291 40.858 67.697 40.5752 68.189 40.3486M59.3198 45.0272C59.1098 45.0728 58.889 45.1684 58.9228 45.3053M59.3198 45.0272L58.4017 43.5682M79.7225 49.8779C80.503 49.338 79.9483 47.9787 79.2628 46.8493C78.5774 45.7199 80.9504 44.331 78.4201 43.3154C78.2747 43.2571 78.1426 43.2025 78.0222 43.1513M79.7225 49.8779C80.0644 49.4477 80.4897 48.9638 80.9415 48.5405M71.1887 53.2193C71.0795 53.3508 70.9314 53.4552 70.7661 53.5349M68.9751 49.4898C69.8011 50.3254 71.3157 52.3042 70.7661 53.5349M70.7661 53.5349C70.0526 53.8789 69.0174 53.7629 69.3914 53.3757C69.5195 53.2431 69.3841 52.8631 69.0954 52.3893M58.9228 45.3053C58.9549 45.4351 59.2159 45.6021 59.9321 45.7989C61.7717 46.3042 61.9242 46.9496 61.9996 47.8754C62.075 48.8011 64.4506 49.7556 65.6779 49.4893C66.5639 49.2971 68.3461 51.1593 69.0954 52.3893M58.9228 45.3053C58.8307 45.2244 58.6455 45.0125 58.407 44.7765M58.407 44.7765C57.9764 44.3504 57.3722 43.8455 56.8293 43.8905C55.9857 43.9605 56.3082 44.587 56.0988 45.3493C55.9313 45.959 55.2109 45.7808 54.8716 45.6154C54.6862 45.0902 54.2733 44.3126 54.1051 45.4049C53.937 46.4971 53.4721 46.3088 53.2607 46.0781C52.3186 45.8193 52.8008 45.9518 52.4197 44.3385C52.1147 43.0479 54.2951 42.1707 55.4235 41.8935M58.407 44.7765C58.4539 45.7968 58.7473 47.9515 59.5451 48.408C60.5424 48.9786 62.6874 49.5727 63.8744 50.6532C65.0614 51.7336 69.1799 53.0159 69.0954 52.3893M54.7536 47.8459C55.1753 49.1164 55.7827 52.0346 54.839 53.5435M54.839 53.5435C55.536 53.5011 56.1303 53.5305 56.6419 53.6081M57.4493 50.6692C57.7153 51.3123 57.9262 52.8004 56.6419 53.6081M51.3466 44.0437C51.0086 46.2741 50.7127 51.0323 52.2324 52.2221M52.2324 52.2221C52.3782 52.1636 52.5098 52.1179 52.6229 52.0879M52.2324 52.2221C52.0843 52.2814 51.9214 52.354 51.7482 52.4366M52.0285 49.9635C51.9274 50.5894 51.9048 51.8907 52.6229 52.0879M48.5864 43.8888C48.4756 46.2902 48.8987 51.3883 51.4775 52.5695M51.4775 52.5695C51.57 52.5229 51.6604 52.4784 51.7482 52.4366M51.4775 52.5695C51.3117 52.653 51.1391 52.7435 50.963 52.8388M51.7482 52.4366C50.5541 49.2974 48.7269 42.0568 50.9713 38.208C52.3135 35.9063 54.1906 33.9932 55.8591 32.6115M59.6089 30.1719C60.1373 30.0861 60.1481 30.4771 59.537 32.2641M59.6089 30.1719C60.3733 30.2701 61.3902 25.6881 61.803 23.3848M59.6089 30.1719C59.4357 30.2 58.9824 30.417 58.356 30.8023M58.0666 30.9846C57.629 31.1633 57.3203 31.3933 57.1074 31.6424M58.0666 30.9846C57.7735 31.1733 57.4508 31.3931 57.1074 31.6424M58.0666 30.9846C58.1666 30.9202 58.2632 30.8594 58.356 30.8023M57.2968 38.5881C57.0883 39.5471 56.3614 41.5127 55.1222 41.7026M55.1222 41.7026C54.2005 41.0614 53.1842 39.7556 55.458 37.4795C57.8231 35.1121 57.3163 33.7157 56.7673 33.3135C56.6362 32.9441 56.5974 32.2388 57.1074 31.6424M55.1222 41.7026C55.2254 41.7744 55.3274 41.8379 55.4235 41.8935M55.4235 41.8935C55.5849 41.9869 55.7296 42.0579 55.835 42.1087C56.2749 42.3207 57.4587 41.3596 58.2777 40.2152M58.2777 40.2152C58.8139 39.466 59.1938 38.6383 59.1063 38.0097C58.9295 36.7387 58.827 35.0229 58.7979 34.3239C59.1045 33.4889 59.3499 32.8111 59.537 32.2641M58.2777 40.2152C57.8905 40.8924 57.3731 42.511 58.4017 43.5682M58.4017 43.5682C59.4302 44.6254 61.1864 40.6331 61.9359 38.5048M58.4017 43.5682L59.4163 40.528C60.172 40.0819 61.4826 39.1345 60.6787 38.9137C59.6738 38.6376 60.4108 37.4824 60.5264 37.0616C60.6188 36.7249 61.0261 36.8468 61.2181 36.9499L61.6035 35.5472L60.9888 35.3783L61.6053 33.134C61.6938 33.0535 61.8025 32.9776 61.9251 32.9202M68.189 40.3486C68.3182 40.4362 68.2837 40.2632 67.1112 38.8705C65.6457 37.1297 67.4966 37.4678 65.8496 36.2611C64.5321 35.2958 64.024 34.9047 63.9347 34.8299C63.8052 34.331 63.6537 33.9455 63.4903 33.6518M68.189 40.3486C68.4741 40.2172 68.7673 40.1048 69.0655 40.0107M61.9251 32.9202C61.3877 32.7725 60.8483 32.0813 62.9907 30.4975C63.3236 30.2514 63.6235 30.0335 63.8954 29.8408M61.9251 32.9202C62.055 32.8593 62.2004 32.8191 62.3538 32.8158M91.1062 42.7468C89.0636 43.0908 88.1243 43.8888 88.2664 44.6821C88.4086 45.4754 88.3079 45.7313 88.6468 46.8985C88.8839 47.7155 88.2658 48.8726 87.8013 49.5327M91.1062 42.7468C92.1244 42.5754 93.1886 42.1665 94.0087 41.7837M91.1062 42.7468C92.4994 42.0028 93.6085 40.9583 93.6676 40.054M87.6144 49.7829C88.1218 49.3613 88.7772 48.8984 89.5281 48.4915M87.6144 49.7829C87.6716 49.7113 87.7349 49.6271 87.8013 49.5327M93.75 43.9257C92.2897 45.0405 89.4008 47.5144 89.5281 48.4915M102.217 43.1132C102.001 44.648 100.787 47.8829 97.6539 48.5444M103.219 44.2642C102.996 45.8759 101.919 49.1177 99.3926 49.192M95.2573 39.965C95.1805 39.693 94.292 40.1523 94.5609 39.7737C94.8147 39.4162 94.3268 39.1723 93.6353 38.9421M95.2573 39.965C95.3494 40.2906 95.2642 40.8143 95.1648 41.176C94.9116 41.3301 94.5048 41.5521 94.0087 41.7837M95.2573 39.965C96.7788 37.9189 100.312 33.841 102.275 33.8975M102.275 33.8975C101.049 33.5606 98.5129 37.5907 97.3982 39.6479M102.275 33.8975C101.503 34.4094 102.41 36.4488 102.96 37.4046M102.275 33.8975C102.622 33.9075 102.886 33.9877 103.083 34.1193M102.96 37.4046C102.766 36.6389 107.226 35.6649 109.481 35.2737M102.96 37.4046C103.365 36.619 103.815 35.2881 103.426 34.5111M102.96 37.4046C103.024 37.6453 103.096 37.9256 103.172 38.2335M81.3772 36.1519C81.5713 34.4452 82.4801 31.537 84.563 33.5574C87.1665 36.0829 86.5165 34.8482 86.6296 36.2371C86.896 37.668 87.1866 38.4105 87.04 38.944C86.8935 39.4775 88.2354 39.3937 87.0459 40.1229C86.5097 40.4516 86.0204 40.6093 85.6586 40.7977M83.9707 45.9157C84.4613 46.0505 85.0458 44.803 85.2767 44.1625C85.2516 43.8538 85.171 42.9869 85.0497 41.9882C84.9664 41.3025 85.2179 41.0273 85.6586 40.7977M83.9707 45.9157C84.0211 46.0144 84.0776 46.1329 84.134 46.2622M83.9707 45.9157C84.0478 45.6352 83.8183 45.2704 83.2438 44.961C82.6693 44.6517 82.9092 44.3787 83.2076 43.2924C83.506 42.2061 82.0583 42.6749 81.4861 40.5566C81.2612 39.724 80.6537 39.9567 79.9796 40.5953M84.3305 47.8249C84.637 47.6367 84.3865 46.8415 84.134 46.2622M84.134 46.2622C85.7408 47.0054 88.7239 48.7001 87.8013 49.5327M78.0222 43.1513C78.5125 42.3522 79.2817 41.2564 79.9796 40.5953M78.0222 43.1513C76.2624 42.4019 77.0165 42.3489 75.8405 41.2685M79.5276 42.8848C79.8144 42.6116 80.3063 41.7713 79.9796 40.5953M80.5702 46.7919C80.4396 47.3007 80.3309 48.3626 80.9415 48.5405M72.0048 39.6619C73.2775 39.7492 74.4602 40.1469 75.3131 40.822C75.5233 40.9884 75.6964 41.1362 75.8405 41.2685M72.0048 39.6619C71.042 39.5958 70.0277 39.7073 69.0655 40.0107M72.0048 39.6619C72.1403 39.385 72.4757 39.05 73.0674 38.7945M85.6586 40.7977C84.8383 41.1758 83.0513 40.1317 82.2604 39.5624C82.012 39.2709 81.6079 38.8704 81.1969 38.6086M85.6586 40.7977C85.7654 40.4211 85.749 40.1043 85.6401 39.8389M81.1969 38.6086C80.775 38.3399 80.3459 38.2172 80.0704 38.5083C79.5265 39.083 79.1022 39.0469 78.9579 38.957C77.6461 38.5966 76.5516 38.4341 75.6477 38.4037M81.1969 38.6086C82.6277 38.4797 85.1338 38.6048 85.6401 39.8389M75.6477 38.4037C77.3831 39.4657 79.8511 41.5255 75.8405 41.2685M75.6477 38.4037C74.4974 38.3651 73.6558 38.5405 73.0674 38.7945M63.4903 33.6518C63.6861 33.6106 63.9619 33.5853 64.2708 33.6065M63.4903 33.6518C63.1341 33.0121 62.721 32.8081 62.3538 32.8158M69.0655 40.0107C69.1431 39.927 69.2104 39.8449 69.2684 39.7648M73.2957 37.0997C72.3403 38.0944 70.1974 40.02 69.2684 39.7648M69.2684 39.7648C69.8763 38.9249 69.4593 38.2955 69.1443 38.0713C68.7866 37.973 68.0793 37.5072 68.1114 36.4299C68.1176 36.223 68.1002 36.0738 68.0629 35.964M73.0597 34.6212C71.3662 34.7594 67.996 35.2215 68.0629 35.964M68.0629 35.964C67.928 35.5664 67.533 35.6868 67.0575 35.4652M67.0575 35.4652C66.8096 35.3497 66.5398 35.1413 66.2735 34.7181C65.7704 33.9185 64.9424 33.6526 64.2708 33.6065M67.0575 35.4652C67.2175 35.2046 67.9882 34.6909 69.8341 34.3601M71.8785 29.7711C71.8356 31.2065 71.5584 34.1055 70.792 34.2187M70.792 34.2187C70.9775 34.1966 71.1713 34.1762 71.3734 34.158C73.8747 33.932 75.8838 33.0095 76.9167 32.3685M70.792 34.2187C70.4446 34.2601 70.1259 34.3078 69.8341 34.3601M70.8398 31.8994C70.8501 32.8622 70.6634 34.7021 69.8341 34.3601M73.9091 30.329C73.8952 31.1799 74.2047 32.854 75.5544 32.742C76.9041 32.63 77.025 32.4464 76.9167 32.3685M76.9167 32.3685C77.1126 32.247 77.2733 32.1356 77.3956 32.041C77.2152 32.2975 77.0926 32.7841 78.0448 32.6784C78.9971 32.5728 77.571 34.6034 76.7389 35.6319C76.4965 35.7489 76.1202 35.9632 75.7405 36.2418M73.0674 38.7945C73.3087 38.7233 73.7931 38.4803 74.208 38.0082M76.5822 38.0026C75.944 37.8635 74.5756 37.67 74.208 38.0082M74.208 38.0082C74.3468 37.8502 74.4778 37.6666 74.5894 37.4551C74.8311 36.9967 75.2883 36.5736 75.7405 36.2418M75.7405 36.2418C76.781 36.0717 78.6083 35.9063 80.4217 36.0292M85.6401 39.8389C86.1179 39.3829 86.486 38.1587 84.1366 36.91C83.1304 36.3752 81.78 36.1213 80.4217 36.0292M80.4217 36.0292C79.2371 34.2995 77.2558 30.7655 78.8076 30.4677C80.3594 30.1699 80.6703 30.376 80.6318 30.5163C80.8451 30.1223 81.4094 29.5532 81.9602 30.4287C82.3586 31.0617 82.5419 30.5111 82.6132 29.8538M82.6516 29.1121C82.5851 28.8689 82.5344 28.6471 82.4997 28.4649C82.8188 26.4778 81.4211 25.9511 80.3728 25.9195M82.6516 29.1121C82.934 30.1438 83.5018 31.562 84.3412 31.9879C85.3784 32.5142 86.5078 31.8791 86.9429 31.4958C87.5312 31.1545 88.7149 30.9266 88.7431 32.7446C88.7783 35.0171 88.0221 34.6585 89.5062 35.3679C90.6935 35.9354 91.0721 37.3066 91.1129 37.9213C91.4306 38.2589 92.1777 38.4953 92.9018 38.7145M82.6516 29.1121C82.6514 29.3347 82.6405 29.6021 82.6132 29.8538M64.2708 33.6065C63.3808 32.8452 61.9996 31.3114 63.5946 31.2668C65.5883 31.2111 67.6591 30.8748 68.7732 29.2197C69.8873 27.5647 70.487 27.8802 69.7482 26.3196M69.7482 26.3196C69.9726 27.6717 68.3477 28.6613 67.3173 28.5181C67.0845 28.4857 66.8768 28.4669 66.6695 28.4756M69.7482 26.3196C69.7305 26.213 69.7013 26.1042 69.6595 25.9936C69.5147 25.6107 69.5318 25.2533 69.6431 24.9331M65.053 30.1588C63.6006 30.4667 61.0275 31.4291 62.3538 32.8158M59.537 32.2641C59.9296 31.7751 60.4035 31.2015 60.9197 30.5979M66.6695 28.4756C67.0652 27.8351 67.65 26.3466 66.823 25.516C66.1519 24.8419 63.1435 27.9974 60.9197 30.5979M66.6695 28.4756C66.0099 28.5031 65.3529 28.8087 63.8954 29.8408M64.8268 27.3813C64.411 28.0214 63.6425 29.4093 63.8954 29.8408M81.6725 84.6314C85.0006 87.8063 92.5758 93.6911 96.2523 91.8309M81.6725 84.6314C82.47 84.4569 84.549 84.241 86.4856 84.773C88.9063 85.438 90.2125 85.0098 90.9312 85.9943C91.65 86.9788 92.1149 89.4873 93.3036 89.3613C94.2546 89.2605 95.6656 90.9657 96.2523 91.8309M96.2523 91.8309C96.8939 91.5062 97.1414 91.0126 97.0858 90.4003M85.5743 79.0879C85.9472 79.2261 86.3426 79.383 86.7628 79.5628C89.9494 80.9261 92.0479 82.5297 92.6988 83.161C93.1325 83.4521 93.8763 83.884 94.7098 84.2427M85.5743 79.0879C89.777 81.9544 96.8227 87.5042 97.0858 90.4003M98.2896 88.0157L94.7098 84.2427M94.7098 84.2427C95.2977 84.4958 95.9302 84.7124 96.5302 84.8177M103.347 90.6117C101.763 89.7761 98.1819 87.4474 96.5302 84.8177M96.5302 84.8177C96.8084 84.8665 97.0796 84.8913 97.3361 84.8847C99.3286 84.8335 98.2544 85.7433 98.8676 85.9117C99.4807 86.0802 101.244 86.8641 101.743 86.2489C101.821 86.1527 101.953 86.0935 102.122 86.0666M102.122 86.0666C103.038 85.9212 105.04 86.7166 105.459 87.7226C105.832 88.6168 108.704 89.3759 110.357 89.6988M102.122 86.0666C103.763 87.4677 107.782 90.3521 110.735 90.6805C110.971 90.7067 111.186 90.7384 111.381 90.7746M97.0858 90.4003C97.5863 89.1801 103.228 93.4453 105.221 93.9928C106.094 94.2327 107.699 94.0094 109.269 93.6585M110.357 89.6988L111.381 90.7746M111.381 90.7746C113.617 91.1915 113.202 92.2188 112.66 92.7177C112.548 92.7554 112.427 92.795 112.298 92.836M112.298 92.836C113.21 93.919 114.833 96.2112 114.035 96.716C113.037 97.3469 111.172 92.7347 109.269 93.6585M112.298 92.836C111.49 93.0941 110.388 93.4086 109.269 93.6585M103.493 47.5072C103.621 47.2407 103.725 46.9656 103.811 46.6895M103.493 47.5072C103.643 47.5403 103.906 47.6413 104.216 47.8369M110.724 51.1532C110.993 51.227 111.239 51.3364 111.461 51.471M110.724 51.1532C109.411 50.7924 109.457 50.434 109.393 49.933M110.724 51.1532C111.031 51.4787 111.442 49.9423 111.609 49.1334M105.893 55.6499C106.016 55.2075 107.128 54.9334 108.407 54.7493M108.116 52.2469C109.233 51.8499 111.653 51.3181 112.398 52.3673M112.398 52.3673C112.985 53.2539 112.938 54.2792 111.98 54.3827C111.206 54.4664 109.719 54.5604 108.407 54.7493M112.398 52.3673C112.173 52.0286 111.856 51.7101 111.461 51.471M104.021 45.842C103.967 46.1203 103.899 46.4054 103.811 46.6895M104.021 45.842C105.002 45.2295 106.606 44.4368 108.223 44.0527M104.021 45.842C104.069 45.5935 104.105 45.3505 104.134 45.1187M112.497 44.7009C112.624 45.2386 112.816 46.5385 112.57 47.4363C112.261 48.5585 112.953 47.8432 112.721 48.6848C112.49 49.5264 112.198 51.7887 111.461 51.471M112.497 44.7009C112.982 44.7337 114.06 45.251 114.487 47.0579C114.474 47.5068 114.692 48.4719 115.673 48.7414C116.655 49.011 116.518 50.4687 116.327 51.1639C117.04 51.7686 118.113 53.3036 116.7 54.6052C116.333 54.944 116.068 55.3307 115.865 55.7265M112.497 44.7009C111.458 43.6932 109.834 43.6706 108.223 44.0527M107.335 45.0931C106.15 45.3109 103.786 45.9352 103.811 46.6895M107.104 45.9347C105.921 46.3939 103.688 47.4172 104.216 47.8369M104.216 47.8369C104.542 48.0428 104.92 48.3535 105.271 48.8004C106.125 49.8898 108.134 47.9776 109.002 49.0207C109.298 49.3764 109.36 49.6738 109.393 49.933M107.888 50.6757C108.479 50.6773 109.607 50.5308 109.393 49.933M108.407 54.7493C109.747 54.8393 111.818 55.2305 113.02 56.1227M115.715 53.3909C115.322 54.8664 114.383 57.6481 113.777 56.9701M113.777 56.9701C113.611 56.6475 113.348 56.3664 113.02 56.1227M114.312 55.0232C114.163 55.6059 113.695 56.6415 113.02 56.1227M116.204 53.4129C115.927 54.1391 115.472 55.6186 115.865 55.7265M103.083 34.1193C103.236 34.2217 103.347 34.3553 103.426 34.5111M103.083 34.1193C103.32 33.9952 103.577 33.8633 103.85 33.7268M108.223 44.0527C108.508 43.0182 114.377 42.6593 116.642 41.6155C118.907 40.5718 117.454 36.2572 116.382 35.3591C115.31 34.4611 117.407 34.1321 115.771 33.9843C115.42 33.9526 115.107 33.9036 114.824 33.8278M113.576 40.7733C112.348 41.2406 109.656 42.2005 108.705 42.3014C107.516 42.4274 104.388 43.7837 104.134 45.1187M104.134 45.1187C104.173 44.7978 104.197 44.4985 104.216 44.2363C104.228 44.0784 104.224 43.8838 104.209 43.6607M108.629 41.3755C107.161 41.8468 104.222 42.9638 104.209 43.6607M104.209 43.6607C104.117 42.2994 103.58 39.8754 103.172 38.2335M108.717 33.2535C107.746 33.9895 105.327 35.2714 103.426 34.5111M109.944 33.5904C111.076 33.4309 113.262 32.9447 112.943 32.2753M112.943 32.2753C112.806 32.0315 112.674 31.7541 112.544 31.4385C111.975 30.0634 106.916 32.1941 103.85 33.7268M112.943 32.2753C113.092 32.542 113.248 32.7685 113.414 32.9607M110.556 34.3621C111.716 34.2198 113.912 33.7403 113.414 32.9607M113.414 32.9607C113.804 33.4116 114.253 33.6745 114.824 33.8278M111.658 34.6647C112.398 34.3336 114.067 33.7026 114.824 33.8278M106.508 36.8705C105.336 37.0769 103.028 37.6383 103.172 38.2335M82.6538 27.9039C83.1738 27.5793 83.761 27.2537 84.4012 26.9445M103.85 33.7268C103.436 32.703 102.977 31.7881 102.481 30.9728M86.0658 28.0869C86.9754 26.9763 89.7643 24.8263 93.643 25.1107M93.643 25.1107C94.3767 25.1901 95.1086 25.3341 95.8293 25.554M93.643 25.1107C92.8203 25.0215 91.9953 25.0135 91.181 25.0703M98.4414 33.4498C99.0331 32.0961 99.3391 28.6218 95.8293 25.554M95.8293 25.554C96.2826 25.6924 96.7315 25.8608 97.1736 26.062M99.8258 30.8109C99.5942 29.4534 98.7394 26.6032 97.1736 26.062M97.1736 26.062C98.1957 26.5274 99.1817 27.1685 100.103 28.0208M101.396 31.695C101.326 30.7653 100.968 28.7289 100.103 28.0208M100.103 28.0208C100.959 28.813 101.76 29.7876 102.481 30.9728M87.1156 21.8885C87.4632 22.707 88.7629 24.4891 91.181 25.0703M91.181 25.0703C89.0897 25.2163 87.0693 25.7905 85.3424 26.5191M83.9692 24.3159L85.3424 26.5191M85.3424 26.5191C85.0178 26.656 84.7036 26.7984 84.4012 26.9445M82.4498 23.8985L84.4012 26.9445M101.402 27.4727C101.932 28.4968 102.888 30.6307 102.481 30.9728M102.481 30.9728C102.947 30.8973 102.773 29.2346 102.628 28.4128M102.481 30.9728C102.988 30.7922 103.605 30.4028 103.925 29.798M89.3345 20.9895C89.1418 21.6909 90.7232 22.2761 92.0151 23.2345C93.0486 24.0011 92.7026 22.6188 92.4004 21.8318C92.2707 21.4863 92.1226 21.017 92.0658 20.6494M89.3345 20.9895C89.5271 20.2882 91.2285 22.497 92.0658 20.6494M89.3345 20.9895C89.0803 20.9005 88.8056 20.7576 88.625 20.5715M92.0658 20.6494C91.9935 20.1817 92.0689 19.8786 92.5177 20.2046C93.0949 20.6239 93.8089 20.7835 94.3249 20.828M95.0129 22.8512C94.7077 22.0529 94.4568 20.4679 95.8951 20.5134M95.8951 20.5134C98.3051 20.112 98.1957 22.7565 98.839 23.6005C99.5661 24.5545 101.83 23.5169 101.521 24.6391C101.275 25.5368 102.388 26.2852 102.976 26.5471C103.368 26.9807 103.647 27.3824 103.833 27.7526M95.8951 20.5134C95.581 20.5657 95.2241 20.6698 94.8172 20.8363C94.6961 20.8453 94.5254 20.8453 94.3249 20.828M94.049 21.8321C93.9769 21.4946 93.931 20.8214 94.3249 20.828M103.925 29.798C104.122 29.4258 104.207 28.9721 104.084 28.4353M103.925 29.798C104.913 27.6483 104.152 29.2226 106.113 28.9296M107.424 25.9588C106.572 26.9315 104.713 28.7884 104.084 28.4353M104.084 28.4353C104.036 28.221 103.954 27.9935 103.833 27.7526M105.505 26.9404C105.01 27.5516 103.982 28.5696 103.833 27.7526M100.565 22.7171C100.826 21.8952 101.736 20.3156 103.298 20.5726M103.298 20.5726C101.902 20.226 101.287 19.6848 101.145 19.4067C101.073 19.1043 100.981 18.8351 100.873 18.5967M103.298 20.5726C103.535 20.6316 103.795 20.6849 104.079 20.7303M101.725 22.115C102.138 21.5323 103.186 20.4395 104.079 20.7303M104.079 20.7303C104.231 20.7546 104.39 20.7766 104.555 20.7961C107.43 21.1333 105.666 21.5538 107.007 22.6763C107.256 22.885 107.67 23.1026 108.144 23.336M100.184 21.1039C100.567 20.5109 101.241 19.1793 100.873 18.5967M100.873 18.5967C100.332 17.4071 99.3648 16.9806 98.1816 16.9912M94.7426 19.3072C95.6151 18.9319 97.5244 17.9432 98.1816 16.9912M98.1816 16.9912C96.8358 17.0032 95.2108 17.5806 93.6168 18.2437C90.3407 19.6065 92.9047 17.5955 89.9165 18.871C89.2235 19.1668 88.8159 19.4455 88.6061 19.699M108.144 23.336C109.332 24.6143 110.588 27.5227 106.113 28.9296M108.144 23.336C108.376 23.4502 108.623 23.5682 108.871 23.6909M106.113 28.9296C106.74 28.8359 107.645 28.5514 108.974 27.8933C109.296 27.7341 109.577 27.5795 109.823 27.4293M108.871 23.6909C110.684 24.5859 112.602 25.7262 109.823 27.4293M108.871 23.6909C110.077 24.5249 111.956 26.4402 109.823 27.4293M92.9018 38.7145C93.1556 38.7912 93.4066 38.8659 93.6353 38.9421M92.9018 38.7145C92.9926 38.7935 93.0838 38.8819 93.1717 38.9781M94.0087 41.7837C92.4042 41.8965 95.7432 39.671 93.6353 38.9421M91.6254 40.8571C92.3412 40.7513 93.6527 40.2274 93.1717 38.9781M93.1717 38.9781C93.2922 39.1099 93.4066 39.2563 93.5058 39.4135C93.6322 39.6138 93.6822 39.8296 93.6676 40.054M88.9847 42.0676C90.4771 42.0557 93.5031 41.6364 93.6676 40.054M81.1971 27.8054C81.7242 28.2519 82.7454 29.2867 82.6132 29.8538M69.6431 24.9331C69.8842 24.2395 70.5673 23.7207 71.0048 23.4969C71.6311 23.4175 72.7836 23.6235 72.3828 25.0823C71.9821 26.5411 73.4925 26.6442 74.2978 26.5135C74.5156 26.1208 75.3267 25.529 76.8285 26.3036C78.3303 27.0782 79.4993 26.3836 79.8961 25.9395C80.0397 25.9224 80.2016 25.9144 80.3728 25.9195M69.6431 24.9331C69.5379 24.089 69.8454 22.4361 71.9171 22.5765C74.5068 22.752 73.7649 23.6517 74.9914 23.9886C75.6687 24.1746 76.7538 24.1048 77.8576 24.3578M80.3728 25.9195C79.6604 24.9807 78.7529 24.5631 77.8576 24.3578M60.9197 30.5979C61.4244 28.2506 62.9228 23.5696 64.8789 23.6243C67.324 23.6926 70.9818 22.3804 71.7053 20.9468M71.7053 20.9468C72.1854 19.9958 72.8834 19.9013 73.3678 20.1768M71.7053 20.9468C70.4774 21.1913 71.8313 18.7277 72.6618 17.4653M73.884 20.8181C74.1204 21.6103 74.4323 22.4232 75.5378 21.9997C76.6434 21.5762 76.1724 22.09 76.2195 23.1191C76.2572 23.9424 77.3273 24.288 77.8576 24.3578M73.884 20.8181C74.18 20.5485 74.8025 20.2318 75.7042 20.1641M73.884 20.8181C73.8044 20.5515 73.6136 20.3166 73.3678 20.1768M82.4729 20.1605C83.5091 19.3892 87.8897 19.8446 88.625 20.5715M82.4729 20.1605C82.0678 20.4621 81.4424 20.6581 80.8186 20.7811M82.4729 20.1605C81.4301 20.1154 82.2851 17.9866 82.843 16.9278M88.625 20.5715C88.4008 20.3405 88.3215 20.0429 88.6061 19.699M82.3648 15.1526C82.1382 16.9856 81.5117 20.6776 80.8186 20.7811M80.8186 20.7811C80.1658 20.9097 79.5147 20.9583 79.1198 20.9637C78.4696 20.6368 77.8693 20.4255 77.3236 20.3006M78.1864 14.759C77.6848 16.6502 76.4862 20.3789 75.7042 20.1641M75.7042 20.1641C76.1713 20.1291 76.7133 20.1608 77.3236 20.3006M78.269 16.8593C77.6994 17.9325 76.7129 20.1232 77.3236 20.3006M73.3678 20.1768C74.3533 20.0106 76.3339 19.2887 76.3728 17.7305C76.3994 16.6642 76.8648 15.0509 77.3108 13.7642M73.3678 20.1768C74.4684 19.9159 74.357 15.0155 74.1637 12.598M88.6061 19.699C87.1129 20.5408 87.6296 18.3662 88.0746 17.1737C88.5594 16.6093 89.1133 15.1929 87.4507 14.0433C85.3725 12.6062 86.3651 12.7819 85.7441 11.2536C85.1231 9.72529 83.5996 9.45762 81.4525 9.47122C81.0132 9.47401 80.5955 9.5981 80.2091 9.79685M59.3968 17.1401C58.8705 18.856 57.9016 22.7031 58.2366 24.3641C58.6555 26.4403 57.6528 31.2345 57.1074 31.6424M57.1074 31.6424C56.7142 31.9277 56.2937 32.2515 55.8591 32.6115M58.9301 25.0071C59.0557 26.0756 59.1167 28.7304 58.356 30.8023M80.2091 9.79685C81.4629 6.43369 79.654 7.01603 78.6948 7.50682C77.7357 7.9976 77.6988 6.93149 76.2421 6.83301C76.0154 6.81768 75.8469 6.84953 75.7249 6.91514M80.2091 9.79685C79.5112 10.1559 78.9156 10.7584 78.4792 11.3296M77.3108 13.7642C77.5166 13.1706 77.7182 12.6465 77.8707 12.2776C78.0056 12.0151 78.2128 11.6782 78.4792 11.3296M77.3108 13.7642L77.1383 13.1729M75.7249 6.91514C75.2197 7.18687 75.5127 8.03784 75.7797 8.51623L76.7777 11.937M75.7249 6.91514C75.4914 6.91314 75.2082 6.90083 74.9118 6.87407M44.7296 32.722C45.5103 31.8805 47.1175 30.3911 47.3005 31.1654C47.4835 31.9397 45.9683 33.4143 45.1878 34.0547C44.3983 35.3285 43.036 38.0466 43.9038 38.7289C44.9884 39.5817 46.0238 39.4136 46.1378 40.1991C46.2517 40.9847 46.3664 41.1671 45.5212 42.4434C45.3984 42.6289 45.2997 42.8024 45.2169 42.9632M44.7296 32.722C44.705 32.6356 44.6715 32.5244 44.63 32.3929M44.7296 32.722C44.8263 32.7087 44.7524 32.9392 43.9334 33.8415M40.6264 50.6591C40.3087 48.2146 39.8743 50.396 40.031 48.0253C40.1613 46.0535 41.7019 44.7605 42.9627 44.4278M40.6264 50.6591C40.877 52.5871 40.833 54.094 40.2582 54.2729M40.6264 50.6591C41.0311 49.2027 42.1712 46.9962 43.4943 49.8216C43.5835 50.097 44.0171 50.7995 45.0374 51.4063C46.3129 52.1647 46.5133 53.4267 46.0663 54.0581C45.6193 54.6896 45.5337 57.1185 46.3214 56.335M44.7526 59.0448C44.8568 58.746 44.935 58.4871 44.9625 58.2806C45.0232 57.8247 45.6073 57.0836 46.3214 56.335M44.7526 59.0448C44.6853 59.2376 44.6072 59.447 44.5248 59.6696M44.7526 59.0448C45.0395 59.0005 45.3449 59.0495 44.2704 59.5997M44.7526 59.0448C44.8718 58.7171 44.1333 58.0319 42.9694 57.1944M33.5405 56.0479C36.1996 57.8349 42.1192 61.061 44.5248 59.6696M44.5248 59.6696C43.4831 58.5283 40.6026 56.0269 37.414 55.1509C34.2254 54.2749 30.3394 51.2966 28.7949 49.9169M44.5248 59.6696C44.069 60.901 43.4829 62.537 43.8844 64.0055M38.1018 56.8484C39.7103 57.9948 43.1959 60.1499 44.2704 59.5997M44.2704 59.5997C44.0389 60.0026 43.6736 60.2536 43.2163 60.3861M35.3013 58.0402C36.5872 58.7896 38.6305 59.7805 40.4696 60.2439M39.0542 61.1831C39.9295 61.3645 41.9874 61.459 43.2163 60.3861M43.2163 60.3861C43.6603 61.6107 42.006 62.0078 41.1234 62.0533M43.2163 60.3861C42.4811 60.599 41.5079 60.5055 40.4696 60.2439M42.1319 53.5807C42.1472 54.3824 42.3361 56.2274 42.9694 57.1944M42.9694 57.1944C40.7914 55.6271 37.124 53.5264 34.8009 52.2366M37.5748 49.7643C37.7218 50.2572 38.0591 51.4963 38.2333 52.5097M38.2333 52.5097C38.6995 53.2268 39.2119 53.7958 39.6775 54.1134C39.9121 54.2734 40.1042 54.3208 40.2582 54.2729M38.2333 52.5097C37.5873 51.516 37.0301 50.238 36.8092 48.9505C36.6522 48.0359 36.9345 48.164 36.6497 47.9413M39.3872 43.167C38.5958 45.7628 37.6621 51.6182 40.2582 54.2729M32.7318 45.4168C33.2284 46.1502 33.8643 46.8447 34.6647 47.1546C35.2212 47.3701 35.9225 47.3771 35.9225 47.3771M32.7318 45.4168C32.3963 44.9213 32.1245 44.408 31.9086 43.9838C31.3734 42.9316 30.5281 44.2079 30.6789 46.0596C30.8297 47.9113 31.1715 50.268 32.8955 51.1942C33.2363 51.3773 33.9225 51.749 34.8009 52.2366M32.7318 45.4168C32.8878 43.9729 33.7322 40.9466 35.8626 40.3934C36.1494 40.3189 36.3797 40.2725 36.5616 40.2494M36.2445 41.4036C35.254 42.6773 33.8028 45.6553 35.9225 47.3771M36.2445 41.4036C35.9635 43.0268 35.5302 46.4046 36.0452 46.9304M36.2445 41.4036C36.9025 40.9127 37.731 40.1007 36.5616 40.2494M35.9225 47.3771C36.3127 47.6941 36.5307 47.8483 36.6497 47.9413M36.0452 46.9304C36.5602 47.4562 36.6628 47.8234 36.6497 47.9413M36.0452 46.9304C37.4392 44.2566 40.2628 38.6592 40.4055 37.6598C40.5838 36.4105 41.9114 35.5684 41.1995 34.7694C40.4877 33.9704 43.4069 33.9791 43.9334 33.8415M36.5616 40.2494C35.7037 39.3715 34.6248 37.2173 37.1727 35.6243C37.8742 35.1857 38.5713 34.702 39.2446 34.2323M44.63 32.3929C43.8769 31.3175 42.3388 32.1256 40.4944 33.3688M44.63 32.3929C44.5465 32.1289 44.4302 31.7832 44.2868 31.3935M42.9627 44.4278C43.2178 44.3605 43.4614 44.3325 43.6796 44.3462C44.7878 44.4154 44.7295 43.9087 45.2169 42.9632M42.9627 44.4278C45.1451 43.5583 41.1585 36.7192 43.1271 34.6955C43.4538 34.3597 43.7191 34.0776 43.9334 33.8415M46.3214 56.335C46.9096 55.7185 47.5859 55.0968 48.1306 54.6252M44.2571 47.0451C43.7944 47.1289 43.8487 48.6518 47.7671 54.0728L48.1306 54.6252M44.2571 47.0451C44.2915 47.6439 44.6491 49.0437 45.7867 50.0869M44.2571 47.0451C44.4401 47.2725 44.705 47.6404 44.9643 48.0716M45.7867 50.0869C45.6948 49.4355 45.3353 48.6886 44.9643 48.0716M46.9294 49.9204C47.6021 51.0726 49.1425 53.3872 49.9225 53.4287M49.9225 53.4287C50.2671 53.2255 50.6217 53.0233 50.963 52.8388M48.0427 48.8685C48.5484 50.2694 49.8405 53.0247 50.963 52.8388M45.2169 42.9632C46.1539 42.3155 48.0764 41.2145 48.2695 41.9916C48.511 42.963 48.2548 44.2505 47.181 45.0114C46.1072 45.7723 45.087 45.764 44.9643 48.0716M37.3704 31.3037C38.255 32.0999 39.8681 33.8002 39.2446 34.2323M39.2446 34.2323C39.4542 34.0861 39.6614 33.9412 39.8658 33.7995M38.7878 32.1457C39.3542 32.5527 40.3627 33.4533 39.8658 33.7995M39.8658 33.7995C40.0787 33.6519 40.2885 33.5076 40.4944 33.3688M40.4944 33.3688C40.7401 32.1968 40.5824 29.694 37.987 29.0594C35.3915 28.4248 32.3836 27.2511 31.2041 26.7435C30.8575 26.7424 30.3036 26.8112 29.6482 27.0061M19.6117 37.7344C21.0626 37.8544 20.9927 36.3085 21.1468 35.7475C21.2587 35.3399 21.6939 35.3395 22.1322 35.761M19.6117 37.7344C19.2734 37.7064 18.9113 37.7649 18.5472 37.8996M19.6117 37.7344C17.9555 38.4822 17.9805 41.4717 18.2001 42.873M19.2821 53.3378C20.074 53.6559 21.9951 54.3848 23.3441 54.7554M19.2821 53.3378C19.0493 52.2551 18.6558 51.5093 18.1983 50.9281M19.2821 53.3378C15.6877 52.627 18.0557 53.0009 11.6967 49.1421C10.2492 48.2637 9.39762 47.9854 8.96096 48.0957M23.3441 54.7554C25.0304 55.2186 24.1475 56.0321 25.5263 57.0143C26.9052 57.9965 27.6958 57.3085 30.4696 58.8248C31.2062 59.2275 31.9624 59.5717 32.6994 59.8864M23.3441 54.7554C23.3188 54.6485 23.2609 54.5317 23.1756 54.4074M43.8844 64.0055C44.01 64.7811 38.8206 63.8344 37.5573 62.4313C36.6296 61.4009 34.7376 60.7566 32.6994 59.8864M19.2887 48.5123C17.9053 46.674 15.8201 41.9779 18.5472 37.8996M18.5472 37.8996C17.7646 38.1889 16.9724 38.8297 16.3854 39.7193M23.8583 31.5141C23.8433 31.6341 23.8378 31.7782 23.8357 31.9604C23.8216 33.212 23.1555 37.4373 22.6114 36.4171C22.4626 36.1381 22.2972 35.9197 22.1322 35.761M23.8583 31.5141C23.2599 32.3348 22.077 34.3333 22.1322 35.761M23.8583 31.5141C23.9167 31.0455 24.1188 30.9417 24.8181 30.3564M31.1631 28.6934C30.4276 27.9885 28.5506 26.9498 26.9265 28.4346M26.9265 28.4346C26.7138 28.6055 26.5036 28.7925 26.2985 28.9969C25.6488 29.6444 25.1704 30.0615 24.8181 30.3564M26.9265 28.4346C27.8541 27.6891 28.8301 27.2494 29.6482 27.0061M34.3823 29.5778C33.7427 28.7054 31.9004 26.9699 29.6482 27.0061M18.1983 50.9281C17.233 49.702 15.9825 49.2082 15.355 47.8281C14.4301 45.7938 15.04 43.5737 15.6565 41.3294C15.8204 40.7329 16.074 40.1911 16.3854 39.7193M18.1983 50.9281C19.6448 51.6861 22.4371 53.331 23.1756 54.4074M23.1756 54.4074C24.5604 54.8884 27.6669 56.0636 29.0153 56.9168C30.7008 57.9832 31.6976 57.9553 32.0058 56.8332C32.2525 55.9354 33.2942 57.1003 33.7843 57.7949C34.7654 58.4887 36.498 59.5402 38.0411 60.0701M40.4696 60.2439C39.8829 60.5268 38.9984 60.3988 38.0411 60.0701M32.6994 59.8864C34.8154 60.3199 38.846 60.9635 38.0411 60.0701M10.6563 52.9293C10.1576 53.1443 8.53225 52.9794 6.0205 50.5998C5.23968 50.2413 3.34079 49.4317 1.99176 49.0611M10.6563 52.9293C9.38795 51.1059 7.86309 48.3729 8.96096 48.0957M1.99176 49.0611C3.83136 49.5665 6.29126 47.6137 7.29126 46.5741M1.99176 49.0611C1.60729 48.9555 1.3769 48.601 1.2635 48.1112M16.3854 39.7193C15.7333 40.3448 13.8469 41.315 11.5174 40.1923C8.6056 38.7889 12.6211 40.9759 8.80424 40.4665C4.98738 39.9571 3.80812 42.4493 2.69567 42.8979C1.83685 43.2443 0.879527 46.453 1.2635 48.1112M6.83637 42.8286C5.22151 43.1057 1.84613 44.5501 1.2635 48.1112M1.2635 48.1112C1.02891 47.5842 2.93588 46.2492 3.91869 45.6476M31.9612 48.2222C32.4456 49.3011 33.6916 51.6146 34.8009 52.2366M14.5344 52.5068C13.0807 50.8983 9.93082 47.7642 8.96096 48.0957M8.96096 48.0957C9.80818 47.7306 11.4422 50.3338 12.1533 51.6811M31.7294 62.6406C35.4776 64.6003 43.2988 67.9378 44.5978 65.6097M24.8181 30.3564C24.0647 29.3364 22.8256 26.4143 23.7371 22.7311M39.4998 16.3506C40.1392 19.7847 42.5425 23.0698 43.6642 24.2831M39.4998 16.3506C39.0267 13.8095 37.8552 11.0764 36.5967 8.91411M39.4998 16.3506C39.6736 15.8721 39.8659 15.3099 40.0619 14.6948M43.6642 24.2831C43.7601 23.8396 43.8707 23.3679 43.996 22.8657M43.6642 24.2831C43.5477 24.8222 43.4531 25.3197 43.381 25.7798M30.1084 15.1284C29.0708 13.5041 26.5905 10.4101 24.9696 11.0289M24.9696 11.0289C24.0875 11.406 23.4796 11.8145 23.9765 12.0862C25.0857 12.6925 24.4741 14.0332 24.1731 17.4201C23.8722 20.807 25.1208 17.6804 23.8106 22.4496C23.7847 22.5439 23.7603 22.6378 23.7371 22.7311M24.9696 11.0289C25.6628 10.7326 26.5252 10.4555 27.1539 10.2795C27.1341 9.48946 27.1991 8.14295 27.5219 7.47853M31.3348 15.4653C29.823 13.7929 26.9439 9.85414 27.5219 7.47853M27.5219 7.47853C27.6485 7.21793 27.8148 7.06226 28.0312 7.08626C28.4192 7.1293 29.1799 6.59979 30.07 6.06655M35.2502 12.0153C34.2233 9.21891 31.7496 4.11428 30.07 6.06655M30.07 6.06655C30.6308 5.73065 31.2428 5.39327 31.8454 5.19658M34.623 8.89712C34.4253 7.41107 33.5929 4.59048 31.8454 5.19658M31.8454 5.19658C32.653 4.93299 33.4436 4.92211 34.0707 5.50618C34.8206 6.20459 35.7293 7.4238 36.5967 8.91411M36.5967 8.91411C35.9714 8.18966 35.342 6.63988 37.8269 6.23636C40.3119 5.83284 40.1926 5.22682 39.8223 4.97426C39.6955 4.23543 39.7864 3.1843 41.1643 4.89034M41.1643 4.89034C42.0915 6.03832 41.5284 9.42255 40.7169 12.461M41.1643 4.89034C41.2559 3.35667 42.2133 0.471828 45.3101 1.20188C48.4069 1.93192 49.0521 2.98413 48.9876 3.41897C49.0512 3.56481 49.185 3.75096 49.3968 3.9041M37.8621 8.50885C38.7178 10.2022 40.3557 13.81 40.0619 14.6948M40.0619 14.6948C40.2826 14.0025 40.5079 13.2432 40.7169 12.461M39.473 8.04626C40.0984 8.93083 41.2227 11.0522 40.7169 12.461M43.3457 7.75243C42.7289 10.1978 41.5713 15.5318 41.8756 17.305C42.2558 19.5215 43.6747 21.5706 44.3249 21.5984M44.3249 21.5984C44.3742 21.4148 44.425 21.2276 44.4774 21.0368C44.54 20.8091 44.6094 20.5826 44.685 20.3575M44.3249 21.5984C44.206 22.0413 44.0963 22.4633 43.996 22.8657M41.0353 14.9622C41.0916 17.0393 41.7625 21.5279 43.996 22.8657M43.1006 18.247C43.1224 19.0185 43.4699 20.5208 44.685 20.3575M44.685 20.3575C46.1462 16.0077 49.9205 12.203 51.2393 10.826C51.5984 10.4511 52.2681 9.93426 53.0741 9.36896M37.0069 17.0235C37.3372 18.4217 38.3424 21.5238 39.721 22.7473C41.4442 24.2767 43.3221 25.4893 43.2663 26.657M43.2663 26.657C43.2943 26.3806 43.3326 26.0886 43.381 25.7798M43.2663 26.657C43.2575 26.7437 43.2498 26.8288 43.243 26.9124M37.8268 22.9813C38.6533 23.7111 40.5726 25.6061 41.6383 27.3471C42.9705 29.5233 42.7765 29.9226 43.8149 30.2079M43.8149 30.2079C43.741 30.0364 43.6638 29.8636 43.5836 29.6918C43.5098 29.5335 43.4471 29.3659 43.3954 29.1875M43.8149 30.2079C43.993 30.6212 44.1519 31.0269 44.2868 31.3935M41.7661 28.7399C42.1513 29.7006 43.1947 31.5763 44.2868 31.3935M25.6111 27.4699C24.8273 26.5003 23.3552 24.1951 23.7371 22.7311M48.6026 15.6833C47.1001 18.2696 44.288 23.2772 43.5578 25.159M43.381 25.7798C43.3843 25.6574 43.4471 25.4441 43.5578 25.159M43.243 26.9124C44.3573 24.9961 47.3831 21.3825 50.5717 22.2584C50.7812 22.316 50.9825 22.3834 51.1759 22.4597M43.243 26.9124C43.1686 27.8333 43.2173 28.5739 43.3954 29.1875M55.8591 32.6115C56.4952 32.0621 55.7635 29.1658 55.3181 27.7863C55.1803 26.983 54.7319 25.6781 53.8389 24.5137M45.6259 22.2575C44.9768 23.3363 43.6544 25.4269 43.5578 25.159M46.7334 25.428C45.4808 26.3411 43.0597 28.3712 43.3954 29.1875M52.093 31.1243C52.6833 29.3757 53.7492 25.5753 53.2909 24.3632C52.8325 23.151 51.6899 22.5891 51.1759 22.4597M51.1759 22.4597C52.3262 22.913 53.1973 23.6771 53.8389 24.5137M53.6073 30.4131C54.0962 28.8615 54.827 25.5093 53.8389 24.5137M52.2774 5.24683C52.4331 4.67987 52.4195 3.64925 51.119 4.06247C50.3089 4.31983 49.7465 4.15698 49.3968 3.9041M52.2774 5.24683C52.3039 5.75064 52.4947 6.85647 53.0462 7.24933C53.7357 7.74041 53.8357 8.81766 53.0741 9.36896M52.2774 5.24683C53.7112 4.62869 56.7401 3.16519 57.3855 2.25632C58.0309 1.34745 60.5696 0.868196 61.7583 0.74218C62.1715 0.625628 62.8396 0.574899 63.5636 0.772195M53.0741 9.36896C54.7589 8.18736 57.0394 6.79393 58.324 6.04178C58.4798 6.08459 58.6677 6.13153 58.876 6.17785M69.1285 4.52066C69.3777 4.32203 69.6361 4.1103 69.9016 3.88437C72.0463 2.05984 73.1392 4.92463 72.8695 5.90652C72.7922 6.18779 73.0028 6.39581 73.3529 6.54738M69.1285 4.52066C67.3656 5.92606 66.0635 6.67611 65.9284 7.16771C65.7743 7.72878 65.3078 8.82645 64.2347 8.53165C63.3762 8.29582 63.1118 9.61849 63.0869 10.3093C63.1128 11.2152 62.9497 12.4891 62.09 10.3372C61.814 10.1415 61.5202 9.53084 62.5524 8.65396C63.8427 7.55785 63.0313 5.71043 62.0573 6.25512C61.7485 6.4278 61.2426 6.4698 60.6871 6.44185M69.1285 4.52066C68.9015 4.69324 68.5084 4.82808 68.0297 4.71618M64.4707 7.67239C65.3213 6.64115 67.2239 4.60616 68.0297 4.71618M68.0297 4.71618C67.4456 4.57961 66.7342 4.07555 66.042 2.82407C65.989 2.72818 65.9344 2.63622 65.8785 2.54805M63.5158 5.14718C64.3861 4.77965 66.0771 3.74527 65.8785 2.54805M65.8785 2.54805C65.2138 1.50047 64.3553 0.987983 63.5636 0.772195M57.0002 3.65899C58.8699 2.45405 62.8003 0.189783 63.5636 0.772195M48.6068 7.38745C49.1647 6.41219 50.1039 4.35015 49.3968 3.9041M54.8456 9.10134C55.9993 8.08884 58.4205 6.08665 58.876 6.17785M58.876 6.17785C59.4099 6.29657 60.0783 6.41121 60.6871 6.44185M58.3363 7.79741C59.0146 7.12868 60.4344 5.92134 60.6871 6.44185M73.1334 9.147C72.7866 8.18212 72.345 6.31137 73.3529 6.54738M73.3529 6.54738C73.7613 6.72422 74.3595 6.82422 74.9118 6.87407M75.0844 12.2475C74.553 10.581 73.7745 7.17336 74.9118 6.87407M78.1554 9.47059C77.9012 10.3958 77.3419 12.4317 77.1383 13.1729M77.1383 13.1729L76.7777 11.937M79.1531 8.83953C79.1313 9.3535 78.9659 10.5711 78.4792 11.3296M77.4376 10.0277C77.0667 10.3642 76.4154 11.217 76.7777 11.937" stroke="#1A1A19" stroke-width="0.5"/>
</svg>
