<svg width="25" height="25" viewBox="0 0 25 25" fill="none" xmlns="http://www.w3.org/2000/svg">
<g clip-path="url(#clip0_67_283)">
<path d="M10.0721 12.8118C10.0721 14.2845 11.266 15.4784 12.7388 15.4784C14.2115 15.4784 15.4054 14.2845 15.4054 12.8118C15.4054 11.339 14.2115 10.1451 12.7388 10.1451C11.266 10.1451 10.0721 11.339 10.0721 12.8118Z" fill="#FFFEFA"/>
<path fill-rule="evenodd" clip-rule="evenodd" d="M15.9714 6.29986C15.1278 6.26136 14.8748 6.25323 12.7388 6.25323C10.6027 6.25323 10.3496 6.26136 9.50604 6.29986C8.72607 6.33545 8.30248 6.46576 8.02058 6.5753C7.64717 6.72042 7.38067 6.89379 7.1007 7.17373C6.82077 7.45367 6.64739 7.7202 6.5023 8.09357C6.39274 8.37548 6.26242 8.79907 6.22683 9.57904C6.18833 10.4226 6.1802 10.6757 6.1802 12.8118C6.1802 14.9478 6.18833 15.2008 6.22683 16.0444C6.26242 16.8244 6.39274 17.248 6.5023 17.5299C6.64739 17.9033 6.82077 18.1698 7.1007 18.4497C7.38067 18.7297 7.64717 18.903 8.02058 19.0481C8.30248 19.1577 8.72607 19.288 9.50604 19.3236C10.3495 19.3621 10.6025 19.3702 12.7388 19.3702C14.875 19.3702 15.128 19.3621 15.9714 19.3236C16.7514 19.288 17.175 19.1577 17.4569 19.0481C17.8303 18.903 18.0968 18.7297 18.3767 18.4497C18.6567 18.1698 18.83 17.9033 18.9751 17.5299C19.0847 17.248 19.215 16.8244 19.2506 16.0444C19.2891 15.2008 19.2972 14.9478 19.2972 12.8118C19.2972 10.6757 19.2891 10.4226 19.2506 9.57904C19.215 8.79907 19.0847 8.37548 18.9751 8.09357C18.83 7.7202 18.6567 7.45367 18.3767 7.17373C18.0968 6.89379 17.8303 6.72042 17.4569 6.5753C17.175 6.46576 16.7514 6.33545 15.9714 6.29986ZM8.63069 12.8118C8.63069 10.5429 10.4699 8.70364 12.7388 8.70364C15.0076 8.70364 16.8469 10.5429 16.8469 12.8118C16.8469 15.0806 15.0076 16.9198 12.7388 16.9198C10.4699 16.9198 8.63069 15.0806 8.63069 12.8118ZM17.9691 8.54132C17.9691 9.07154 17.5393 9.50132 17.0091 9.50132C16.4789 9.50132 16.0491 9.07154 16.0491 8.54132C16.0491 8.01114 16.4789 7.58135 17.0091 7.58135C17.5393 7.58135 17.9691 8.01114 17.9691 8.54132Z" fill="#FFFEFA"/>
<path fill-rule="evenodd" clip-rule="evenodd" d="M24.7388 12.8118C24.7388 19.4392 19.3662 24.8118 12.7388 24.8118C6.11135 24.8118 0.73877 19.4392 0.73877 12.8118C0.73877 6.18435 6.11135 0.811768 12.7388 0.811768C19.3662 0.811768 24.7388 6.18435 24.7388 12.8118ZM9.44035 4.85992C10.2936 4.82099 10.5661 4.81177 12.7388 4.81177C14.9114 4.81177 15.1838 4.82099 16.0371 4.85992C16.8886 4.89877 17.4701 5.03399 17.979 5.23177C18.5051 5.4362 18.9512 5.70977 19.396 6.15451C19.8407 6.59923 20.1143 7.04539 20.3187 7.57145C20.5165 8.08029 20.6517 8.66185 20.6905 9.51335C20.7295 10.3666 20.7387 10.6391 20.7387 12.8118C20.7387 14.9844 20.7295 15.2568 20.6905 16.1101C20.6517 16.9616 20.5165 17.5431 20.3187 18.052C20.1143 18.5781 19.8407 19.0242 19.396 19.469C18.9512 19.9137 18.5051 20.1873 17.979 20.3917C17.4701 20.5895 16.8886 20.7247 16.0371 20.7635C15.1838 20.8025 14.9114 20.8117 12.7388 20.8117C10.5661 20.8117 10.2936 20.8025 9.44035 20.7635C8.58886 20.7247 8.00729 20.5895 7.49842 20.3917C6.97236 20.1873 6.5262 19.9137 6.08149 19.469C5.63674 19.0242 5.36317 18.5781 5.15874 18.052C4.96096 17.5431 4.82574 16.9616 4.78689 16.1101C4.74796 15.2568 4.73877 14.9844 4.73877 12.8118C4.73877 10.6391 4.74796 10.3666 4.78689 9.51335C4.82574 8.66185 4.96096 8.08029 5.15874 7.57145C5.36317 7.04539 5.63674 6.59923 6.08149 6.15451C6.5262 5.70977 6.97236 5.4362 7.49842 5.23177C8.00729 5.03399 8.58886 4.89877 9.44035 4.85992Z" fill="#FFFEFA"/>
</g>
<defs>
<clipPath id="clip0_67_283">
<rect width="24" height="24" fill="white" transform="translate(0.73877 0.811768)"/>
</clipPath>
</defs>
</svg>
