<svg width="25" height="25" viewBox="0 0 25 25" fill="none" xmlns="http://www.w3.org/2000/svg">
<g clip-path="url(#clip0_67_285)">
<path d="M12.7388 0.811768C19.3662 0.811768 24.7388 6.18435 24.7388 12.8118C24.7388 18.8013 20.3506 23.7658 14.6138 24.666V16.2805H17.4099L17.9419 12.8118H14.6138V10.5607C14.6138 10.3059 14.6473 10.0529 14.7252 9.81895C14.9011 9.29061 15.3035 8.86008 16.0573 8.72837C16.2127 8.70122 16.383 8.68677 16.5693 8.68677H18.0825V5.73364C18.0825 5.73364 16.7093 5.49927 15.3963 5.49927C12.6553 5.49927 10.8638 7.16052 10.8638 10.168V12.8118H7.81689V16.2805H10.8638V24.666C5.12702 23.7658 0.73877 18.8013 0.73877 12.8118C0.73877 6.18435 6.11135 0.811768 12.7388 0.811768Z" fill="#FFFEFA"/>
</g>
<defs>
<clipPath id="clip0_67_285">
<rect width="24" height="24" fill="white" transform="translate(0.73877 0.811768)"/>
</clipPath>
</defs>
</svg>
