<svg width="26" height="25" viewBox="0 0 26 25" fill="none" xmlns="http://www.w3.org/2000/svg">
<circle cx="13.7388" cy="12.8118" r="12" fill="#FFFEFA"/>
<path d="M11.1996 5.23311V14.7132C11.4953 14.966 12.2077 15.5222 12.6916 15.7244C13.1755 15.9267 13.2158 15.6963 13.1755 15.5559C13.1755 14.6795 13.283 13.8424 13.3368 13.5335C13.6594 12.438 14.1836 11.9745 14.9094 11.4268C15.6353 10.879 16.8047 10.879 17.8934 11.4268C18.9822 11.9745 19.6677 13.3649 19.708 14.2919C19.7484 15.2188 19.708 16.3143 18.8612 17.4519C18.0144 18.5895 16.5224 18.7159 15.474 18.7159C14.6352 18.7159 13.0008 17.8733 12.2884 17.4519L10.3931 16.0194C9.86891 15.584 8.7237 14.6542 8.33659 14.4183C7.8527 14.1233 6.48167 13.6599 5.35256 13.6599C4.22345 13.6599 2.85249 14.2919 2.36859 14.7132C1.8847 15.1346 1.32013 15.9351 0.91689 16.6514C0.594296 17.2244 0.782476 17.5362 0.91689 17.6204C1.27981 17.6064 2.10242 17.5867 2.48954 17.6204C2.87665 17.6542 3.10784 17.3255 3.17505 17.157C3.30946 16.9323 3.62668 16.4407 3.82024 16.2722C4.06218 16.0615 4.4251 15.7666 5.35256 15.6823C6.09453 15.6149 7.43598 16.4126 8.01396 16.8199C8.10805 16.862 8.7398 17.3002 10.5141 18.7159C12.2883 20.1316 13.8341 20.5979 14.3852 20.6541C15.0976 20.8226 16.9902 21.0347 18.7402 20.2327C21.0387 19.1794 21.5226 16.862 21.6839 16.1458C21.942 13.7526 21.2269 12.0026 20.8371 11.4268C19.8606 9.7083 18.228 8.94088 16.5224 8.94088C14.9094 8.94088 13.7266 9.60098 13.1755 10.0364V5.44377C13.1755 4.97188 12.9066 4.82581 12.7722 4.81177H11.8045C11.2883 4.81177 11.1862 5.09266 11.1996 5.23311Z" fill="black"/>
</svg>
