<svg width="231" height="34" viewBox="0 0 231 34" fill="none" xmlns="http://www.w3.org/2000/svg">
<g clip-path="url(#clip0_67_268)">
<rect x="0.657227" y="-0.000244141" width="33.2307" height="33.2307" rx="16.6154" transform="rotate(0.681838 0.657227 -0.000244141)" fill="black" fill-opacity="0.1"/>
<path d="M29.2375 25.5546C28.0552 27.1652 26.5673 28.5271 24.8586 29.5626C23.15 30.5981 21.2541 31.2869 19.2792 31.5897C17.3044 31.8925 15.2892 31.8033 13.3488 31.3274C11.4084 30.8514 9.58079 29.9979 7.97024 28.8155C6.35969 27.6332 4.99779 26.1453 3.96229 24.4366C2.9268 22.728 2.23798 20.8321 1.93517 18.8573C1.63237 16.8824 1.7215 14.8673 2.19749 12.9269C2.67348 10.9865 3.52699 9.15881 4.7093 7.54826C5.89162 5.93772 7.37957 4.57582 9.08822 3.54032C10.7969 2.50482 12.6927 1.816 14.6676 1.5132C16.6424 1.21039 18.6576 1.29953 20.598 1.77551C22.5384 2.2515 24.366 3.10501 25.9766 4.28733C27.5871 5.46964 28.949 6.9576 29.9845 8.66624C31.02 10.3749 31.7088 12.2708 32.0117 14.2456C32.3145 16.2205 32.2253 18.2356 31.7493 20.176C31.2733 22.1164 30.4198 23.9441 29.2375 25.5546L29.2375 25.5546Z" stroke="url(#paint0_linear_67_268)" stroke-width="0.628924"/>
<path d="M29.2375 25.5546C28.0552 27.1652 26.5673 28.5271 24.8586 29.5626C23.15 30.5981 21.2541 31.2869 19.2792 31.5897C17.3044 31.8925 15.2892 31.8033 13.3488 31.3274C11.4084 30.8514 9.58079 29.9979 7.97024 28.8155C6.35969 27.6332 4.99779 26.1453 3.96229 24.4366C2.9268 22.728 2.23798 20.8321 1.93517 18.8573C1.63237 16.8824 1.7215 14.8673 2.19749 12.9269C2.67348 10.9865 3.52699 9.15881 4.7093 7.54826C5.89162 5.93772 7.37957 4.57582 9.08822 3.54032C10.7969 2.50482 12.6927 1.816 14.6676 1.5132C16.6424 1.21039 18.6576 1.29953 20.598 1.77551C22.5384 2.2515 24.366 3.10501 25.9766 4.28733C27.5871 5.46964 28.949 6.9576 29.9845 8.66624C31.02 10.3749 31.7088 12.2708 32.0117 14.2456C32.3145 16.2205 32.2253 18.2356 31.7493 20.176C31.2733 22.1164 30.4198 23.9441 29.2375 25.5546L29.2375 25.5546Z" stroke="url(#paint1_radial_67_268)" stroke-width="0.628924" style="mix-blend-mode:overlay"/>
<path d="M29.2375 25.5546C28.0552 27.1652 26.5673 28.5271 24.8586 29.5626C23.15 30.5981 21.2541 31.2869 19.2792 31.5897C17.3044 31.8925 15.2892 31.8033 13.3488 31.3274C11.4084 30.8514 9.58079 29.9979 7.97024 28.8155C6.35969 27.6332 4.99779 26.1453 3.96229 24.4366C2.9268 22.728 2.23798 20.8321 1.93517 18.8573C1.63237 16.8824 1.7215 14.8673 2.19749 12.9269C2.67348 10.9865 3.52699 9.15881 4.7093 7.54826C5.89162 5.93772 7.37957 4.57582 9.08822 3.54032C10.7969 2.50482 12.6927 1.816 14.6676 1.5132C16.6424 1.21039 18.6576 1.29953 20.598 1.77551C22.5384 2.2515 24.366 3.10501 25.9766 4.28733C27.5871 5.46964 28.949 6.9576 29.9845 8.66624C31.02 10.3749 31.7088 12.2708 32.0117 14.2456C32.3145 16.2205 32.2253 18.2356 31.7493 20.176C31.2733 22.1164 30.4198 23.9441 29.2375 25.5546L29.2375 25.5546Z" stroke="#A48F64" stroke-width="0.628924" style="mix-blend-mode:color"/>
<g filter="url(#filter0_ii_67_268)">
<path d="M9.57729 10.9916C9.57092 11.527 9.7104 12.0181 9.99572 12.4651C10.2963 12.9123 10.6814 13.3376 11.1508 13.7409C11.6357 14.1291 12.1818 14.5104 12.7892 14.8847C13.3969 15.2438 14.0197 15.6107 14.6577 15.9854C15.3112 16.345 15.9416 16.7197 16.5488 17.1093C17.1562 17.4837 17.6945 17.8878 18.1635 18.3217C18.648 18.7405 19.0327 19.1963 19.3175 19.6892C19.6175 20.1823 19.764 20.7271 19.7569 21.3236C19.7502 21.8895 19.5987 22.4078 19.3025 22.8785C19.0217 23.3341 18.6269 23.7348 18.1179 24.0805C17.6092 24.411 16.9942 24.6714 16.273 24.8617C15.5672 25.0368 14.7861 25.1193 13.9296 25.1091C12.9201 25.0971 12.1031 24.9803 11.4786 24.7587C10.854 24.5371 10.3516 24.3323 9.97146 24.1442C9.60656 23.9563 9.3095 23.8533 9.08025 23.8353C8.86649 23.8022 8.65791 23.9756 8.45453 24.3556L8.52442 18.4823L8.73091 18.4848C8.71889 19.4943 8.76942 20.3897 8.8825 21.1712C9.01105 21.9376 9.25578 22.583 9.61667 23.1074C9.97756 23.6318 10.4852 24.0356 11.1396 24.3187C11.7942 24.5866 12.6415 24.7267 13.6816 24.739C14.4769 24.7485 15.1967 24.6806 15.8409 24.5353C16.4851 24.39 17.0229 24.1899 17.4542 23.935C17.9011 23.6649 18.2414 23.3477 18.4752 22.9834C18.7244 22.6039 18.8517 22.1924 18.857 21.7489C18.8652 21.0606 18.6125 20.4381 18.0991 19.8812C17.6009 19.3246 16.9723 18.797 16.2134 18.2985C15.4698 17.8001 14.6496 17.3085 13.7528 16.8236C12.8714 16.3389 12.0514 15.832 11.2928 15.3029C10.5497 14.7586 9.9218 14.1775 9.40905 13.5595C8.91178 12.9264 8.66788 12.2122 8.67735 11.4169C8.6839 10.8663 8.81991 10.3631 9.08539 9.90733C9.36634 9.43647 9.73824 9.03552 10.2011 8.70449C10.6792 8.37364 11.2406 8.12027 11.8852 7.94438C12.5452 7.75337 13.2653 7.66251 14.0453 7.67179C14.8712 7.68162 15.528 7.76592 16.0156 7.9247C16.5185 8.08366 16.9294 8.26446 17.2482 8.46712C17.5825 8.65466 17.8635 8.82627 18.0911 8.98195C18.334 9.13782 18.6084 9.21757 18.9143 9.22121L18.872 12.7773L18.6884 12.7751C18.6968 12.0715 18.5974 11.4279 18.3902 10.8441C18.183 10.2604 17.8753 9.75954 17.4673 9.34166C17.0745 8.92397 16.5735 8.60441 15.9643 8.383C15.3705 8.14648 14.6836 8.02357 13.9036 8.01429C13.2765 8.00683 12.6944 8.07639 12.1572 8.22297C11.6354 8.36973 11.1816 8.57849 10.796 8.84924C10.4105 9.10471 10.1085 9.4147 9.89001 9.77924C9.68681 10.1439 9.58257 10.5481 9.57729 10.9916ZM23.388 10.9495C23.0821 10.9458 22.831 10.8434 22.6345 10.6422C22.438 10.441 22.3416 10.1875 22.3452 9.88157C22.3491 9.56038 22.4516 9.30155 22.6528 9.10508C22.854 8.90861 23.1075 8.8122 23.4134 8.81584C23.7193 8.81948 23.9629 8.92181 24.144 9.12283C24.3252 9.32385 24.4139 9.58495 24.4101 9.90615C24.4064 10.212 24.3117 10.4633 24.1257 10.66C23.9398 10.8566 23.6939 10.9531 23.388 10.9495ZM23.9581 22.8192C23.9528 23.2627 23.9639 23.6147 23.9914 23.8751C24.0342 24.1356 24.1083 24.3354 24.2137 24.4743C24.3346 24.5981 24.5095 24.6843 24.7384 24.733C24.9675 24.7663 25.2732 24.7852 25.6556 24.7898L25.6531 24.9962L21.2252 24.9436L21.2277 24.7371C21.6101 24.7416 21.9161 24.73 22.1459 24.7021C22.3759 24.659 22.5451 24.5768 22.6537 24.4557C22.7777 24.3195 22.8565 24.1216 22.8902 23.862C22.9392 23.6025 22.9663 23.251 22.9716 22.8074L23.0497 16.2459C23.0549 15.8024 23.0362 15.4503 22.9934 15.1897C22.9659 14.9294 22.8918 14.7296 22.7711 14.5905C22.6656 14.4516 22.4984 14.3654 22.2693 14.3321C22.0405 14.2835 21.7348 14.2569 21.3525 14.2524L21.3549 14.0459C21.6923 13.9734 21.9834 13.9387 22.2281 13.9416C22.4728 13.9445 22.687 13.9394 22.8708 13.9263C23.0698 13.9133 23.2615 13.8697 23.446 13.7954C23.6304 13.7211 23.8387 13.5707 24.0709 13.344L23.9581 22.8192Z" fill="url(#paint2_linear_67_268)"/>
<path d="M9.57729 10.9916C9.57092 11.527 9.7104 12.0181 9.99572 12.4651C10.2963 12.9123 10.6814 13.3376 11.1508 13.7409C11.6357 14.1291 12.1818 14.5104 12.7892 14.8847C13.3969 15.2438 14.0197 15.6107 14.6577 15.9854C15.3112 16.345 15.9416 16.7197 16.5488 17.1093C17.1562 17.4837 17.6945 17.8878 18.1635 18.3217C18.648 18.7405 19.0327 19.1963 19.3175 19.6892C19.6175 20.1823 19.764 20.7271 19.7569 21.3236C19.7502 21.8895 19.5987 22.4078 19.3025 22.8785C19.0217 23.3341 18.6269 23.7348 18.1179 24.0805C17.6092 24.411 16.9942 24.6714 16.273 24.8617C15.5672 25.0368 14.7861 25.1193 13.9296 25.1091C12.9201 25.0971 12.1031 24.9803 11.4786 24.7587C10.854 24.5371 10.3516 24.3323 9.97146 24.1442C9.60656 23.9563 9.3095 23.8533 9.08025 23.8353C8.86649 23.8022 8.65791 23.9756 8.45453 24.3556L8.52442 18.4823L8.73091 18.4848C8.71889 19.4943 8.76942 20.3897 8.8825 21.1712C9.01105 21.9376 9.25578 22.583 9.61667 23.1074C9.97756 23.6318 10.4852 24.0356 11.1396 24.3187C11.7942 24.5866 12.6415 24.7267 13.6816 24.739C14.4769 24.7485 15.1967 24.6806 15.8409 24.5353C16.4851 24.39 17.0229 24.1899 17.4542 23.935C17.9011 23.6649 18.2414 23.3477 18.4752 22.9834C18.7244 22.6039 18.8517 22.1924 18.857 21.7489C18.8652 21.0606 18.6125 20.4381 18.0991 19.8812C17.6009 19.3246 16.9723 18.797 16.2134 18.2985C15.4698 17.8001 14.6496 17.3085 13.7528 16.8236C12.8714 16.3389 12.0514 15.832 11.2928 15.3029C10.5497 14.7586 9.9218 14.1775 9.40905 13.5595C8.91178 12.9264 8.66788 12.2122 8.67735 11.4169C8.6839 10.8663 8.81991 10.3631 9.08539 9.90733C9.36634 9.43647 9.73824 9.03552 10.2011 8.70449C10.6792 8.37364 11.2406 8.12027 11.8852 7.94438C12.5452 7.75337 13.2653 7.66251 14.0453 7.67179C14.8712 7.68162 15.528 7.76592 16.0156 7.9247C16.5185 8.08366 16.9294 8.26446 17.2482 8.46712C17.5825 8.65466 17.8635 8.82627 18.0911 8.98195C18.334 9.13782 18.6084 9.21757 18.9143 9.22121L18.872 12.7773L18.6884 12.7751C18.6968 12.0715 18.5974 11.4279 18.3902 10.8441C18.183 10.2604 17.8753 9.75954 17.4673 9.34166C17.0745 8.92397 16.5735 8.60441 15.9643 8.383C15.3705 8.14648 14.6836 8.02357 13.9036 8.01429C13.2765 8.00683 12.6944 8.07639 12.1572 8.22297C11.6354 8.36973 11.1816 8.57849 10.796 8.84924C10.4105 9.10471 10.1085 9.4147 9.89001 9.77924C9.68681 10.1439 9.58257 10.5481 9.57729 10.9916ZM23.388 10.9495C23.0821 10.9458 22.831 10.8434 22.6345 10.6422C22.438 10.441 22.3416 10.1875 22.3452 9.88157C22.3491 9.56038 22.4516 9.30155 22.6528 9.10508C22.854 8.90861 23.1075 8.8122 23.4134 8.81584C23.7193 8.81948 23.9629 8.92181 24.144 9.12283C24.3252 9.32385 24.4139 9.58495 24.4101 9.90615C24.4064 10.212 24.3117 10.4633 24.1257 10.66C23.9398 10.8566 23.6939 10.9531 23.388 10.9495ZM23.9581 22.8192C23.9528 23.2627 23.9639 23.6147 23.9914 23.8751C24.0342 24.1356 24.1083 24.3354 24.2137 24.4743C24.3346 24.5981 24.5095 24.6843 24.7384 24.733C24.9675 24.7663 25.2732 24.7852 25.6556 24.7898L25.6531 24.9962L21.2252 24.9436L21.2277 24.7371C21.6101 24.7416 21.9161 24.73 22.1459 24.7021C22.3759 24.659 22.5451 24.5768 22.6537 24.4557C22.7777 24.3195 22.8565 24.1216 22.8902 23.862C22.9392 23.6025 22.9663 23.251 22.9716 22.8074L23.0497 16.2459C23.0549 15.8024 23.0362 15.4503 22.9934 15.1897C22.9659 14.9294 22.8918 14.7296 22.7711 14.5905C22.6656 14.4516 22.4984 14.3654 22.2693 14.3321C22.0405 14.2835 21.7348 14.2569 21.3525 14.2524L21.3549 14.0459C21.6923 13.9734 21.9834 13.9387 22.2281 13.9416C22.4728 13.9445 22.687 13.9394 22.8708 13.9263C23.0698 13.9133 23.2615 13.8697 23.446 13.7954C23.6304 13.7211 23.8387 13.5707 24.0709 13.344L23.9581 22.8192Z" fill="url(#paint3_radial_67_268)" style="mix-blend-mode:overlay"/>
<path d="M9.57729 10.9916C9.57092 11.527 9.7104 12.0181 9.99572 12.4651C10.2963 12.9123 10.6814 13.3376 11.1508 13.7409C11.6357 14.1291 12.1818 14.5104 12.7892 14.8847C13.3969 15.2438 14.0197 15.6107 14.6577 15.9854C15.3112 16.345 15.9416 16.7197 16.5488 17.1093C17.1562 17.4837 17.6945 17.8878 18.1635 18.3217C18.648 18.7405 19.0327 19.1963 19.3175 19.6892C19.6175 20.1823 19.764 20.7271 19.7569 21.3236C19.7502 21.8895 19.5987 22.4078 19.3025 22.8785C19.0217 23.3341 18.6269 23.7348 18.1179 24.0805C17.6092 24.411 16.9942 24.6714 16.273 24.8617C15.5672 25.0368 14.7861 25.1193 13.9296 25.1091C12.9201 25.0971 12.1031 24.9803 11.4786 24.7587C10.854 24.5371 10.3516 24.3323 9.97146 24.1442C9.60656 23.9563 9.3095 23.8533 9.08025 23.8353C8.86649 23.8022 8.65791 23.9756 8.45453 24.3556L8.52442 18.4823L8.73091 18.4848C8.71889 19.4943 8.76942 20.3897 8.8825 21.1712C9.01105 21.9376 9.25578 22.583 9.61667 23.1074C9.97756 23.6318 10.4852 24.0356 11.1396 24.3187C11.7942 24.5866 12.6415 24.7267 13.6816 24.739C14.4769 24.7485 15.1967 24.6806 15.8409 24.5353C16.4851 24.39 17.0229 24.1899 17.4542 23.935C17.9011 23.6649 18.2414 23.3477 18.4752 22.9834C18.7244 22.6039 18.8517 22.1924 18.857 21.7489C18.8652 21.0606 18.6125 20.4381 18.0991 19.8812C17.6009 19.3246 16.9723 18.797 16.2134 18.2985C15.4698 17.8001 14.6496 17.3085 13.7528 16.8236C12.8714 16.3389 12.0514 15.832 11.2928 15.3029C10.5497 14.7586 9.9218 14.1775 9.40905 13.5595C8.91178 12.9264 8.66788 12.2122 8.67735 11.4169C8.6839 10.8663 8.81991 10.3631 9.08539 9.90733C9.36634 9.43647 9.73824 9.03552 10.2011 8.70449C10.6792 8.37364 11.2406 8.12027 11.8852 7.94438C12.5452 7.75337 13.2653 7.66251 14.0453 7.67179C14.8712 7.68162 15.528 7.76592 16.0156 7.9247C16.5185 8.08366 16.9294 8.26446 17.2482 8.46712C17.5825 8.65466 17.8635 8.82627 18.0911 8.98195C18.334 9.13782 18.6084 9.21757 18.9143 9.22121L18.872 12.7773L18.6884 12.7751C18.6968 12.0715 18.5974 11.4279 18.3902 10.8441C18.183 10.2604 17.8753 9.75954 17.4673 9.34166C17.0745 8.92397 16.5735 8.60441 15.9643 8.383C15.3705 8.14648 14.6836 8.02357 13.9036 8.01429C13.2765 8.00683 12.6944 8.07639 12.1572 8.22297C11.6354 8.36973 11.1816 8.57849 10.796 8.84924C10.4105 9.10471 10.1085 9.4147 9.89001 9.77924C9.68681 10.1439 9.58257 10.5481 9.57729 10.9916ZM23.388 10.9495C23.0821 10.9458 22.831 10.8434 22.6345 10.6422C22.438 10.441 22.3416 10.1875 22.3452 9.88157C22.3491 9.56038 22.4516 9.30155 22.6528 9.10508C22.854 8.90861 23.1075 8.8122 23.4134 8.81584C23.7193 8.81948 23.9629 8.92181 24.144 9.12283C24.3252 9.32385 24.4139 9.58495 24.4101 9.90615C24.4064 10.212 24.3117 10.4633 24.1257 10.66C23.9398 10.8566 23.6939 10.9531 23.388 10.9495ZM23.9581 22.8192C23.9528 23.2627 23.9639 23.6147 23.9914 23.8751C24.0342 24.1356 24.1083 24.3354 24.2137 24.4743C24.3346 24.5981 24.5095 24.6843 24.7384 24.733C24.9675 24.7663 25.2732 24.7852 25.6556 24.7898L25.6531 24.9962L21.2252 24.9436L21.2277 24.7371C21.6101 24.7416 21.9161 24.73 22.1459 24.7021C22.3759 24.659 22.5451 24.5768 22.6537 24.4557C22.7777 24.3195 22.8565 24.1216 22.8902 23.862C22.9392 23.6025 22.9663 23.251 22.9716 22.8074L23.0497 16.2459C23.0549 15.8024 23.0362 15.4503 22.9934 15.1897C22.9659 14.9294 22.8918 14.7296 22.7711 14.5905C22.6656 14.4516 22.4984 14.3654 22.2693 14.3321C22.0405 14.2835 21.7348 14.2569 21.3525 14.2524L21.3549 14.0459C21.6923 13.9734 21.9834 13.9387 22.2281 13.9416C22.4728 13.9445 22.687 13.9394 22.8708 13.9263C23.0698 13.9133 23.2615 13.8697 23.446 13.7954C23.6304 13.7211 23.8387 13.5707 24.0709 13.344L23.9581 22.8192Z" fill="#A48F64" style="mix-blend-mode:color"/>
</g>
<ellipse cx="23.319" cy="9.90816" rx="1.50013" ry="1.81051" fill="#1A1A19"/>
<path d="M22.9187 12.8605C22.3949 12.3985 21.6258 11.2361 21.2568 10.7148L22.4466 10.7149L22.9187 11.7777L23.3329 12.8163L22.9187 12.8605Z" fill="url(#paint4_linear_67_268)"/>
<path d="M22.9187 12.8605C22.3949 12.3985 21.6258 11.2361 21.2568 10.7148L22.4466 10.7149L22.9187 11.7777L23.3329 12.8163L22.9187 12.8605Z" fill="url(#paint5_radial_67_268)" style="mix-blend-mode:overlay"/>
<path d="M22.9187 12.8605C22.3949 12.3985 21.6258 11.2361 21.2568 10.7148L22.4466 10.7149L22.9187 11.7777L23.3329 12.8163L22.9187 12.8605Z" fill="#A48F64" style="mix-blend-mode:color"/>
</g>
<path d="M55.1859 19.881C55.8777 20.6835 56.2652 21.7351 56.2652 22.8696V23.174C56.0991 25.6369 53.9407 27.491 50.6753 27.491H43.9232V8.86727H49.7621C51.2011 8.86727 52.4187 9.31003 53.2765 10.0572C54.162 10.7767 54.6601 11.7729 54.6601 12.9075C54.6601 14.7892 53.5256 16.4219 50.8967 16.9754L48.0464 17.6118L52.391 18.3313C53.5256 18.4974 54.4941 19.0785 55.1859 19.881ZM45.3345 9.14399V17.9439L50.2048 16.837C51.9759 16.4219 53.2488 14.8446 53.2488 13.0182C53.2488 12.8521 53.2488 12.6861 53.2212 12.5201C52.9444 10.583 51.2287 9.14399 49.2363 9.14399H45.3345ZM53.5532 25.9136C54.3557 25.1111 54.8539 24.0042 54.8539 22.7866C54.8539 20.6005 53.2765 18.7464 51.118 18.3867L48.7935 18.0269C48.3785 17.9439 47.9357 17.9162 47.5206 17.9162C46.9395 17.9162 46.386 17.9716 45.8326 18.1099L45.3345 18.2206V27.2142H50.4262C51.6438 27.2142 52.7507 26.7161 53.5532 25.9136ZM66.7782 9.14399H62.738V17.8609H64.7304C65.7543 17.8609 67.47 17.8055 68.6322 16.8093V19.1615C67.304 18.1653 65.3945 18.1376 64.4537 18.1376H62.738V27.2142H66.7782C69.241 27.2142 70.7077 26.4117 71.7039 25.8306V27.491H61.3267V8.86727H71.7039V10.5276C70.7077 9.9465 69.241 9.14399 66.7782 9.14399ZM83.7605 10.1402L88.5202 27.491H87.0536L85.1442 20.5728C82.4876 21.1816 81.9341 22.4269 80.9933 24.53C80.3015 26.052 79.5266 27.574 77.8939 27.574H77.8109C77.2298 27.5463 76.8147 27.4356 76.538 27.1312C76.3166 26.9098 76.2059 26.6331 76.1782 26.3564C76.1782 26.3287 76.1506 26.3287 76.1506 26.3287C76.1229 26.1904 76.1229 26.052 76.1229 25.9136C76.1229 25.6369 76.1506 25.3325 76.2336 25.0834L80.3568 10.1402C80.6059 9.28236 81.3253 8.8396 82.0725 8.8396C82.792 8.8396 83.5392 9.28236 83.7605 10.1402ZM78.5858 26.3564C80.7442 23.5891 80.8272 21.486 85.0612 20.2961L82.2662 10.0572C82.1555 9.6421 81.8235 9.44839 81.4914 9.44839C81.1316 9.44839 80.7996 9.6421 80.6889 10.0572L76.6487 24.7237C76.538 25.0281 76.455 25.4709 76.455 25.886C76.455 26.2734 76.538 26.6054 76.7594 26.7992C76.9531 26.9375 77.1468 27.0205 77.3958 27.0205C77.8109 27.0205 78.2537 26.7715 78.5858 26.3564ZM103.764 8.86727H104.04V21.569C104.04 24.9451 101.633 27.6847 97.9248 27.6847C94.5764 27.6847 91.8368 24.9451 91.8368 21.569V8.86727H93.2482V21.569C93.2482 24.4746 95.3236 27.0759 98.506 27.0759C101.522 27.0759 103.764 24.5853 103.764 21.569V8.86727ZM108.471 8.86727H121.92V10.5276C120.951 9.9465 119.484 9.14399 117.022 9.14399H115.915V27.491H114.476V9.14399H113.369C110.906 9.14399 109.467 9.9465 108.471 10.5276V8.86727ZM138.052 8.86727H138.384L132.794 19.0785V27.491H131.383V19.5489L125.793 8.86727H127.426L132.628 18.8018L138.052 8.86727ZM163.719 22.8143C163.719 23.1464 163.663 23.4508 163.608 23.7552C163.248 25.1941 162.169 26.301 160.868 26.9098C159.734 27.4356 158.461 27.6017 157.216 27.6017C153.646 27.6017 151.515 25.2218 150.713 23.8658L152.096 22.7313C152.899 25.6369 155.168 27.3249 157.216 27.3249C159.485 27.3249 161.809 26.2457 162.141 23.7828C162.169 23.5891 162.169 23.3954 162.169 23.2294C162.169 21.3476 160.813 19.9917 159.125 19.2168L153.425 16.6433C152.594 16.2559 151.764 15.7854 151.266 14.9829C150.879 14.4018 150.685 13.71 150.685 13.0182C150.685 12.7138 150.74 12.437 150.796 12.1326C151.045 11.1088 151.736 10.3062 152.65 9.78047C153.425 9.31003 154.642 8.70123 157.216 8.70123C160.536 8.70123 162.197 10.1956 162.999 10.8874C162.999 10.8874 161.948 11.7729 161.837 11.9389C161.477 11.3301 160.453 9.00563 157.216 9.00563C154.199 9.00563 152.096 10.6937 152.096 12.7138C152.096 13.2119 152.207 13.71 152.484 14.1251C152.982 14.9276 153.895 15.2597 154.725 15.6194C155.666 16.0345 156.607 16.4772 157.548 16.8923C158.821 17.4735 160.26 17.9716 161.422 18.7187C162.778 19.5766 163.719 21.1816 163.719 22.8143ZM179.526 10.3062C180.356 11.1641 180.523 12.271 180.523 13.1565V13.3779C180.467 14.4848 180.08 15.315 179.526 15.9238C179.139 16.3389 178.641 16.671 178.115 16.92C176.925 17.5011 175.486 17.6948 174.296 17.8609C173.66 17.9439 172.691 18.0269 171.723 18.5527C171.391 18.7187 171.058 18.9401 170.726 19.2445C169.979 19.881 169.564 20.8495 169.564 21.8181V27.491H168.153V8.86727H174.767C176.206 8.86727 177.285 9.06098 178.115 9.39305C178.724 9.6421 179.167 9.9465 179.526 10.3062ZM178.115 15.7024C178.696 15.0936 179.028 14.2911 179.028 13.2119C179.028 11.8006 178.696 10.8874 178.115 10.2786C177.174 9.28236 175.624 9.14399 173.964 9.14399H169.564V20.1577C170.311 18.9401 171.474 18.3036 172.276 17.9716C172.608 17.8609 173.162 17.7502 173.217 17.7225C174.988 17.3628 176.98 16.8923 178.115 15.7024ZM189.857 10.1402L194.617 27.491H193.15L191.241 20.5728C188.584 21.1816 188.031 22.4269 187.09 24.53C186.398 26.052 185.623 27.574 183.99 27.574H183.907C183.326 27.5463 182.911 27.4356 182.635 27.1312C182.413 26.9098 182.302 26.6331 182.275 26.3564C182.275 26.3287 182.247 26.3287 182.247 26.3287C182.219 26.1904 182.219 26.052 182.219 25.9136C182.219 25.6369 182.247 25.3325 182.33 25.0834L186.453 10.1402C186.702 9.28236 187.422 8.8396 188.169 8.8396C188.889 8.8396 189.636 9.28236 189.857 10.1402ZM184.682 26.3564C186.841 23.5891 186.924 21.486 191.158 20.2961L188.363 10.0572C188.252 9.6421 187.92 9.44839 187.588 9.44839C187.228 9.44839 186.896 9.6421 186.785 10.0572L182.745 24.7237C182.635 25.0281 182.551 25.4709 182.551 25.886C182.551 26.2734 182.635 26.6054 182.856 26.7992C183.05 26.9375 183.243 27.0205 183.492 27.0205C183.907 27.0205 184.35 26.7715 184.682 26.3564ZM206.131 27.1312C206.325 27.1312 206.518 27.1589 206.712 27.1589C208.649 27.1589 210.808 26.4948 212.662 24.447L212.883 24.613C211.223 26.4948 208.843 27.6017 206.159 27.6017C201.15 27.6017 197.11 23.6721 197.11 18.1653C197.11 12.6584 201.15 8.7289 206.159 8.7289C209.562 8.7289 211.804 10.2509 213.049 12.8521L211.915 13.4886C210.974 10.749 209.396 9.00563 206.159 9.00563C202.063 9.00563 198.742 12.8245 198.742 18.1653C198.742 23.5061 202.063 26.9098 206.131 27.1312ZM222.923 9.14399H218.883V17.8609H220.876C221.899 17.8609 223.615 17.8055 224.777 16.8093V19.1615C223.449 18.1653 221.54 18.1376 220.599 18.1376H218.883V27.2142H222.923C225.386 27.2142 226.853 26.4117 227.849 25.8306V27.491H217.472V8.86727H227.849V10.5276C226.853 9.9465 225.386 9.14399 222.923 9.14399Z" fill="url(#paint6_linear_67_268)"/>
<path d="M55.1859 19.881C55.8777 20.6835 56.2652 21.7351 56.2652 22.8696V23.174C56.0991 25.6369 53.9407 27.491 50.6753 27.491H43.9232V8.86727H49.7621C51.2011 8.86727 52.4187 9.31003 53.2765 10.0572C54.162 10.7767 54.6601 11.7729 54.6601 12.9075C54.6601 14.7892 53.5256 16.4219 50.8967 16.9754L48.0464 17.6118L52.391 18.3313C53.5256 18.4974 54.4941 19.0785 55.1859 19.881ZM45.3345 9.14399V17.9439L50.2048 16.837C51.9759 16.4219 53.2488 14.8446 53.2488 13.0182C53.2488 12.8521 53.2488 12.6861 53.2212 12.5201C52.9444 10.583 51.2287 9.14399 49.2363 9.14399H45.3345ZM53.5532 25.9136C54.3557 25.1111 54.8539 24.0042 54.8539 22.7866C54.8539 20.6005 53.2765 18.7464 51.118 18.3867L48.7935 18.0269C48.3785 17.9439 47.9357 17.9162 47.5206 17.9162C46.9395 17.9162 46.386 17.9716 45.8326 18.1099L45.3345 18.2206V27.2142H50.4262C51.6438 27.2142 52.7507 26.7161 53.5532 25.9136ZM66.7782 9.14399H62.738V17.8609H64.7304C65.7543 17.8609 67.47 17.8055 68.6322 16.8093V19.1615C67.304 18.1653 65.3945 18.1376 64.4537 18.1376H62.738V27.2142H66.7782C69.241 27.2142 70.7077 26.4117 71.7039 25.8306V27.491H61.3267V8.86727H71.7039V10.5276C70.7077 9.9465 69.241 9.14399 66.7782 9.14399ZM83.7605 10.1402L88.5202 27.491H87.0536L85.1442 20.5728C82.4876 21.1816 81.9341 22.4269 80.9933 24.53C80.3015 26.052 79.5266 27.574 77.8939 27.574H77.8109C77.2298 27.5463 76.8147 27.4356 76.538 27.1312C76.3166 26.9098 76.2059 26.6331 76.1782 26.3564C76.1782 26.3287 76.1506 26.3287 76.1506 26.3287C76.1229 26.1904 76.1229 26.052 76.1229 25.9136C76.1229 25.6369 76.1506 25.3325 76.2336 25.0834L80.3568 10.1402C80.6059 9.28236 81.3253 8.8396 82.0725 8.8396C82.792 8.8396 83.5392 9.28236 83.7605 10.1402ZM78.5858 26.3564C80.7442 23.5891 80.8272 21.486 85.0612 20.2961L82.2662 10.0572C82.1555 9.6421 81.8235 9.44839 81.4914 9.44839C81.1316 9.44839 80.7996 9.6421 80.6889 10.0572L76.6487 24.7237C76.538 25.0281 76.455 25.4709 76.455 25.886C76.455 26.2734 76.538 26.6054 76.7594 26.7992C76.9531 26.9375 77.1468 27.0205 77.3958 27.0205C77.8109 27.0205 78.2537 26.7715 78.5858 26.3564ZM103.764 8.86727H104.04V21.569C104.04 24.9451 101.633 27.6847 97.9248 27.6847C94.5764 27.6847 91.8368 24.9451 91.8368 21.569V8.86727H93.2482V21.569C93.2482 24.4746 95.3236 27.0759 98.506 27.0759C101.522 27.0759 103.764 24.5853 103.764 21.569V8.86727ZM108.471 8.86727H121.92V10.5276C120.951 9.9465 119.484 9.14399 117.022 9.14399H115.915V27.491H114.476V9.14399H113.369C110.906 9.14399 109.467 9.9465 108.471 10.5276V8.86727ZM138.052 8.86727H138.384L132.794 19.0785V27.491H131.383V19.5489L125.793 8.86727H127.426L132.628 18.8018L138.052 8.86727ZM163.719 22.8143C163.719 23.1464 163.663 23.4508 163.608 23.7552C163.248 25.1941 162.169 26.301 160.868 26.9098C159.734 27.4356 158.461 27.6017 157.216 27.6017C153.646 27.6017 151.515 25.2218 150.713 23.8658L152.096 22.7313C152.899 25.6369 155.168 27.3249 157.216 27.3249C159.485 27.3249 161.809 26.2457 162.141 23.7828C162.169 23.5891 162.169 23.3954 162.169 23.2294C162.169 21.3476 160.813 19.9917 159.125 19.2168L153.425 16.6433C152.594 16.2559 151.764 15.7854 151.266 14.9829C150.879 14.4018 150.685 13.71 150.685 13.0182C150.685 12.7138 150.74 12.437 150.796 12.1326C151.045 11.1088 151.736 10.3062 152.65 9.78047C153.425 9.31003 154.642 8.70123 157.216 8.70123C160.536 8.70123 162.197 10.1956 162.999 10.8874C162.999 10.8874 161.948 11.7729 161.837 11.9389C161.477 11.3301 160.453 9.00563 157.216 9.00563C154.199 9.00563 152.096 10.6937 152.096 12.7138C152.096 13.2119 152.207 13.71 152.484 14.1251C152.982 14.9276 153.895 15.2597 154.725 15.6194C155.666 16.0345 156.607 16.4772 157.548 16.8923C158.821 17.4735 160.26 17.9716 161.422 18.7187C162.778 19.5766 163.719 21.1816 163.719 22.8143ZM179.526 10.3062C180.356 11.1641 180.523 12.271 180.523 13.1565V13.3779C180.467 14.4848 180.08 15.315 179.526 15.9238C179.139 16.3389 178.641 16.671 178.115 16.92C176.925 17.5011 175.486 17.6948 174.296 17.8609C173.66 17.9439 172.691 18.0269 171.723 18.5527C171.391 18.7187 171.058 18.9401 170.726 19.2445C169.979 19.881 169.564 20.8495 169.564 21.8181V27.491H168.153V8.86727H174.767C176.206 8.86727 177.285 9.06098 178.115 9.39305C178.724 9.6421 179.167 9.9465 179.526 10.3062ZM178.115 15.7024C178.696 15.0936 179.028 14.2911 179.028 13.2119C179.028 11.8006 178.696 10.8874 178.115 10.2786C177.174 9.28236 175.624 9.14399 173.964 9.14399H169.564V20.1577C170.311 18.9401 171.474 18.3036 172.276 17.9716C172.608 17.8609 173.162 17.7502 173.217 17.7225C174.988 17.3628 176.98 16.8923 178.115 15.7024ZM189.857 10.1402L194.617 27.491H193.15L191.241 20.5728C188.584 21.1816 188.031 22.4269 187.09 24.53C186.398 26.052 185.623 27.574 183.99 27.574H183.907C183.326 27.5463 182.911 27.4356 182.635 27.1312C182.413 26.9098 182.302 26.6331 182.275 26.3564C182.275 26.3287 182.247 26.3287 182.247 26.3287C182.219 26.1904 182.219 26.052 182.219 25.9136C182.219 25.6369 182.247 25.3325 182.33 25.0834L186.453 10.1402C186.702 9.28236 187.422 8.8396 188.169 8.8396C188.889 8.8396 189.636 9.28236 189.857 10.1402ZM184.682 26.3564C186.841 23.5891 186.924 21.486 191.158 20.2961L188.363 10.0572C188.252 9.6421 187.92 9.44839 187.588 9.44839C187.228 9.44839 186.896 9.6421 186.785 10.0572L182.745 24.7237C182.635 25.0281 182.551 25.4709 182.551 25.886C182.551 26.2734 182.635 26.6054 182.856 26.7992C183.05 26.9375 183.243 27.0205 183.492 27.0205C183.907 27.0205 184.35 26.7715 184.682 26.3564ZM206.131 27.1312C206.325 27.1312 206.518 27.1589 206.712 27.1589C208.649 27.1589 210.808 26.4948 212.662 24.447L212.883 24.613C211.223 26.4948 208.843 27.6017 206.159 27.6017C201.15 27.6017 197.11 23.6721 197.11 18.1653C197.11 12.6584 201.15 8.7289 206.159 8.7289C209.562 8.7289 211.804 10.2509 213.049 12.8521L211.915 13.4886C210.974 10.749 209.396 9.00563 206.159 9.00563C202.063 9.00563 198.742 12.8245 198.742 18.1653C198.742 23.5061 202.063 26.9098 206.131 27.1312ZM222.923 9.14399H218.883V17.8609H220.876C221.899 17.8609 223.615 17.8055 224.777 16.8093V19.1615C223.449 18.1653 221.54 18.1376 220.599 18.1376H218.883V27.2142H222.923C225.386 27.2142 226.853 26.4117 227.849 25.8306V27.491H217.472V8.86727H227.849V10.5276C226.853 9.9465 225.386 9.14399 222.923 9.14399Z" fill="url(#paint7_radial_67_268)" fill-opacity="0.5" style="mix-blend-mode:overlay"/>
<path d="M55.1859 19.881C55.8777 20.6835 56.2652 21.7351 56.2652 22.8696V23.174C56.0991 25.6369 53.9407 27.491 50.6753 27.491H43.9232V8.86727H49.7621C51.2011 8.86727 52.4187 9.31003 53.2765 10.0572C54.162 10.7767 54.6601 11.7729 54.6601 12.9075C54.6601 14.7892 53.5256 16.4219 50.8967 16.9754L48.0464 17.6118L52.391 18.3313C53.5256 18.4974 54.4941 19.0785 55.1859 19.881ZM45.3345 9.14399V17.9439L50.2048 16.837C51.9759 16.4219 53.2488 14.8446 53.2488 13.0182C53.2488 12.8521 53.2488 12.6861 53.2212 12.5201C52.9444 10.583 51.2287 9.14399 49.2363 9.14399H45.3345ZM53.5532 25.9136C54.3557 25.1111 54.8539 24.0042 54.8539 22.7866C54.8539 20.6005 53.2765 18.7464 51.118 18.3867L48.7935 18.0269C48.3785 17.9439 47.9357 17.9162 47.5206 17.9162C46.9395 17.9162 46.386 17.9716 45.8326 18.1099L45.3345 18.2206V27.2142H50.4262C51.6438 27.2142 52.7507 26.7161 53.5532 25.9136ZM66.7782 9.14399H62.738V17.8609H64.7304C65.7543 17.8609 67.47 17.8055 68.6322 16.8093V19.1615C67.304 18.1653 65.3945 18.1376 64.4537 18.1376H62.738V27.2142H66.7782C69.241 27.2142 70.7077 26.4117 71.7039 25.8306V27.491H61.3267V8.86727H71.7039V10.5276C70.7077 9.9465 69.241 9.14399 66.7782 9.14399ZM83.7605 10.1402L88.5202 27.491H87.0536L85.1442 20.5728C82.4876 21.1816 81.9341 22.4269 80.9933 24.53C80.3015 26.052 79.5266 27.574 77.8939 27.574H77.8109C77.2298 27.5463 76.8147 27.4356 76.538 27.1312C76.3166 26.9098 76.2059 26.6331 76.1782 26.3564C76.1782 26.3287 76.1506 26.3287 76.1506 26.3287C76.1229 26.1904 76.1229 26.052 76.1229 25.9136C76.1229 25.6369 76.1506 25.3325 76.2336 25.0834L80.3568 10.1402C80.6059 9.28236 81.3253 8.8396 82.0725 8.8396C82.792 8.8396 83.5392 9.28236 83.7605 10.1402ZM78.5858 26.3564C80.7442 23.5891 80.8272 21.486 85.0612 20.2961L82.2662 10.0572C82.1555 9.6421 81.8235 9.44839 81.4914 9.44839C81.1316 9.44839 80.7996 9.6421 80.6889 10.0572L76.6487 24.7237C76.538 25.0281 76.455 25.4709 76.455 25.886C76.455 26.2734 76.538 26.6054 76.7594 26.7992C76.9531 26.9375 77.1468 27.0205 77.3958 27.0205C77.8109 27.0205 78.2537 26.7715 78.5858 26.3564ZM103.764 8.86727H104.04V21.569C104.04 24.9451 101.633 27.6847 97.9248 27.6847C94.5764 27.6847 91.8368 24.9451 91.8368 21.569V8.86727H93.2482V21.569C93.2482 24.4746 95.3236 27.0759 98.506 27.0759C101.522 27.0759 103.764 24.5853 103.764 21.569V8.86727ZM108.471 8.86727H121.92V10.5276C120.951 9.9465 119.484 9.14399 117.022 9.14399H115.915V27.491H114.476V9.14399H113.369C110.906 9.14399 109.467 9.9465 108.471 10.5276V8.86727ZM138.052 8.86727H138.384L132.794 19.0785V27.491H131.383V19.5489L125.793 8.86727H127.426L132.628 18.8018L138.052 8.86727ZM163.719 22.8143C163.719 23.1464 163.663 23.4508 163.608 23.7552C163.248 25.1941 162.169 26.301 160.868 26.9098C159.734 27.4356 158.461 27.6017 157.216 27.6017C153.646 27.6017 151.515 25.2218 150.713 23.8658L152.096 22.7313C152.899 25.6369 155.168 27.3249 157.216 27.3249C159.485 27.3249 161.809 26.2457 162.141 23.7828C162.169 23.5891 162.169 23.3954 162.169 23.2294C162.169 21.3476 160.813 19.9917 159.125 19.2168L153.425 16.6433C152.594 16.2559 151.764 15.7854 151.266 14.9829C150.879 14.4018 150.685 13.71 150.685 13.0182C150.685 12.7138 150.74 12.437 150.796 12.1326C151.045 11.1088 151.736 10.3062 152.65 9.78047C153.425 9.31003 154.642 8.70123 157.216 8.70123C160.536 8.70123 162.197 10.1956 162.999 10.8874C162.999 10.8874 161.948 11.7729 161.837 11.9389C161.477 11.3301 160.453 9.00563 157.216 9.00563C154.199 9.00563 152.096 10.6937 152.096 12.7138C152.096 13.2119 152.207 13.71 152.484 14.1251C152.982 14.9276 153.895 15.2597 154.725 15.6194C155.666 16.0345 156.607 16.4772 157.548 16.8923C158.821 17.4735 160.26 17.9716 161.422 18.7187C162.778 19.5766 163.719 21.1816 163.719 22.8143ZM179.526 10.3062C180.356 11.1641 180.523 12.271 180.523 13.1565V13.3779C180.467 14.4848 180.08 15.315 179.526 15.9238C179.139 16.3389 178.641 16.671 178.115 16.92C176.925 17.5011 175.486 17.6948 174.296 17.8609C173.66 17.9439 172.691 18.0269 171.723 18.5527C171.391 18.7187 171.058 18.9401 170.726 19.2445C169.979 19.881 169.564 20.8495 169.564 21.8181V27.491H168.153V8.86727H174.767C176.206 8.86727 177.285 9.06098 178.115 9.39305C178.724 9.6421 179.167 9.9465 179.526 10.3062ZM178.115 15.7024C178.696 15.0936 179.028 14.2911 179.028 13.2119C179.028 11.8006 178.696 10.8874 178.115 10.2786C177.174 9.28236 175.624 9.14399 173.964 9.14399H169.564V20.1577C170.311 18.9401 171.474 18.3036 172.276 17.9716C172.608 17.8609 173.162 17.7502 173.217 17.7225C174.988 17.3628 176.98 16.8923 178.115 15.7024ZM189.857 10.1402L194.617 27.491H193.15L191.241 20.5728C188.584 21.1816 188.031 22.4269 187.09 24.53C186.398 26.052 185.623 27.574 183.99 27.574H183.907C183.326 27.5463 182.911 27.4356 182.635 27.1312C182.413 26.9098 182.302 26.6331 182.275 26.3564C182.275 26.3287 182.247 26.3287 182.247 26.3287C182.219 26.1904 182.219 26.052 182.219 25.9136C182.219 25.6369 182.247 25.3325 182.33 25.0834L186.453 10.1402C186.702 9.28236 187.422 8.8396 188.169 8.8396C188.889 8.8396 189.636 9.28236 189.857 10.1402ZM184.682 26.3564C186.841 23.5891 186.924 21.486 191.158 20.2961L188.363 10.0572C188.252 9.6421 187.92 9.44839 187.588 9.44839C187.228 9.44839 186.896 9.6421 186.785 10.0572L182.745 24.7237C182.635 25.0281 182.551 25.4709 182.551 25.886C182.551 26.2734 182.635 26.6054 182.856 26.7992C183.05 26.9375 183.243 27.0205 183.492 27.0205C183.907 27.0205 184.35 26.7715 184.682 26.3564ZM206.131 27.1312C206.325 27.1312 206.518 27.1589 206.712 27.1589C208.649 27.1589 210.808 26.4948 212.662 24.447L212.883 24.613C211.223 26.4948 208.843 27.6017 206.159 27.6017C201.15 27.6017 197.11 23.6721 197.11 18.1653C197.11 12.6584 201.15 8.7289 206.159 8.7289C209.562 8.7289 211.804 10.2509 213.049 12.8521L211.915 13.4886C210.974 10.749 209.396 9.00563 206.159 9.00563C202.063 9.00563 198.742 12.8245 198.742 18.1653C198.742 23.5061 202.063 26.9098 206.131 27.1312ZM222.923 9.14399H218.883V17.8609H220.876C221.899 17.8609 223.615 17.8055 224.777 16.8093V19.1615C223.449 18.1653 221.54 18.1376 220.599 18.1376H218.883V27.2142H222.923C225.386 27.2142 226.853 26.4117 227.849 25.8306V27.491H217.472V8.86727H227.849V10.5276C226.853 9.9465 225.386 9.14399 222.923 9.14399Z" fill="#6D5B37" style="mix-blend-mode:color"/>
<defs>
<filter id="filter0_ii_67_268" x="8.44629" y="7.26523" width="17.4111" height="18.1545" filterUnits="userSpaceOnUse" color-interpolation-filters="sRGB">
<feFlood flood-opacity="0" result="BackgroundImageFix"/>
<feBlend mode="normal" in="SourceGraphic" in2="BackgroundImageFix" result="shape"/>
<feColorMatrix in="SourceAlpha" type="matrix" values="0 0 0 0 0 0 0 0 0 0 0 0 0 0 0 0 0 0 127 0" result="hardAlpha"/>
<feOffset dy="-0.342433"/>
<feGaussianBlur stdDeviation="0.171217"/>
<feComposite in2="hardAlpha" operator="arithmetic" k2="-1" k3="1"/>
<feColorMatrix type="matrix" values="0 0 0 0 0 0 0 0 0 0 0 0 0 0 0 0 0 0 0.4 0"/>
<feBlend mode="normal" in2="shape" result="effect1_innerShadow_67_268"/>
<feColorMatrix in="SourceAlpha" type="matrix" values="0 0 0 0 0 0 0 0 0 0 0 0 0 0 0 0 0 0 127 0" result="hardAlpha"/>
<feOffset dy="0.342433"/>
<feGaussianBlur stdDeviation="0.0856083"/>
<feComposite in2="hardAlpha" operator="arithmetic" k2="-1" k3="1"/>
<feColorMatrix type="matrix" values="0 0 0 0 1 0 0 0 0 1 0 0 0 0 1 0 0 0 0.4 0"/>
<feBlend mode="normal" in2="effect1_innerShadow_67_268" result="effect2_innerShadow_67_268"/>
</filter>
<linearGradient id="paint0_linear_67_268" x1="6.9198" y1="7.72438" x2="28.517" y2="25.1202" gradientUnits="userSpaceOnUse">
<stop offset="0.00082061" stop-color="#576265"/>
<stop offset="0.156148" stop-color="#9EA1A1"/>
<stop offset="0.429117" stop-color="#848B8A"/>
<stop offset="0.72808" stop-color="#576265"/>
<stop offset="0.894255" stop-color="#757A7B"/>
<stop offset="1" stop-color="#576265"/>
</linearGradient>
<radialGradient id="paint1_radial_67_268" cx="0" cy="0" r="1" gradientUnits="userSpaceOnUse" gradientTransform="translate(1.71293 6.36969) rotate(23.7374) scale(35.2521 38.7682)">
<stop stop-color="white"/>
<stop offset="1" stop-color="white" stop-opacity="0"/>
</radialGradient>
<linearGradient id="paint2_linear_67_268" x1="8.83136" y1="16.1486" x2="30.402" y2="16.2368" gradientUnits="userSpaceOnUse">
<stop offset="0.00082061" stop-color="#576265"/>
<stop offset="0.156148" stop-color="#9EA1A1"/>
<stop offset="0.429117" stop-color="#848B8A"/>
<stop offset="0.72808" stop-color="#576265"/>
<stop offset="0.894255" stop-color="#757A7B"/>
<stop offset="1" stop-color="#576265"/>
</linearGradient>
<radialGradient id="paint3_radial_67_268" cx="0" cy="0" r="1" gradientUnits="userSpaceOnUse" gradientTransform="translate(21.534 6.23035) rotate(89.2707) scale(9.97551 11.5936)">
<stop stop-color="white"/>
<stop offset="1" stop-color="white" stop-opacity="0"/>
</radialGradient>
<linearGradient id="paint4_linear_67_268" x1="21.5029" y1="11.8144" x2="23.1368" y2="11.631" gradientUnits="userSpaceOnUse">
<stop offset="0.00082061" stop-color="#576265"/>
<stop offset="0.156148" stop-color="#9EA1A1"/>
<stop offset="0.429117" stop-color="#848B8A"/>
<stop offset="0.72808" stop-color="#576265"/>
<stop offset="0.894255" stop-color="#757A7B"/>
<stop offset="1" stop-color="#576265"/>
</linearGradient>
<radialGradient id="paint5_radial_67_268" cx="0" cy="0" r="1" gradientUnits="userSpaceOnUse" gradientTransform="translate(21.2323 12.0111) rotate(-25.2758) scale(2.13236 2.82613)">
<stop stop-color="white"/>
<stop offset="1" stop-color="white" stop-opacity="0"/>
</radialGradient>
<linearGradient id="paint6_linear_67_268" x1="54.5878" y1="16.4633" x2="223.095" y2="6.96679" gradientUnits="userSpaceOnUse">
<stop offset="0.00082061" stop-color="#576265"/>
<stop offset="0.156148" stop-color="#9EA1A1"/>
<stop offset="0.429117" stop-color="#848B8A"/>
<stop offset="0.72808" stop-color="#576265"/>
<stop offset="0.894255" stop-color="#757A7B"/>
<stop offset="1" stop-color="#576265"/>
</linearGradient>
<radialGradient id="paint7_radial_67_268" cx="0" cy="0" r="1" gradientUnits="userSpaceOnUse" gradientTransform="translate(153.198 5.5258) rotate(79.9231) scale(11.0027 89.4772)">
<stop stop-color="white"/>
<stop offset="1" stop-color="white" stop-opacity="0"/>
</radialGradient>
<clipPath id="clip0_67_268">
<rect x="0.657227" y="-0.000244141" width="33.2307" height="33.2307" rx="16.6154" transform="rotate(0.681838 0.657227 -0.000244141)" fill="white"/>
</clipPath>
</defs>
</svg>
