<svg width="26" height="24" viewBox="0 0 26 24" fill="none" xmlns="http://www.w3.org/2000/svg">
<circle cx="13.5" cy="12" r="12" fill="#1A1A19"/>
<path d="M10.9608 4.42134V13.9014C11.2565 14.1542 11.9689 14.7104 12.4528 14.9127C12.9367 15.1149 12.977 14.8846 12.9367 14.7441C12.9367 13.8677 13.0443 13.0307 13.098 12.7217C13.4206 11.6262 13.9448 11.1627 14.6707 10.615C15.3965 10.0673 16.5659 10.0673 17.6547 10.615C18.7434 11.1627 19.4289 12.5532 19.4693 13.4801C19.5096 14.4071 19.4693 15.5025 18.6225 16.6401C17.7756 17.7778 16.2836 17.9042 15.2352 17.9042C14.3965 17.9042 12.762 17.0615 12.0496 16.6401L10.1544 15.2076C9.63014 14.7722 8.48493 13.8425 8.09782 13.6065C7.61393 13.3116 6.2429 12.8481 5.11379 12.8481C3.98468 12.8481 2.61372 13.4801 2.12983 13.9014C1.64593 14.3228 1.08136 15.1233 0.678121 15.8396C0.355527 16.4126 0.543707 16.7244 0.678121 16.8087C1.04104 16.7946 1.86365 16.775 2.25077 16.8087C2.63788 16.8424 2.86907 16.5137 2.93628 16.3452C3.07069 16.1205 3.38791 15.6289 3.58147 15.4604C3.82341 15.2497 4.18633 14.9548 5.11379 14.8705C5.85576 14.8031 7.19721 15.6008 7.77519 16.0081C7.86928 16.0503 8.50103 16.4885 10.2753 17.9042C12.0496 19.3199 13.5953 19.7861 14.1464 19.8423C14.8588 20.0108 16.7514 20.223 18.5014 19.421C20.8 18.3676 21.2839 16.0503 21.4452 15.334C21.7032 12.9408 20.9881 11.1908 20.5983 10.615C19.6218 8.89653 17.9892 8.12911 16.2836 8.12911C14.6707 8.12911 13.4878 8.78921 12.9367 9.22459V4.63201C12.9367 4.16011 12.6679 4.01404 12.5335 4H11.5657C11.0495 4 10.9474 4.28089 10.9608 4.42134Z" fill="#FFFEFA"/>
</svg>
