<svg width="25" height="24" viewBox="0 0 25 24" fill="none" xmlns="http://www.w3.org/2000/svg">
<g clip-path="url(#clip0_42_221)">
<path d="M12.5 0C19.1274 0 24.5 5.37258 24.5 12C24.5 17.9895 20.1118 22.954 14.375 23.8542V15.4688H17.1711L17.7031 12H14.375V9.74897C14.375 9.49416 14.4085 9.24109 14.4864 9.00718C14.6623 8.47884 15.0647 8.04831 15.8186 7.9166C15.9739 7.88945 16.1442 7.875 16.3306 7.875H17.8438V4.92188C17.8438 4.92188 16.4705 4.6875 15.1576 4.6875C12.4165 4.6875 10.625 6.34875 10.625 9.35625V12H7.57812V15.4688H10.625V23.8542C4.88825 22.954 0.5 17.9895 0.5 12C0.5 5.37258 5.87258 0 12.5 0Z" fill="#1A1A19"/>
</g>
<defs>
<clipPath id="clip0_42_221">
<rect width="24" height="24" fill="white" transform="translate(0.5)"/>
</clipPath>
</defs>
</svg>
