<svg width="25" height="24" viewBox="0 0 25 24" fill="none" xmlns="http://www.w3.org/2000/svg">
<g clip-path="url(#clip0_42_219)">
<path d="M9.83335 12C9.83335 13.4727 11.0273 14.6666 12.5 14.6666C13.9728 14.6666 15.1667 13.4727 15.1667 12C15.1667 10.5272 13.9728 9.3333 12.5 9.3333C11.0273 9.3333 9.83335 10.5272 9.83335 12Z" fill="#1A1A19"/>
<path fill-rule="evenodd" clip-rule="evenodd" d="M15.7326 5.48809C14.8891 5.44959 14.636 5.44147 12.5 5.44147C10.3639 5.44147 10.1109 5.44959 9.26727 5.48809C8.4873 5.52368 8.06371 5.654 7.78181 5.76353C7.4084 5.90865 7.1419 6.08203 6.86193 6.36196C6.582 6.6419 6.40862 6.90843 6.26353 7.28181C6.15397 7.56371 6.02365 7.9873 5.98806 8.76727C5.94956 9.61086 5.94143 9.86389 5.94143 12C5.94143 14.136 5.94956 14.3891 5.98806 15.2326C6.02365 16.0126 6.15397 16.4362 6.26353 16.7181C6.40862 17.0915 6.582 17.358 6.86193 17.6379C7.1419 17.9179 7.4084 18.0913 7.78181 18.2364C8.06371 18.3459 8.4873 18.4763 9.26727 18.5118C10.1108 18.5503 10.3637 18.5585 12.5 18.5585C14.6362 18.5585 14.8892 18.5503 15.7326 18.5118C16.5126 18.4763 16.9362 18.3459 17.2181 18.2364C17.5915 18.0913 17.858 17.9179 18.1379 17.6379C18.4179 17.358 18.5913 17.0915 18.7364 16.7181C18.8459 16.4362 18.9763 16.0126 19.0118 15.2326C19.0503 14.3891 19.0585 14.136 19.0585 12C19.0585 9.86389 19.0503 9.61086 19.0118 8.76727C18.9763 7.9873 18.8459 7.56371 18.7364 7.28181C18.5913 6.90843 18.4179 6.6419 18.1379 6.36196C17.858 6.08203 17.5915 5.90865 17.2181 5.76353C16.9362 5.654 16.5126 5.52368 15.7326 5.48809ZM8.39192 12C8.39192 9.73112 10.2312 7.89187 12.5 7.89187C14.7688 7.89187 16.6081 9.73112 16.6081 12C16.6081 14.2688 14.7688 16.108 12.5 16.108C10.2312 16.108 8.39192 14.2688 8.39192 12ZM17.7304 7.72955C17.7304 8.25977 17.3005 8.68955 16.7704 8.68955C16.2402 8.68955 15.8104 8.25977 15.8104 7.72955C15.8104 7.19937 16.2402 6.76959 16.7704 6.76959C17.3005 6.76959 17.7304 7.19937 17.7304 7.72955Z" fill="#1A1A19"/>
<path fill-rule="evenodd" clip-rule="evenodd" d="M24.5 12C24.5 18.6274 19.1274 24 12.5 24C5.87258 24 0.5 18.6274 0.5 12C0.5 5.37258 5.87258 0 12.5 0C19.1274 0 24.5 5.37258 24.5 12ZM9.20158 4.04816C10.0549 4.00922 10.3273 4 12.5 4C14.6726 4 14.945 4.00922 15.7983 4.04816C16.6498 4.087 17.2314 4.22222 17.7402 4.42C18.2663 4.62444 18.7124 4.898 19.1572 5.34275C19.6019 5.78747 19.8755 6.23362 20.0799 6.75968C20.2777 7.26852 20.4129 7.85009 20.4518 8.70158C20.4907 9.55486 20.4999 9.8273 20.4999 12C20.4999 14.1726 20.4907 14.445 20.4518 15.2983C20.4129 16.1498 20.2777 16.7314 20.0799 17.2402C19.8755 17.7663 19.6019 18.2124 19.1572 18.6572C18.7124 19.1019 18.2663 19.3755 17.7402 19.5799C17.2314 19.7777 16.6498 19.9129 15.7983 19.9518C14.945 19.9907 14.6726 19.9999 12.5 19.9999C10.3273 19.9999 10.0549 19.9907 9.20158 19.9518C8.35009 19.9129 7.76852 19.7777 7.25965 19.5799C6.73359 19.3755 6.28743 19.1019 5.84272 18.6572C5.39797 18.2124 5.1244 17.7663 4.91997 17.2402C4.72219 16.7314 4.58697 16.1498 4.54812 15.2983C4.50919 14.445 4.5 14.1726 4.5 12C4.5 9.8273 4.50919 9.55486 4.54812 8.70158C4.58697 7.85009 4.72219 7.26852 4.91997 6.75968C5.1244 6.23362 5.39797 5.78747 5.84272 5.34275C6.28743 4.898 6.73359 4.62444 7.25965 4.42C7.76852 4.22222 8.35009 4.087 9.20158 4.04816Z" fill="#1A1A19"/>
</g>
<defs>
<clipPath id="clip0_42_219">
<rect width="24" height="24" fill="white" transform="translate(0.5)"/>
</clipPath>
</defs>
</svg>
