<svg width="348" height="51" viewBox="0 0 348 51" fill="none" xmlns="http://www.w3.org/2000/svg">
<g clip-path="url(#clip0_67_267)">
<rect x="0.596191" width="50.0979" height="50.0979" rx="25.049" transform="rotate(0.681838 0.596191 0)" fill="black" fill-opacity="0.1"/>
<path d="M43.6835 38.5258C41.9011 40.9539 39.6578 43.007 37.0819 44.5681C34.506 46.1292 31.6478 47.1677 28.6706 47.6242C25.6933 48.0807 22.6553 47.9463 19.73 47.2287C16.8047 46.5111 14.0494 45.2244 11.6214 43.442C9.19334 41.6595 7.14017 39.4163 5.57907 36.8404C4.01797 34.2645 2.97953 31.4063 2.52303 28.4291C2.06652 25.4518 2.2009 22.4138 2.91849 19.4885C3.63607 16.5632 4.92282 13.8079 6.70525 11.3798C8.48768 8.95182 10.7309 6.89865 13.3068 5.33755C15.8827 3.77645 18.7409 2.73801 21.7181 2.28151C24.6954 1.825 27.7334 1.95938 30.6587 2.67697C33.584 3.39455 36.3393 4.6813 38.7674 6.46373C41.1954 8.24616 43.2486 10.4894 44.8097 13.0653C46.3708 15.6412 47.4092 18.4994 47.8657 21.4766C48.3222 24.4539 48.1878 27.4919 47.4702 30.4172C46.7527 33.3425 45.4659 36.0978 43.6835 38.5258L43.6835 38.5258Z" stroke="url(#paint0_linear_67_267)" stroke-width="0.948153"/>
<path d="M43.6835 38.5258C41.9011 40.9539 39.6578 43.007 37.0819 44.5681C34.506 46.1292 31.6478 47.1677 28.6706 47.6242C25.6933 48.0807 22.6553 47.9463 19.73 47.2287C16.8047 46.5111 14.0494 45.2244 11.6214 43.442C9.19334 41.6595 7.14017 39.4163 5.57907 36.8404C4.01797 34.2645 2.97953 31.4063 2.52303 28.4291C2.06652 25.4518 2.2009 22.4138 2.91849 19.4885C3.63607 16.5632 4.92282 13.8079 6.70525 11.3798C8.48768 8.95182 10.7309 6.89865 13.3068 5.33755C15.8827 3.77645 18.7409 2.73801 21.7181 2.28151C24.6954 1.825 27.7334 1.95938 30.6587 2.67697C33.584 3.39455 36.3393 4.6813 38.7674 6.46373C41.1954 8.24616 43.2486 10.4894 44.8097 13.0653C46.3708 15.6412 47.4092 18.4994 47.8657 21.4766C48.3222 24.4539 48.1878 27.4919 47.4702 30.4172C46.7527 33.3425 45.4659 36.0978 43.6835 38.5258L43.6835 38.5258Z" stroke="url(#paint1_radial_67_267)" stroke-width="0.948153" style="mix-blend-mode:overlay"/>
<path d="M43.6835 38.5258C41.9011 40.9539 39.6578 43.007 37.0819 44.5681C34.506 46.1292 31.6478 47.1677 28.6706 47.6242C25.6933 48.0807 22.6553 47.9463 19.73 47.2287C16.8047 46.5111 14.0494 45.2244 11.6214 43.442C9.19334 41.6595 7.14017 39.4163 5.57907 36.8404C4.01797 34.2645 2.97953 31.4063 2.52303 28.4291C2.06652 25.4518 2.2009 22.4138 2.91849 19.4885C3.63607 16.5632 4.92282 13.8079 6.70525 11.3798C8.48768 8.95182 10.7309 6.89865 13.3068 5.33755C15.8827 3.77645 18.7409 2.73801 21.7181 2.28151C24.6954 1.825 27.7334 1.95938 30.6587 2.67697C33.584 3.39455 36.3393 4.6813 38.7674 6.46373C41.1954 8.24616 43.2486 10.4894 44.8097 13.0653C46.3708 15.6412 47.4092 18.4994 47.8657 21.4766C48.3222 24.4539 48.1878 27.4919 47.4702 30.4172C46.7527 33.3425 45.4659 36.0978 43.6835 38.5258L43.6835 38.5258Z" stroke="#A48F64" stroke-width="0.948153" style="mix-blend-mode:color"/>
<g filter="url(#filter0_ii_67_267)">
<path d="M14.052 15.9271C14.0423 16.7341 14.2526 17.4746 14.6828 18.1485C15.136 18.8227 15.7164 19.4638 16.4241 20.0718C17.1551 20.657 17.9785 21.2318 18.8942 21.7962C19.8103 22.3375 20.7492 22.8907 21.7111 23.4556C22.6963 23.9977 23.6466 24.5625 24.5621 25.15C25.4778 25.7143 26.2893 26.3236 26.9964 26.9777C27.7268 27.6091 28.3067 28.2963 28.7361 29.0394C29.1884 29.7827 29.4093 30.6041 29.3986 31.5033C29.3884 32.3565 29.16 33.1379 28.7134 33.8475C28.2901 34.5343 27.6949 35.1383 26.9276 35.6596C26.1607 36.1578 25.2335 36.5504 24.1462 36.8372C23.0823 37.1013 21.9046 37.2257 20.6134 37.2103C19.0915 37.1922 17.8598 37.0161 16.9183 36.682C15.9767 36.348 15.2194 36.0392 14.6462 35.7556C14.0961 35.4723 13.6482 35.3171 13.3026 35.2899C12.9804 35.2399 12.6659 35.5014 12.3593 36.0743L12.4647 27.2199L12.776 27.2236C12.7579 28.7455 12.834 30.0955 13.0045 31.2736C13.1983 32.429 13.5672 33.402 14.1113 34.1926C14.6554 34.9831 15.4207 35.5919 16.4073 36.0187C17.3941 36.4225 18.6715 36.6337 20.2395 36.6524C21.4385 36.6667 22.5236 36.5643 23.4948 36.3452C24.466 36.1261 25.2768 35.8245 25.9271 35.4401C26.6007 35.0331 27.1138 34.5549 27.4662 34.0056C27.842 33.4335 28.0339 32.8131 28.0418 32.1444C28.0542 31.1068 27.6733 30.1683 26.8992 29.3289C26.1482 28.4897 25.2006 27.6943 24.0564 26.9427C22.9354 26.1914 21.6989 25.4503 20.3469 24.7193C19.018 23.9885 17.7818 23.2243 16.6382 22.4266C15.518 21.6061 14.5713 20.7301 13.7983 19.7984C13.0486 18.8439 12.6809 17.7672 12.6952 16.5682C12.7051 15.7381 12.9101 14.9795 13.3104 14.2924C13.7339 13.5825 14.2946 12.9781 14.9924 12.479C15.7132 11.9802 16.5595 11.5983 17.5313 11.3331C18.5264 11.0451 19.6119 10.9081 20.7879 10.9221C22.033 10.937 23.0231 11.0641 23.7583 11.3034C24.5164 11.5431 25.1359 11.8156 25.6165 12.1212C26.1205 12.4039 26.5441 12.6626 26.8872 12.8973C27.2534 13.1323 27.6671 13.2525 28.1282 13.258L28.0644 18.6191L27.7877 18.6158C27.8004 17.5551 27.6505 16.5847 27.3381 15.7047C27.0257 14.8246 26.5619 14.0696 25.9468 13.4396C25.3546 12.8099 24.5993 12.3281 23.6809 11.9943C22.7857 11.6378 21.7501 11.4525 20.5742 11.4385C19.6288 11.4272 18.7512 11.5321 17.9414 11.7531C17.1547 11.9743 16.4706 12.2891 15.8892 12.6972C15.3081 13.0824 14.8528 13.5497 14.5234 14.0993C14.2171 14.6491 14.0599 15.2584 14.052 15.9271ZM34.8728 15.8635C34.4116 15.858 34.0329 15.7036 33.7367 15.4003C33.4405 15.097 33.2952 14.7147 33.3007 14.2536C33.3064 13.7693 33.461 13.3791 33.7643 13.0829C34.0676 12.7867 34.4499 12.6414 34.911 12.6469C35.3722 12.6524 35.7394 12.8066 36.0125 13.1097C36.2856 13.4127 36.4193 13.8064 36.4135 14.2906C36.4081 14.7518 36.2652 15.1306 35.9849 15.4271C35.7046 15.7235 35.3339 15.869 34.8728 15.8635ZM35.7322 33.758C35.7242 34.4267 35.7409 34.9573 35.7824 35.3499C35.8469 35.7427 35.9586 36.0438 36.1176 36.2533C36.2998 36.4399 36.5635 36.5699 36.9086 36.6432C37.2539 36.6934 37.7148 36.722 38.2912 36.7288L38.2875 37.0401L31.6121 36.9607L31.6158 36.6494C32.1923 36.6563 32.6537 36.6387 33.0002 36.5967C33.3469 36.5316 33.602 36.4078 33.7656 36.2253C33.9526 36.02 34.0714 35.7216 34.1222 35.3301C34.196 34.939 34.2369 34.409 34.2449 33.7403L34.3626 23.8483C34.3706 23.1796 34.3423 22.6489 34.2778 22.256C34.2363 21.8635 34.1246 21.5624 33.9426 21.3526C33.7837 21.1432 33.5315 21.0134 33.1862 20.9631C32.8412 20.8898 32.3804 20.8498 31.804 20.8429L31.8077 20.5316C32.3163 20.4224 32.7551 20.3699 33.124 20.3743C33.493 20.3787 33.8159 20.371 34.0929 20.3513C34.3929 20.3318 34.682 20.266 34.9601 20.154C35.2381 20.042 35.5522 19.8151 35.9022 19.4734L35.7322 33.758Z" fill="url(#paint2_linear_67_267)"/>
<path d="M14.052 15.9271C14.0423 16.7341 14.2526 17.4746 14.6828 18.1485C15.136 18.8227 15.7164 19.4638 16.4241 20.0718C17.1551 20.657 17.9785 21.2318 18.8942 21.7962C19.8103 22.3375 20.7492 22.8907 21.7111 23.4556C22.6963 23.9977 23.6466 24.5625 24.5621 25.15C25.4778 25.7143 26.2893 26.3236 26.9964 26.9777C27.7268 27.6091 28.3067 28.2963 28.7361 29.0394C29.1884 29.7827 29.4093 30.6041 29.3986 31.5033C29.3884 32.3565 29.16 33.1379 28.7134 33.8475C28.2901 34.5343 27.6949 35.1383 26.9276 35.6596C26.1607 36.1578 25.2335 36.5504 24.1462 36.8372C23.0823 37.1013 21.9046 37.2257 20.6134 37.2103C19.0915 37.1922 17.8598 37.0161 16.9183 36.682C15.9767 36.348 15.2194 36.0392 14.6462 35.7556C14.0961 35.4723 13.6482 35.3171 13.3026 35.2899C12.9804 35.2399 12.6659 35.5014 12.3593 36.0743L12.4647 27.2199L12.776 27.2236C12.7579 28.7455 12.834 30.0955 13.0045 31.2736C13.1983 32.429 13.5672 33.402 14.1113 34.1926C14.6554 34.9831 15.4207 35.5919 16.4073 36.0187C17.3941 36.4225 18.6715 36.6337 20.2395 36.6524C21.4385 36.6667 22.5236 36.5643 23.4948 36.3452C24.466 36.1261 25.2768 35.8245 25.9271 35.4401C26.6007 35.0331 27.1138 34.5549 27.4662 34.0056C27.842 33.4335 28.0339 32.8131 28.0418 32.1444C28.0542 31.1068 27.6733 30.1683 26.8992 29.3289C26.1482 28.4897 25.2006 27.6943 24.0564 26.9427C22.9354 26.1914 21.6989 25.4503 20.3469 24.7193C19.018 23.9885 17.7818 23.2243 16.6382 22.4266C15.518 21.6061 14.5713 20.7301 13.7983 19.7984C13.0486 18.8439 12.6809 17.7672 12.6952 16.5682C12.7051 15.7381 12.9101 14.9795 13.3104 14.2924C13.7339 13.5825 14.2946 12.9781 14.9924 12.479C15.7132 11.9802 16.5595 11.5983 17.5313 11.3331C18.5264 11.0451 19.6119 10.9081 20.7879 10.9221C22.033 10.937 23.0231 11.0641 23.7583 11.3034C24.5164 11.5431 25.1359 11.8156 25.6165 12.1212C26.1205 12.4039 26.5441 12.6626 26.8872 12.8973C27.2534 13.1323 27.6671 13.2525 28.1282 13.258L28.0644 18.6191L27.7877 18.6158C27.8004 17.5551 27.6505 16.5847 27.3381 15.7047C27.0257 14.8246 26.5619 14.0696 25.9468 13.4396C25.3546 12.8099 24.5993 12.3281 23.6809 11.9943C22.7857 11.6378 21.7501 11.4525 20.5742 11.4385C19.6288 11.4272 18.7512 11.5321 17.9414 11.7531C17.1547 11.9743 16.4706 12.2891 15.8892 12.6972C15.3081 13.0824 14.8528 13.5497 14.5234 14.0993C14.2171 14.6491 14.0599 15.2584 14.052 15.9271ZM34.8728 15.8635C34.4116 15.858 34.0329 15.7036 33.7367 15.4003C33.4405 15.097 33.2952 14.7147 33.3007 14.2536C33.3064 13.7693 33.461 13.3791 33.7643 13.0829C34.0676 12.7867 34.4499 12.6414 34.911 12.6469C35.3722 12.6524 35.7394 12.8066 36.0125 13.1097C36.2856 13.4127 36.4193 13.8064 36.4135 14.2906C36.4081 14.7518 36.2652 15.1306 35.9849 15.4271C35.7046 15.7235 35.3339 15.869 34.8728 15.8635ZM35.7322 33.758C35.7242 34.4267 35.7409 34.9573 35.7824 35.3499C35.8469 35.7427 35.9586 36.0438 36.1176 36.2533C36.2998 36.4399 36.5635 36.5699 36.9086 36.6432C37.2539 36.6934 37.7148 36.722 38.2912 36.7288L38.2875 37.0401L31.6121 36.9607L31.6158 36.6494C32.1923 36.6563 32.6537 36.6387 33.0002 36.5967C33.3469 36.5316 33.602 36.4078 33.7656 36.2253C33.9526 36.02 34.0714 35.7216 34.1222 35.3301C34.196 34.939 34.2369 34.409 34.2449 33.7403L34.3626 23.8483C34.3706 23.1796 34.3423 22.6489 34.2778 22.256C34.2363 21.8635 34.1246 21.5624 33.9426 21.3526C33.7837 21.1432 33.5315 21.0134 33.1862 20.9631C32.8412 20.8898 32.3804 20.8498 31.804 20.8429L31.8077 20.5316C32.3163 20.4224 32.7551 20.3699 33.124 20.3743C33.493 20.3787 33.8159 20.371 34.0929 20.3513C34.3929 20.3318 34.682 20.266 34.9601 20.154C35.2381 20.042 35.5522 19.8151 35.9022 19.4734L35.7322 33.758Z" fill="url(#paint3_radial_67_267)" style="mix-blend-mode:overlay"/>
<path d="M14.052 15.9271C14.0423 16.7341 14.2526 17.4746 14.6828 18.1485C15.136 18.8227 15.7164 19.4638 16.4241 20.0718C17.1551 20.657 17.9785 21.2318 18.8942 21.7962C19.8103 22.3375 20.7492 22.8907 21.7111 23.4556C22.6963 23.9977 23.6466 24.5625 24.5621 25.15C25.4778 25.7143 26.2893 26.3236 26.9964 26.9777C27.7268 27.6091 28.3067 28.2963 28.7361 29.0394C29.1884 29.7827 29.4093 30.6041 29.3986 31.5033C29.3884 32.3565 29.16 33.1379 28.7134 33.8475C28.2901 34.5343 27.6949 35.1383 26.9276 35.6596C26.1607 36.1578 25.2335 36.5504 24.1462 36.8372C23.0823 37.1013 21.9046 37.2257 20.6134 37.2103C19.0915 37.1922 17.8598 37.0161 16.9183 36.682C15.9767 36.348 15.2194 36.0392 14.6462 35.7556C14.0961 35.4723 13.6482 35.3171 13.3026 35.2899C12.9804 35.2399 12.6659 35.5014 12.3593 36.0743L12.4647 27.2199L12.776 27.2236C12.7579 28.7455 12.834 30.0955 13.0045 31.2736C13.1983 32.429 13.5672 33.402 14.1113 34.1926C14.6554 34.9831 15.4207 35.5919 16.4073 36.0187C17.3941 36.4225 18.6715 36.6337 20.2395 36.6524C21.4385 36.6667 22.5236 36.5643 23.4948 36.3452C24.466 36.1261 25.2768 35.8245 25.9271 35.4401C26.6007 35.0331 27.1138 34.5549 27.4662 34.0056C27.842 33.4335 28.0339 32.8131 28.0418 32.1444C28.0542 31.1068 27.6733 30.1683 26.8992 29.3289C26.1482 28.4897 25.2006 27.6943 24.0564 26.9427C22.9354 26.1914 21.6989 25.4503 20.3469 24.7193C19.018 23.9885 17.7818 23.2243 16.6382 22.4266C15.518 21.6061 14.5713 20.7301 13.7983 19.7984C13.0486 18.8439 12.6809 17.7672 12.6952 16.5682C12.7051 15.7381 12.9101 14.9795 13.3104 14.2924C13.7339 13.5825 14.2946 12.9781 14.9924 12.479C15.7132 11.9802 16.5595 11.5983 17.5313 11.3331C18.5264 11.0451 19.6119 10.9081 20.7879 10.9221C22.033 10.937 23.0231 11.0641 23.7583 11.3034C24.5164 11.5431 25.1359 11.8156 25.6165 12.1212C26.1205 12.4039 26.5441 12.6626 26.8872 12.8973C27.2534 13.1323 27.6671 13.2525 28.1282 13.258L28.0644 18.6191L27.7877 18.6158C27.8004 17.5551 27.6505 16.5847 27.3381 15.7047C27.0257 14.8246 26.5619 14.0696 25.9468 13.4396C25.3546 12.8099 24.5993 12.3281 23.6809 11.9943C22.7857 11.6378 21.7501 11.4525 20.5742 11.4385C19.6288 11.4272 18.7512 11.5321 17.9414 11.7531C17.1547 11.9743 16.4706 12.2891 15.8892 12.6972C15.3081 13.0824 14.8528 13.5497 14.5234 14.0993C14.2171 14.6491 14.0599 15.2584 14.052 15.9271ZM34.8728 15.8635C34.4116 15.858 34.0329 15.7036 33.7367 15.4003C33.4405 15.097 33.2952 14.7147 33.3007 14.2536C33.3064 13.7693 33.461 13.3791 33.7643 13.0829C34.0676 12.7867 34.4499 12.6414 34.911 12.6469C35.3722 12.6524 35.7394 12.8066 36.0125 13.1097C36.2856 13.4127 36.4193 13.8064 36.4135 14.2906C36.4081 14.7518 36.2652 15.1306 35.9849 15.4271C35.7046 15.7235 35.3339 15.869 34.8728 15.8635ZM35.7322 33.758C35.7242 34.4267 35.7409 34.9573 35.7824 35.3499C35.8469 35.7427 35.9586 36.0438 36.1176 36.2533C36.2998 36.4399 36.5635 36.5699 36.9086 36.6432C37.2539 36.6934 37.7148 36.722 38.2912 36.7288L38.2875 37.0401L31.6121 36.9607L31.6158 36.6494C32.1923 36.6563 32.6537 36.6387 33.0002 36.5967C33.3469 36.5316 33.602 36.4078 33.7656 36.2253C33.9526 36.02 34.0714 35.7216 34.1222 35.3301C34.196 34.939 34.2369 34.409 34.2449 33.7403L34.3626 23.8483C34.3706 23.1796 34.3423 22.6489 34.2778 22.256C34.2363 21.8635 34.1246 21.5624 33.9426 21.3526C33.7837 21.1432 33.5315 21.0134 33.1862 20.9631C32.8412 20.8898 32.3804 20.8498 31.804 20.8429L31.8077 20.5316C32.3163 20.4224 32.7551 20.3699 33.124 20.3743C33.493 20.3787 33.8159 20.371 34.0929 20.3513C34.3929 20.3318 34.682 20.266 34.9601 20.154C35.2381 20.042 35.5522 19.8151 35.9022 19.4734L35.7322 33.758Z" fill="#A48F64" style="mix-blend-mode:color"/>
</g>
<ellipse cx="34.7606" cy="14.9377" rx="2.26157" ry="2.72948" fill="#1A1A19"/>
<path d="M34.1572 19.3884C33.3675 18.6919 32.2081 16.9396 31.6519 16.1537L33.4455 16.1537L34.1572 17.756L34.7817 19.3217L34.1572 19.3884Z" fill="url(#paint4_linear_67_267)"/>
<path d="M34.1572 19.3884C33.3675 18.6919 32.2081 16.9396 31.6519 16.1537L33.4455 16.1537L34.1572 17.756L34.7817 19.3217L34.1572 19.3884Z" fill="url(#paint5_radial_67_267)" style="mix-blend-mode:overlay"/>
<path d="M34.1572 19.3884C33.3675 18.6919 32.2081 16.9396 31.6519 16.1537L33.4455 16.1537L34.1572 17.756L34.7817 19.3217L34.1572 19.3884Z" fill="#A48F64" style="mix-blend-mode:color"/>
</g>
<path d="M82.8026 28.8059C83.8455 30.0157 84.4296 31.601 84.4296 33.3115V33.7704C84.1793 37.4833 80.9252 40.2785 76.0024 40.2785H65.823V12.2018H74.6257C76.7951 12.2018 78.6307 12.8693 79.924 13.9957C81.259 15.0804 82.0099 16.5823 82.0099 18.2927C82.0099 21.1296 80.2994 23.591 76.3362 24.4254L72.0391 25.3849L78.589 26.4696C80.2994 26.7199 81.7596 27.596 82.8026 28.8059ZM67.9507 12.619V25.8855L75.2932 24.2168C77.9632 23.591 79.8823 21.213 79.8823 18.4596C79.8823 18.2093 79.8823 17.959 79.8405 17.7087C79.4234 14.7884 76.8368 12.619 73.833 12.619H67.9507ZM80.3412 37.9005C81.551 36.6907 82.3019 35.0219 82.3019 33.1863C82.3019 29.8905 79.924 27.0954 76.6699 26.553L73.1655 26.0107C72.5398 25.8855 71.8723 25.8438 71.2465 25.8438C70.3704 25.8438 69.536 25.9273 68.7016 26.1359L67.9507 26.3027V39.8613H75.6269C77.4626 39.8613 79.1313 39.1104 80.3412 37.9005ZM100.279 12.619H94.1879V25.7604H97.1916C98.7352 25.7604 101.322 25.6769 103.074 24.1751V27.7212C101.071 26.2193 98.1929 26.1776 96.7744 26.1776H94.1879V39.8613H100.279C103.992 39.8613 106.203 38.6515 107.705 37.7754V40.2785H92.0602V12.2018H107.705V14.7049C106.203 13.8288 103.992 12.619 100.279 12.619ZM125.881 14.1209L133.057 40.2785H130.846L127.967 29.8488C123.962 30.7666 123.128 32.644 121.709 35.8146C120.666 38.1091 119.498 40.4037 117.037 40.4037H116.912C116.035 40.3619 115.41 40.1951 114.992 39.7362C114.659 39.4024 114.492 38.9852 114.45 38.568C114.45 38.5263 114.408 38.5263 114.408 38.5263C114.367 38.3177 114.367 38.1091 114.367 37.9005C114.367 37.4833 114.408 37.0244 114.534 36.649L120.75 14.1209C121.125 12.8276 122.21 12.1601 123.336 12.1601C124.421 12.1601 125.547 12.8276 125.881 14.1209ZM118.08 38.568C121.334 34.3962 121.459 31.2255 127.842 29.4316L123.628 13.9957C123.461 13.3699 122.961 13.0779 122.46 13.0779C121.918 13.0779 121.417 13.3699 121.25 13.9957L115.159 36.1066C114.992 36.5655 114.867 37.233 114.867 37.8588C114.867 38.4429 114.992 38.9435 115.326 39.2355C115.618 39.4441 115.91 39.5693 116.286 39.5693C116.912 39.5693 117.579 39.1938 118.08 38.568ZM156.038 12.2018H156.455V31.3507C156.455 36.4404 152.825 40.5705 147.235 40.5705C142.187 40.5705 138.057 36.4404 138.057 31.3507V12.2018H140.184V31.3507C140.184 35.7312 143.313 39.6527 148.111 39.6527C152.658 39.6527 156.038 35.898 156.038 31.3507V12.2018ZM163.134 12.2018H183.409V14.7049C181.949 13.8288 179.738 12.619 176.025 12.619H174.356V40.2785H172.187V12.619H170.518C166.805 12.619 164.635 13.8288 163.134 14.7049V12.2018ZM207.73 12.2018H208.231L199.803 27.596V40.2785H197.676V28.3052L189.249 12.2018H191.71L199.553 27.1788L207.73 12.2018ZM246.424 33.228C246.424 33.7287 246.341 34.1876 246.258 34.6465C245.715 36.8158 244.088 38.4846 242.127 39.4024C240.417 40.1951 238.498 40.4454 236.62 40.4454C231.239 40.4454 228.026 36.8576 226.817 34.8133L228.903 33.1029C230.112 37.4833 233.533 40.0282 236.62 40.0282C240.041 40.0282 243.546 38.4012 244.046 34.6882C244.088 34.3962 244.088 34.1041 244.088 33.8538C244.088 31.0169 242.044 28.9727 239.499 27.8046L230.905 23.9248C229.653 23.3407 228.402 22.6315 227.651 21.4216C227.067 20.5455 226.775 19.5026 226.775 18.4596C226.775 18.0007 226.858 17.5835 226.942 17.1246C227.317 15.581 228.36 14.3712 229.737 13.5785C230.905 12.8693 232.741 11.9515 236.62 11.9515C241.627 11.9515 244.13 14.2043 245.34 15.2473C245.34 15.2473 243.754 16.5823 243.588 16.8326C243.045 15.9148 241.502 12.4104 236.62 12.4104C232.073 12.4104 228.903 14.9552 228.903 18.0007C228.903 18.7516 229.069 19.5026 229.487 20.1284C230.238 21.3382 231.614 21.8388 232.866 22.3812C234.284 23.0069 235.703 23.6744 237.121 24.3002C239.04 25.1763 241.21 25.9273 242.962 27.0537C245.006 28.3469 246.424 30.7666 246.424 33.228ZM270.256 14.3712C271.507 15.6645 271.757 17.3332 271.757 18.6682V19.002C271.674 20.6707 271.09 21.9223 270.256 22.8401C269.671 23.4659 268.921 23.9665 268.128 24.3419C266.334 25.218 264.165 25.5101 262.371 25.7604C261.411 25.8855 259.951 26.0107 258.491 26.8034C257.99 27.0537 257.49 27.3874 256.989 27.8463C255.863 28.8059 255.237 30.266 255.237 31.7262V40.2785H253.109V12.2018H263.08C265.249 12.2018 266.876 12.4938 268.128 12.9945C269.046 13.3699 269.713 13.8288 270.256 14.3712ZM268.128 22.5063C269.004 21.5885 269.505 20.3787 269.505 18.7516C269.505 16.624 269.004 15.2473 268.128 14.3295C266.709 12.8276 264.373 12.619 261.87 12.619H255.237V29.223C256.363 27.3874 258.115 26.4279 259.325 25.9273C259.826 25.7604 260.66 25.5935 260.744 25.5518C263.414 25.0094 266.417 24.3002 268.128 22.5063ZM285.83 14.1209L293.006 40.2785H290.795L287.916 29.8488C283.911 30.7666 283.077 32.644 281.658 35.8146C280.615 38.1091 279.447 40.4037 276.986 40.4037H276.86C275.984 40.3619 275.359 40.1951 274.941 39.7362C274.608 39.4024 274.441 38.9852 274.399 38.568C274.399 38.5263 274.357 38.5263 274.357 38.5263C274.316 38.3177 274.316 38.1091 274.316 37.9005C274.316 37.4833 274.357 37.0244 274.483 36.649L280.699 14.1209C281.074 12.8276 282.159 12.1601 283.285 12.1601C284.37 12.1601 285.496 12.8276 285.83 14.1209ZM278.029 38.568C281.283 34.3962 281.408 31.2255 287.791 29.4316L283.577 13.9957C283.41 13.3699 282.91 13.0779 282.409 13.0779C281.867 13.0779 281.366 13.3699 281.199 13.9957L275.108 36.1066C274.941 36.5655 274.816 37.233 274.816 37.8588C274.816 38.4429 274.941 38.9435 275.275 39.2355C275.567 39.4441 275.859 39.5693 276.235 39.5693C276.86 39.5693 277.528 39.1938 278.029 38.568ZM310.364 39.7362C310.656 39.7362 310.948 39.7779 311.24 39.7779C314.161 39.7779 317.415 38.7766 320.21 35.6894L320.544 35.9398C318.04 38.7766 314.453 40.4454 310.406 40.4454C302.855 40.4454 296.764 34.5213 296.764 26.2193C296.764 17.9173 302.855 11.9932 310.406 11.9932C315.537 11.9932 318.917 14.2877 320.794 18.2093L319.083 19.1688C317.665 15.0387 315.287 12.4104 310.406 12.4104C304.232 12.4104 299.225 18.1676 299.225 26.2193C299.225 34.271 304.232 39.4024 310.364 39.7362ZM335.68 12.619H329.589V25.7604H332.593C334.136 25.7604 336.723 25.6769 338.475 24.1751V27.7212C336.473 26.2193 333.594 26.1776 332.176 26.1776H329.589V39.8613H335.68C339.393 39.8613 341.604 38.6515 343.106 37.7754V40.2785H327.461V12.2018H343.106V14.7049C341.604 13.8288 339.393 12.619 335.68 12.619Z" fill="url(#paint6_linear_67_267)"/>
<path d="M82.8026 28.8059C83.8455 30.0157 84.4296 31.601 84.4296 33.3115V33.7704C84.1793 37.4833 80.9252 40.2785 76.0024 40.2785H65.823V12.2018H74.6257C76.7951 12.2018 78.6307 12.8693 79.924 13.9957C81.259 15.0804 82.0099 16.5823 82.0099 18.2927C82.0099 21.1296 80.2994 23.591 76.3362 24.4254L72.0391 25.3849L78.589 26.4696C80.2994 26.7199 81.7596 27.596 82.8026 28.8059ZM67.9507 12.619V25.8855L75.2932 24.2168C77.9632 23.591 79.8823 21.213 79.8823 18.4596C79.8823 18.2093 79.8823 17.959 79.8405 17.7087C79.4234 14.7884 76.8368 12.619 73.833 12.619H67.9507ZM80.3412 37.9005C81.551 36.6907 82.3019 35.0219 82.3019 33.1863C82.3019 29.8905 79.924 27.0954 76.6699 26.553L73.1655 26.0107C72.5398 25.8855 71.8723 25.8438 71.2465 25.8438C70.3704 25.8438 69.536 25.9273 68.7016 26.1359L67.9507 26.3027V39.8613H75.6269C77.4626 39.8613 79.1313 39.1104 80.3412 37.9005ZM100.279 12.619H94.1879V25.7604H97.1916C98.7352 25.7604 101.322 25.6769 103.074 24.1751V27.7212C101.071 26.2193 98.1929 26.1776 96.7744 26.1776H94.1879V39.8613H100.279C103.992 39.8613 106.203 38.6515 107.705 37.7754V40.2785H92.0602V12.2018H107.705V14.7049C106.203 13.8288 103.992 12.619 100.279 12.619ZM125.881 14.1209L133.057 40.2785H130.846L127.967 29.8488C123.962 30.7666 123.128 32.644 121.709 35.8146C120.666 38.1091 119.498 40.4037 117.037 40.4037H116.912C116.035 40.3619 115.41 40.1951 114.992 39.7362C114.659 39.4024 114.492 38.9852 114.45 38.568C114.45 38.5263 114.408 38.5263 114.408 38.5263C114.367 38.3177 114.367 38.1091 114.367 37.9005C114.367 37.4833 114.408 37.0244 114.534 36.649L120.75 14.1209C121.125 12.8276 122.21 12.1601 123.336 12.1601C124.421 12.1601 125.547 12.8276 125.881 14.1209ZM118.08 38.568C121.334 34.3962 121.459 31.2255 127.842 29.4316L123.628 13.9957C123.461 13.3699 122.961 13.0779 122.46 13.0779C121.918 13.0779 121.417 13.3699 121.25 13.9957L115.159 36.1066C114.992 36.5655 114.867 37.233 114.867 37.8588C114.867 38.4429 114.992 38.9435 115.326 39.2355C115.618 39.4441 115.91 39.5693 116.286 39.5693C116.912 39.5693 117.579 39.1938 118.08 38.568ZM156.038 12.2018H156.455V31.3507C156.455 36.4404 152.825 40.5705 147.235 40.5705C142.187 40.5705 138.057 36.4404 138.057 31.3507V12.2018H140.184V31.3507C140.184 35.7312 143.313 39.6527 148.111 39.6527C152.658 39.6527 156.038 35.898 156.038 31.3507V12.2018ZM163.134 12.2018H183.409V14.7049C181.949 13.8288 179.738 12.619 176.025 12.619H174.356V40.2785H172.187V12.619H170.518C166.805 12.619 164.635 13.8288 163.134 14.7049V12.2018ZM207.73 12.2018H208.231L199.803 27.596V40.2785H197.676V28.3052L189.249 12.2018H191.71L199.553 27.1788L207.73 12.2018ZM246.424 33.228C246.424 33.7287 246.341 34.1876 246.258 34.6465C245.715 36.8158 244.088 38.4846 242.127 39.4024C240.417 40.1951 238.498 40.4454 236.62 40.4454C231.239 40.4454 228.026 36.8576 226.817 34.8133L228.903 33.1029C230.112 37.4833 233.533 40.0282 236.62 40.0282C240.041 40.0282 243.546 38.4012 244.046 34.6882C244.088 34.3962 244.088 34.1041 244.088 33.8538C244.088 31.0169 242.044 28.9727 239.499 27.8046L230.905 23.9248C229.653 23.3407 228.402 22.6315 227.651 21.4216C227.067 20.5455 226.775 19.5026 226.775 18.4596C226.775 18.0007 226.858 17.5835 226.942 17.1246C227.317 15.581 228.36 14.3712 229.737 13.5785C230.905 12.8693 232.741 11.9515 236.62 11.9515C241.627 11.9515 244.13 14.2043 245.34 15.2473C245.34 15.2473 243.754 16.5823 243.588 16.8326C243.045 15.9148 241.502 12.4104 236.62 12.4104C232.073 12.4104 228.903 14.9552 228.903 18.0007C228.903 18.7516 229.069 19.5026 229.487 20.1284C230.238 21.3382 231.614 21.8388 232.866 22.3812C234.284 23.0069 235.703 23.6744 237.121 24.3002C239.04 25.1763 241.21 25.9273 242.962 27.0537C245.006 28.3469 246.424 30.7666 246.424 33.228ZM270.256 14.3712C271.507 15.6645 271.757 17.3332 271.757 18.6682V19.002C271.674 20.6707 271.09 21.9223 270.256 22.8401C269.671 23.4659 268.921 23.9665 268.128 24.3419C266.334 25.218 264.165 25.5101 262.371 25.7604C261.411 25.8855 259.951 26.0107 258.491 26.8034C257.99 27.0537 257.49 27.3874 256.989 27.8463C255.863 28.8059 255.237 30.266 255.237 31.7262V40.2785H253.109V12.2018H263.08C265.249 12.2018 266.876 12.4938 268.128 12.9945C269.046 13.3699 269.713 13.8288 270.256 14.3712ZM268.128 22.5063C269.004 21.5885 269.505 20.3787 269.505 18.7516C269.505 16.624 269.004 15.2473 268.128 14.3295C266.709 12.8276 264.373 12.619 261.87 12.619H255.237V29.223C256.363 27.3874 258.115 26.4279 259.325 25.9273C259.826 25.7604 260.66 25.5935 260.744 25.5518C263.414 25.0094 266.417 24.3002 268.128 22.5063ZM285.83 14.1209L293.006 40.2785H290.795L287.916 29.8488C283.911 30.7666 283.077 32.644 281.658 35.8146C280.615 38.1091 279.447 40.4037 276.986 40.4037H276.86C275.984 40.3619 275.359 40.1951 274.941 39.7362C274.608 39.4024 274.441 38.9852 274.399 38.568C274.399 38.5263 274.357 38.5263 274.357 38.5263C274.316 38.3177 274.316 38.1091 274.316 37.9005C274.316 37.4833 274.357 37.0244 274.483 36.649L280.699 14.1209C281.074 12.8276 282.159 12.1601 283.285 12.1601C284.37 12.1601 285.496 12.8276 285.83 14.1209ZM278.029 38.568C281.283 34.3962 281.408 31.2255 287.791 29.4316L283.577 13.9957C283.41 13.3699 282.91 13.0779 282.409 13.0779C281.867 13.0779 281.366 13.3699 281.199 13.9957L275.108 36.1066C274.941 36.5655 274.816 37.233 274.816 37.8588C274.816 38.4429 274.941 38.9435 275.275 39.2355C275.567 39.4441 275.859 39.5693 276.235 39.5693C276.86 39.5693 277.528 39.1938 278.029 38.568ZM310.364 39.7362C310.656 39.7362 310.948 39.7779 311.24 39.7779C314.161 39.7779 317.415 38.7766 320.21 35.6894L320.544 35.9398C318.04 38.7766 314.453 40.4454 310.406 40.4454C302.855 40.4454 296.764 34.5213 296.764 26.2193C296.764 17.9173 302.855 11.9932 310.406 11.9932C315.537 11.9932 318.917 14.2877 320.794 18.2093L319.083 19.1688C317.665 15.0387 315.287 12.4104 310.406 12.4104C304.232 12.4104 299.225 18.1676 299.225 26.2193C299.225 34.271 304.232 39.4024 310.364 39.7362ZM335.68 12.619H329.589V25.7604H332.593C334.136 25.7604 336.723 25.6769 338.475 24.1751V27.7212C336.473 26.2193 333.594 26.1776 332.176 26.1776H329.589V39.8613H335.68C339.393 39.8613 341.604 38.6515 343.106 37.7754V40.2785H327.461V12.2018H343.106V14.7049C341.604 13.8288 339.393 12.619 335.68 12.619Z" fill="url(#paint7_radial_67_267)" fill-opacity="0.5" style="mix-blend-mode:overlay"/>
<path d="M82.8026 28.8059C83.8455 30.0157 84.4296 31.601 84.4296 33.3115V33.7704C84.1793 37.4833 80.9252 40.2785 76.0024 40.2785H65.823V12.2018H74.6257C76.7951 12.2018 78.6307 12.8693 79.924 13.9957C81.259 15.0804 82.0099 16.5823 82.0099 18.2927C82.0099 21.1296 80.2994 23.591 76.3362 24.4254L72.0391 25.3849L78.589 26.4696C80.2994 26.7199 81.7596 27.596 82.8026 28.8059ZM67.9507 12.619V25.8855L75.2932 24.2168C77.9632 23.591 79.8823 21.213 79.8823 18.4596C79.8823 18.2093 79.8823 17.959 79.8405 17.7087C79.4234 14.7884 76.8368 12.619 73.833 12.619H67.9507ZM80.3412 37.9005C81.551 36.6907 82.3019 35.0219 82.3019 33.1863C82.3019 29.8905 79.924 27.0954 76.6699 26.553L73.1655 26.0107C72.5398 25.8855 71.8723 25.8438 71.2465 25.8438C70.3704 25.8438 69.536 25.9273 68.7016 26.1359L67.9507 26.3027V39.8613H75.6269C77.4626 39.8613 79.1313 39.1104 80.3412 37.9005ZM100.279 12.619H94.1879V25.7604H97.1916C98.7352 25.7604 101.322 25.6769 103.074 24.1751V27.7212C101.071 26.2193 98.1929 26.1776 96.7744 26.1776H94.1879V39.8613H100.279C103.992 39.8613 106.203 38.6515 107.705 37.7754V40.2785H92.0602V12.2018H107.705V14.7049C106.203 13.8288 103.992 12.619 100.279 12.619ZM125.881 14.1209L133.057 40.2785H130.846L127.967 29.8488C123.962 30.7666 123.128 32.644 121.709 35.8146C120.666 38.1091 119.498 40.4037 117.037 40.4037H116.912C116.035 40.3619 115.41 40.1951 114.992 39.7362C114.659 39.4024 114.492 38.9852 114.45 38.568C114.45 38.5263 114.408 38.5263 114.408 38.5263C114.367 38.3177 114.367 38.1091 114.367 37.9005C114.367 37.4833 114.408 37.0244 114.534 36.649L120.75 14.1209C121.125 12.8276 122.21 12.1601 123.336 12.1601C124.421 12.1601 125.547 12.8276 125.881 14.1209ZM118.08 38.568C121.334 34.3962 121.459 31.2255 127.842 29.4316L123.628 13.9957C123.461 13.3699 122.961 13.0779 122.46 13.0779C121.918 13.0779 121.417 13.3699 121.25 13.9957L115.159 36.1066C114.992 36.5655 114.867 37.233 114.867 37.8588C114.867 38.4429 114.992 38.9435 115.326 39.2355C115.618 39.4441 115.91 39.5693 116.286 39.5693C116.912 39.5693 117.579 39.1938 118.08 38.568ZM156.038 12.2018H156.455V31.3507C156.455 36.4404 152.825 40.5705 147.235 40.5705C142.187 40.5705 138.057 36.4404 138.057 31.3507V12.2018H140.184V31.3507C140.184 35.7312 143.313 39.6527 148.111 39.6527C152.658 39.6527 156.038 35.898 156.038 31.3507V12.2018ZM163.134 12.2018H183.409V14.7049C181.949 13.8288 179.738 12.619 176.025 12.619H174.356V40.2785H172.187V12.619H170.518C166.805 12.619 164.635 13.8288 163.134 14.7049V12.2018ZM207.73 12.2018H208.231L199.803 27.596V40.2785H197.676V28.3052L189.249 12.2018H191.71L199.553 27.1788L207.73 12.2018ZM246.424 33.228C246.424 33.7287 246.341 34.1876 246.258 34.6465C245.715 36.8158 244.088 38.4846 242.127 39.4024C240.417 40.1951 238.498 40.4454 236.62 40.4454C231.239 40.4454 228.026 36.8576 226.817 34.8133L228.903 33.1029C230.112 37.4833 233.533 40.0282 236.62 40.0282C240.041 40.0282 243.546 38.4012 244.046 34.6882C244.088 34.3962 244.088 34.1041 244.088 33.8538C244.088 31.0169 242.044 28.9727 239.499 27.8046L230.905 23.9248C229.653 23.3407 228.402 22.6315 227.651 21.4216C227.067 20.5455 226.775 19.5026 226.775 18.4596C226.775 18.0007 226.858 17.5835 226.942 17.1246C227.317 15.581 228.36 14.3712 229.737 13.5785C230.905 12.8693 232.741 11.9515 236.62 11.9515C241.627 11.9515 244.13 14.2043 245.34 15.2473C245.34 15.2473 243.754 16.5823 243.588 16.8326C243.045 15.9148 241.502 12.4104 236.62 12.4104C232.073 12.4104 228.903 14.9552 228.903 18.0007C228.903 18.7516 229.069 19.5026 229.487 20.1284C230.238 21.3382 231.614 21.8388 232.866 22.3812C234.284 23.0069 235.703 23.6744 237.121 24.3002C239.04 25.1763 241.21 25.9273 242.962 27.0537C245.006 28.3469 246.424 30.7666 246.424 33.228ZM270.256 14.3712C271.507 15.6645 271.757 17.3332 271.757 18.6682V19.002C271.674 20.6707 271.09 21.9223 270.256 22.8401C269.671 23.4659 268.921 23.9665 268.128 24.3419C266.334 25.218 264.165 25.5101 262.371 25.7604C261.411 25.8855 259.951 26.0107 258.491 26.8034C257.99 27.0537 257.49 27.3874 256.989 27.8463C255.863 28.8059 255.237 30.266 255.237 31.7262V40.2785H253.109V12.2018H263.08C265.249 12.2018 266.876 12.4938 268.128 12.9945C269.046 13.3699 269.713 13.8288 270.256 14.3712ZM268.128 22.5063C269.004 21.5885 269.505 20.3787 269.505 18.7516C269.505 16.624 269.004 15.2473 268.128 14.3295C266.709 12.8276 264.373 12.619 261.87 12.619H255.237V29.223C256.363 27.3874 258.115 26.4279 259.325 25.9273C259.826 25.7604 260.66 25.5935 260.744 25.5518C263.414 25.0094 266.417 24.3002 268.128 22.5063ZM285.83 14.1209L293.006 40.2785H290.795L287.916 29.8488C283.911 30.7666 283.077 32.644 281.658 35.8146C280.615 38.1091 279.447 40.4037 276.986 40.4037H276.86C275.984 40.3619 275.359 40.1951 274.941 39.7362C274.608 39.4024 274.441 38.9852 274.399 38.568C274.399 38.5263 274.357 38.5263 274.357 38.5263C274.316 38.3177 274.316 38.1091 274.316 37.9005C274.316 37.4833 274.357 37.0244 274.483 36.649L280.699 14.1209C281.074 12.8276 282.159 12.1601 283.285 12.1601C284.37 12.1601 285.496 12.8276 285.83 14.1209ZM278.029 38.568C281.283 34.3962 281.408 31.2255 287.791 29.4316L283.577 13.9957C283.41 13.3699 282.91 13.0779 282.409 13.0779C281.867 13.0779 281.366 13.3699 281.199 13.9957L275.108 36.1066C274.941 36.5655 274.816 37.233 274.816 37.8588C274.816 38.4429 274.941 38.9435 275.275 39.2355C275.567 39.4441 275.859 39.5693 276.235 39.5693C276.86 39.5693 277.528 39.1938 278.029 38.568ZM310.364 39.7362C310.656 39.7362 310.948 39.7779 311.24 39.7779C314.161 39.7779 317.415 38.7766 320.21 35.6894L320.544 35.9398C318.04 38.7766 314.453 40.4454 310.406 40.4454C302.855 40.4454 296.764 34.5213 296.764 26.2193C296.764 17.9173 302.855 11.9932 310.406 11.9932C315.537 11.9932 318.917 14.2877 320.794 18.2093L319.083 19.1688C317.665 15.0387 315.287 12.4104 310.406 12.4104C304.232 12.4104 299.225 18.1676 299.225 26.2193C299.225 34.271 304.232 39.4024 310.364 39.7362ZM335.68 12.619H329.589V25.7604H332.593C334.136 25.7604 336.723 25.6769 338.475 24.1751V27.7212C336.473 26.2193 333.594 26.1776 332.176 26.1776H329.589V39.8613H335.68C339.393 39.8613 341.604 38.6515 343.106 37.7754V40.2785H327.461V12.2018H343.106V14.7049C341.604 13.8288 339.393 12.619 335.68 12.619Z" fill="#6D5B37" style="mix-blend-mode:color"/>
<defs>
<filter id="filter0_ii_67_267" x="12.3472" y="10.3092" width="26.2485" height="27.3695" filterUnits="userSpaceOnUse" color-interpolation-filters="sRGB">
<feFlood flood-opacity="0" result="BackgroundImageFix"/>
<feBlend mode="normal" in="SourceGraphic" in2="BackgroundImageFix" result="shape"/>
<feColorMatrix in="SourceAlpha" type="matrix" values="0 0 0 0 0 0 0 0 0 0 0 0 0 0 0 0 0 0 127 0" result="hardAlpha"/>
<feOffset dy="-0.516245"/>
<feGaussianBlur stdDeviation="0.258123"/>
<feComposite in2="hardAlpha" operator="arithmetic" k2="-1" k3="1"/>
<feColorMatrix type="matrix" values="0 0 0 0 0 0 0 0 0 0 0 0 0 0 0 0 0 0 0.4 0"/>
<feBlend mode="normal" in2="shape" result="effect1_innerShadow_67_267"/>
<feColorMatrix in="SourceAlpha" type="matrix" values="0 0 0 0 0 0 0 0 0 0 0 0 0 0 0 0 0 0 127 0" result="hardAlpha"/>
<feOffset dy="0.516245"/>
<feGaussianBlur stdDeviation="0.129061"/>
<feComposite in2="hardAlpha" operator="arithmetic" k2="-1" k3="1"/>
<feColorMatrix type="matrix" values="0 0 0 0 1 0 0 0 0 1 0 0 0 0 1 0 0 0 0.4 0"/>
<feBlend mode="normal" in2="effect1_innerShadow_67_267" result="effect2_innerShadow_67_267"/>
</filter>
<linearGradient id="paint0_linear_67_267" x1="10.0377" y1="11.6454" x2="42.5972" y2="37.8709" gradientUnits="userSpaceOnUse">
<stop offset="0.00082061" stop-color="#576265"/>
<stop offset="0.156148" stop-color="#9EA1A1"/>
<stop offset="0.429117" stop-color="#848B8A"/>
<stop offset="0.72808" stop-color="#576265"/>
<stop offset="0.894255" stop-color="#757A7B"/>
<stop offset="1" stop-color="#576265"/>
</linearGradient>
<radialGradient id="paint1_radial_67_267" cx="0" cy="0" r="1" gradientUnits="userSpaceOnUse" gradientTransform="translate(2.18797 9.60305) rotate(23.7374) scale(53.1453 58.4461)">
<stop stop-color="white"/>
<stop offset="1" stop-color="white" stop-opacity="0"/>
</radialGradient>
<linearGradient id="paint2_linear_67_267" x1="12.9197" y1="24.3455" x2="45.4392" y2="24.4785" gradientUnits="userSpaceOnUse">
<stop offset="0.00082061" stop-color="#576265"/>
<stop offset="0.156148" stop-color="#9EA1A1"/>
<stop offset="0.429117" stop-color="#848B8A"/>
<stop offset="0.72808" stop-color="#576265"/>
<stop offset="0.894255" stop-color="#757A7B"/>
<stop offset="1" stop-color="#576265"/>
</linearGradient>
<radialGradient id="paint3_radial_67_267" cx="0" cy="0" r="1" gradientUnits="userSpaceOnUse" gradientTransform="translate(32.0699 9.39302) rotate(89.2707) scale(15.0389 17.4782)">
<stop stop-color="white"/>
<stop offset="1" stop-color="white" stop-opacity="0"/>
</radialGradient>
<linearGradient id="paint4_linear_67_267" x1="32.0228" y1="17.8113" x2="34.486" y2="17.5349" gradientUnits="userSpaceOnUse">
<stop offset="0.00082061" stop-color="#576265"/>
<stop offset="0.156148" stop-color="#9EA1A1"/>
<stop offset="0.429117" stop-color="#848B8A"/>
<stop offset="0.72808" stop-color="#576265"/>
<stop offset="0.894255" stop-color="#757A7B"/>
<stop offset="1" stop-color="#576265"/>
</linearGradient>
<radialGradient id="paint5_radial_67_267" cx="0" cy="0" r="1" gradientUnits="userSpaceOnUse" gradientTransform="translate(31.6149 18.1079) rotate(-25.2758) scale(3.21471 4.26061)">
<stop stop-color="white"/>
<stop offset="1" stop-color="white" stop-opacity="0"/>
</radialGradient>
<linearGradient id="paint6_linear_67_267" x1="81.9008" y1="24.8201" x2="335.938" y2="10.5034" gradientUnits="userSpaceOnUse">
<stop offset="0.00082061" stop-color="#576265"/>
<stop offset="0.156148" stop-color="#9EA1A1"/>
<stop offset="0.429117" stop-color="#848B8A"/>
<stop offset="0.72808" stop-color="#576265"/>
<stop offset="0.894255" stop-color="#757A7B"/>
<stop offset="1" stop-color="#576265"/>
</linearGradient>
<radialGradient id="paint7_radial_67_267" cx="0" cy="0" r="1" gradientUnits="userSpaceOnUse" gradientTransform="translate(230.564 8.33102) rotate(79.9231) scale(16.5875 134.894)">
<stop stop-color="white"/>
<stop offset="1" stop-color="white" stop-opacity="0"/>
</radialGradient>
<clipPath id="clip0_67_267">
<rect x="0.596191" width="50.0979" height="50.0979" rx="25.049" transform="rotate(0.681838 0.596191 0)" fill="white"/>
</clipPath>
</defs>
</svg>
