<svg width="25" height="29" viewBox="0 0 25 29" fill="none" xmlns="http://www.w3.org/2000/svg">
<path d="M10.6471 2.51866L12.2494 5.28181C12.6676 6.00333 12.8527 6.8372 12.7785 7.66644C12.7044 8.49567 12.3747 9.27866 11.8358 9.90554L9.91789 12.1355C9.86186 12.2007 9.83093 12.2841 9.83069 12.3707C9.8299 12.9502 10.3351 14.0265 11.3903 15.487C12.1553 16.5483 12.8254 17.2808 13.3691 17.673C13.7499 17.9477 13.9471 17.9945 14.026 17.9631L16.8014 16.7805C17.5593 16.4576 18.4001 16.3831 19.206 16.5673C20.0119 16.7515 20.7425 17.1852 21.2952 17.8077L23.4015 20.1834C24.0426 20.9056 24.4042 21.8362 24.419 22.8022C24.4339 23.7683 24.1011 24.7043 23.4823 25.4365L22.3465 26.7791C21.7444 27.4905 20.969 28.0311 20.0956 28.3482C19.2222 28.6652 18.2806 28.748 17.3625 28.5883C13.3065 27.8825 9.41588 24.8903 5.65682 19.6851C1.89412 14.473 0.266081 9.81808 0.858253 5.71017C0.983249 4.83947 1.31601 4.01404 1.82796 3.30483C2.3399 2.59562 3.01571 2.02382 3.79733 1.63856L4.08083 1.50874L5.69313 0.830901C6.57628 0.458859 7.56584 0.424969 8.47714 0.735555C9.38844 1.04614 10.1592 1.67998 10.6457 2.51881L10.6471 2.51866ZM6.53608 2.83867L4.92552 3.51925L4.70682 3.62052C4.24951 3.85529 3.85516 4.19729 3.55655 4.61812C3.25793 5.03894 3.06368 5.52641 2.98995 6.04003C2.49295 9.49307 3.93522 13.6197 7.39531 18.4119C10.8518 23.1972 14.3011 25.8495 17.7125 26.4449C18.2635 26.5407 18.8286 26.491 19.3527 26.3006C19.8768 26.1101 20.3421 25.7856 20.7033 25.3584L21.8377 24.016C22.1192 23.6832 22.2707 23.2577 22.264 22.8184C22.2573 22.3792 22.093 21.956 21.8015 21.6277L19.6953 19.2534C19.444 18.9701 19.1117 18.7727 18.7451 18.6889C18.3785 18.6051 17.996 18.6391 17.6513 18.7861L14.8691 19.9723C13.2521 20.6462 11.5892 19.4437 9.65181 16.7602C8.34526 14.9532 7.67278 13.5191 7.67611 12.3497C7.67679 11.7425 7.8939 11.1597 8.2849 10.7022L10.2029 8.47219C10.4477 8.18712 10.5973 7.83113 10.6309 7.45417C10.6644 7.07722 10.5801 6.69822 10.3898 6.37035L8.78895 3.60705C8.5678 3.22577 8.21741 2.93767 7.80316 2.79652C7.38891 2.65537 6.9391 2.67081 6.53767 2.83997L6.53608 2.83867Z" fill="#1A1A19"/>
</svg>
